<?xml version="1.0" standalone="no"?>
<!DOCTYPE svg PUBLIC "-//W3C//DTD SVG 20010904//EN"
 "http://www.w3.org/TR/2001/REC-SVG-20010904/DTD/svg10.dtd">
<svg version="1.0" xmlns="http://www.w3.org/2000/svg"
 width="225.000000pt" height="225.000000pt" viewBox="0 0 225.000000 225.000000"
 preserveAspectRatio="xMidYMid meet">
<metadata>
Created by potrace 1.10, written by Peter Selinger 2001-2011
</metadata>
<g transform="translate(0.000000,225.000000) scale(0.100000,-0.100000)"
fill="#000000" stroke="none">
<path d="M1055 2228 c-38 -11 -286 -93 -550 -181 l-480 -162 -2 -650 c-2 -357
1 -655 5 -661 8 -12 1054 -558 1089 -568 15 -5 72 20 205 87 100 52 341 174
533 272 193 98 356 182 363 188 9 7 12 151 12 657 0 604 -1 648 -17 662 -15
12 -899 319 -1044 362 -39 12 -52 11 -114 -6z m634 -213 l496 -170 3 -632 2
-632 -327 -167 c-518 -264 -689 -351 -712 -366 -19 -11 -28 -10 -79 18 -31 17
-266 140 -522 274 -256 133 -473 251 -482 262 -17 19 -18 63 -18 620 0 376 4
606 10 618 7 13 152 66 522 189 282 94 519 175 527 180 9 6 27 3 49 -7 19 -10
258 -93 531 -187z"/>
<path d="M689 2031 c-229 -76 -425 -144 -437 -150 -12 -6 -27 -21 -33 -32 -17
-33 18 -60 159 -125 70 -31 161 -73 202 -91 489 -224 539 -245 573 -234 81 27
843 370 864 389 29 26 27 48 -7 73 -26 19 -860 309 -889 309 -9 0 -203 -63
-432 -139z m872 -50 c239 -81 441 -150 449 -153 12 -5 11 -7 -5 -14 -11 -4
-213 -92 -449 -196 l-430 -189 -400 182 c-221 100 -423 191 -450 202 l-49 21
439 147 c241 81 444 148 450 148 7 1 207 -66 445 -148z"/>
<path d="M112 1767 l-22 -23 0 -552 0 -551 28 -26 c15 -15 95 -62 177 -104 83
-43 285 -148 451 -234 165 -87 305 -157 311 -157 6 0 21 12 32 26 21 26 21 35
21 596 0 518 -2 573 -17 599 -18 31 -44 43 -623 304 -162 73 -304 136 -316
139 -14 4 -27 -1 -42 -17z m503 -232 l450 -203 3 -592 2 -592 -32 20 c-18 11
-230 122 -470 247 l-438 227 0 559 c0 530 1 559 18 549 9 -6 220 -103 467
-215z"/>
<path d="M364 1360 c-18 -6 -48 -28 -68 -50 l-37 -41 111 -55 c61 -29 113 -54
115 -54 3 0 11 14 20 30 14 26 21 30 60 30 79 0 146 -82 111 -135 -20 -30 -58
-38 -100 -21 l-34 14 -7 -51 c-4 -29 -9 -59 -11 -68 -4 -13 7 -20 46 -29 86
-21 140 -81 140 -158 0 -76 -73 -99 -150 -48 -38 25 -80 88 -80 120 0 9 -15
19 -37 25 -21 6 -76 22 -123 35 -46 14 -85 24 -87 23 -1 -1 12 -32 29 -67 49
-101 133 -177 270 -245 114 -55 206 -85 263 -85 49 0 118 40 137 80 48 95 3
220 -104 291 l-40 26 38 7 c20 4 50 20 66 36 23 23 28 37 28 75 0 125 -109
229 -310 295 -74 24 -200 34 -246 20z m176 -45 c156 -36 264 -98 309 -177 50
-87 43 -120 -39 -172 -51 -32 -49 -49 14 -110 85 -81 109 -164 66 -233 -38
-63 -128 -64 -274 -3 -137 57 -274 157 -292 213 -8 26 -4 28 51 13 43 -10 55
-19 81 -59 43 -66 63 -86 106 -108 103 -53 200 11 185 122 -8 60 -49 112 -118
149 -32 17 -59 35 -59 39 0 12 26 32 33 25 11 -11 77 18 97 43 27 34 26 88 -2
129 -47 69 -148 96 -201 54 -33 -26 -37 -26 -108 10 -64 33 -66 43 -15 66 41
17 86 17 166 -1z"/>
<path d="M2070 1763 c-131 -50 -882 -391 -900 -409 l-25 -24 -2 -573 c-2 -442
0 -577 10 -596 29 -57 17 -61 493 179 245 124 461 239 480 256 l34 31 0 549
c0 481 -2 552 -16 572 -15 21 -42 27 -74 15z m50 -581 l0 -557 -137 -69 c-76
-37 -284 -143 -463 -234 -179 -92 -328 -169 -332 -170 -5 -2 -8 262 -8 586 l0
589 463 206 c254 112 465 205 470 206 4 1 7 -250 7 -557z"/>
<path d="M1685 1356 c-44 -18 -138 -62 -209 -97 l-129 -64 7 -210 c3 -115 7
-285 8 -378 1 -92 3 -167 6 -167 18 0 400 212 451 250 152 116 217 268 192
451 -30 227 -134 295 -326 215z m221 -49 c49 -53 67 -127 62 -256 -3 -100 -6
-110 -42 -179 -59 -111 -132 -167 -400 -306 -81 -42 -112 -53 -117 -44 -9 18
-20 630 -11 644 9 14 233 127 317 160 87 35 148 29 191 -19z"/>
<path d="M1622 1202 c-23 -10 -54 -30 -69 -44 l-26 -27 9 -196 c9 -178 12
-197 31 -216 17 -17 28 -20 55 -15 48 10 137 74 173 124 28 40 30 51 33 144 5
119 -8 174 -50 217 -36 37 -86 41 -156 13z m125 -30 c21 -13 41 -74 48 -148
12 -126 -20 -193 -124 -255 -72 -43 -87 -47 -87 -21 0 9 -4 101 -8 203 l-8
186 48 21 c50 21 110 28 131 14z"/>
</g>
</svg>
