<?xml version="1.0" standalone="no"?>
<!DOCTYPE svg PUBLIC "-//W3C//DTD SVG 20010904//EN"
 "http://www.w3.org/TR/2001/REC-SVG-20010904/DTD/svg10.dtd">
<svg version="1.0" xmlns="http://www.w3.org/2000/svg"
 width="300.000000pt" height="124.000000pt" viewBox="0 0 300.000000 124.000000"
 preserveAspectRatio="xMidYMid meet">
<metadata>
Created by potrace 1.10, written by Peter Selinger 2001-2011
</metadata>
<g transform="translate(0.000000,124.000000) scale(0.100000,-0.100000)"
fill="#000000" stroke="none">
<path d="M200 1149 c-60 -18 -104 -71 -111 -134 -4 -30 -3 -30 48 -33 50 -3
51 -2 58 28 11 51 77 68 115 30 15 -15 20 -33 20 -78 l0 -57 -57 -1 c-118 -2
-173 -41 -193 -139 -19 -93 5 -182 58 -208 43 -22 74 -27 117 -17 37 8 77 44
72 65 -1 6 9 32 22 58 18 37 22 59 18 95 -7 61 -32 82 -99 82 -44 0 -54 -4
-84 -34 -31 -31 -34 -40 -34 -91 0 -51 3 -60 31 -86 22 -21 41 -29 68 -29 29
-1 33 -2 18 -11 -9 -6 -36 -11 -58 -11 -31 0 -47 6 -67 25 -23 24 -26 34 -26
107 -1 78 0 81 35 115 31 31 42 36 102 42 54 5 72 11 93 32 23 22 25 32 21 74
-10 113 -113 158 -185 81 -38 -41 -66 -24 -32 19 35 44 122 60 180 31 52 -25
65 -51 71 -140 4 -63 10 -91 26 -111 19 -27 19 -29 2 -53 -16 -22 -24 -85 -20
-147 2 -30 41 -53 89 -53 84 0 133 63 124 157 -4 43 -45 81 -90 85 l-37 3 27
14 c41 21 95 7 118 -32 40 -64 18 -196 -38 -229 -15 -9 -52 -17 -82 -19 -34
-1 -65 -10 -82 -21 -26 -18 -28 -25 -28 -85 0 -59 3 -67 30 -93 16 -15 40 -30
52 -32 32 -6 82 16 106 47 33 41 56 29 31 -17 -13 -24 -83 -57 -122 -58 -15 0
-46 9 -68 21 -49 24 -69 66 -69 143 0 29 -6 69 -14 87 l-14 34 -7 -28 c-4 -16
-5 -64 -3 -108 5 -88 19 -117 79 -157 29 -21 44 -23 106 -20 99 5 149 45 168
135 l7 33 -55 0 c-50 0 -55 -2 -61 -24 -14 -56 -63 -72 -110 -35 -23 18 -26
28 -26 80 l0 59 63 0 c130 0 191 62 191 195 1 120 -42 170 -146 170 -53 0 -62
-3 -83 -27 -13 -16 -25 -28 -27 -28 -2 0 -2 39 0 87 2 76 0 94 -20 133 -13 24
-36 52 -53 62 -39 22 -120 30 -165 17z m130 -404 c0 -57 -3 -69 -25 -90 -30
-31 -77 -33 -106 -4 -18 18 -21 30 -16 72 6 65 30 87 98 87 l49 0 0 -65z m242
48 c13 -11 18 -30 18 -65 0 -62 -24 -88 -79 -88 -22 0 -46 -3 -55 -6 -27 -10
-22 115 5 150 24 31 81 36 111 9z"/>
<path d="M945 896 c-35 -15 -54 -36 -86 -91 -22 -38 -24 -53 -29 -250 -4 -178
-7 -210 -20 -210 -13 0 -15 34 -16 245 0 135 1 251 4 258 6 18 19 15 42 -10
19 -21 20 -21 20 -2 0 10 3 29 6 42 6 21 4 22 -52 22 l-59 0 0 -305 0 -305 58
0 57 0 0 238 c0 268 1 272 72 272 66 0 68 -7 68 -274 l0 -237 56 3 55 3 -1
259 c-1 276 -4 299 -53 330 -34 22 -88 28 -122 12z m107 -51 c35 -35 38 -58
38 -296 0 -200 -1 -209 -19 -209 -19 0 -20 10 -23 213 -3 193 -5 214 -23 239
-11 15 -35 33 -53 40 -27 10 -30 14 -19 23 29 21 73 16 99 -10z"/>
<path d="M1357 896 c-49 -18 -64 -31 -90 -80 -19 -36 -22 -61 -25 -191 -3 -91
1 -170 8 -202 21 -95 74 -136 176 -137 97 0 160 49 171 132 l6 42 -50 0 c-46
0 -50 -2 -64 -33 -12 -27 -20 -32 -54 -35 -61 -4 -78 14 -85 92 l-5 66 127 0
128 0 0 104 c0 56 -5 118 -11 137 -17 51 -65 96 -115 108 -54 14 -70 13 -117
-3z m153 -54 c34 -26 59 -95 59 -169 1 -85 -9 -93 -103 -86 -121 9 -166 -25
-153 -118 7 -53 31 -88 74 -105 42 -18 83 -7 124 32 32 31 54 25 38 -9 -16
-35 -58 -60 -109 -65 -52 -5 -90 11 -130 53 -24 26 -25 32 -28 187 -2 88 -1
176 3 194 7 41 57 101 88 107 43 8 112 -3 137 -21z"/>
<path d="M1358 813 c-54 -57 -64 -133 -22 -182 23 -28 31 -31 83 -31 78 0 111
28 111 94 0 85 -37 136 -104 143 -35 4 -45 1 -68 -24z m107 -26 c22 -18 27
-34 32 -85 l6 -62 -77 0 -76 0 0 60 c0 51 4 65 25 85 30 31 56 32 90 2z"/>
<path d="M1935 895 c-22 -8 -55 -30 -72 -49 l-33 -36 0 45 0 45 -55 0 -55 0 0
-305 0 -305 55 0 55 0 0 205 c0 220 5 246 52 279 12 9 44 19 70 22 l48 7 0 53
c0 60 -2 61 -65 39z m-125 -70 c0 -8 7 -18 17 -23 15 -9 14 -12 -5 -43 -18
-31 -21 -52 -23 -219 -2 -173 -9 -218 -30 -204 -10 6 -13 507 -3 517 10 10 44
-12 44 -28z"/>
<path d="M2160 892 c-19 -9 -43 -33 -55 -52 -18 -32 -20 -52 -20 -245 0 -193
2 -213 20 -245 54 -92 166 -89 221 6 9 15 10 -4 7 -81 -5 -109 -19 -135 -70
-135 -29 0 -73 41 -73 70 0 18 -6 20 -56 20 l-56 0 7 -37 c9 -49 33 -91 68
-117 24 -17 43 -21 110 -21 71 0 87 3 116 24 60 43 61 52 61 456 l0 365 -55 0
-56 0 7 -35 c7 -42 -1 -44 -29 -9 -20 25 -72 54 -99 54 -7 0 -29 -8 -48 -18z
m68 -28 c29 -8 28 -16 -7 -36 -58 -33 -63 -50 -61 -238 1 -187 4 -198 60 -235
16 -11 30 -23 30 -27 0 -14 -60 -8 -85 8 -38 25 -45 65 -45 256 0 192 8 231
51 262 26 18 26 18 57 10z m173 -353 c0 -370 0 -370 -54 -406 -27 -17 -87 -22
-139 -12 -41 8 -84 57 -74 82 8 22 21 18 35 -8 32 -60 112 -74 162 -29 28 25
32 35 36 98 4 50 1 80 -11 108 -13 31 -14 42 -4 54 21 25 24 328 4 375 -17 43
-12 65 18 77 12 4 22 7 24 5 1 -1 2 -156 3 -344z m-94 277 c22 -21 23 -27 23
-195 0 -160 -2 -175 -20 -193 -29 -29 -74 -26 -99 6 -19 25 -21 40 -21 191 0
161 0 164 25 188 30 31 62 32 92 3z"/>
<path d="M2532 888 c3 -7 42 -142 87 -301 81 -283 82 -288 71 -343 -16 -77
-46 -103 -107 -95 -9 1 -13 -15 -13 -55 l0 -57 49 6 c67 8 109 31 126 70 13
28 195 755 195 778 0 5 -24 9 -54 9 l-53 0 -42 -195 c-24 -107 -41 -200 -38
-207 5 -17 40 48 49 92 24 127 56 248 69 264 5 5 11 2 15 -7 6 -16 -5 -64 -96
-427 -43 -171 -55 -216 -66 -262 -8 -33 -43 -67 -73 -70 -33 -4 -38 20 -8 31
43 17 75 70 82 136 7 63 5 76 -45 250 -17 61 -40 143 -51 184 -11 41 -24 82
-30 92 -13 25 -11 71 2 67 14 -5 32 -53 49 -128 25 -113 52 -196 71 -215 19
-20 19 -20 13 15 -4 19 -26 112 -48 205 l-41 170 -59 3 c-45 2 -57 0 -54 -10z"/>
<path d="M510 185 c0 -68 3 -87 15 -92 21 -7 32 4 17 19 -7 7 -12 42 -12 85 0
42 -4 73 -10 73 -6 0 -10 -35 -10 -85z"/>
<path d="M569 238 c-4 -73 4 -134 19 -146 12 -9 19 -9 26 -1 8 8 7 13 -1 16
-17 6 -17 89 0 97 10 5 10 7 0 12 -7 3 -13 14 -13 25 0 27 -30 24 -31 -3z"/>
<path d="M1039 238 c-4 -73 4 -134 19 -146 12 -9 19 -9 26 -1 8 8 7 13 -1 16
-8 3 -13 22 -13 48 0 25 5 46 13 49 10 5 10 7 0 12 -7 3 -13 14 -13 25 0 27
-30 24 -31 -3z"/>
<path d="M404 205 c-9 -22 2 -30 20 -16 15 13 36 7 36 -10 0 -5 -8 -9 -18 -9
-24 0 -42 -19 -42 -46 0 -30 20 -43 53 -37 27 5 28 7 25 67 -3 61 -3 61 -36
64 -22 2 -34 -2 -38 -13z m51 -76 c0 -7 -8 -15 -17 -17 -18 -3 -25 18 -11 32
10 10 28 1 28 -15z"/>
<path d="M641 201 c-29 -54 7 -134 49 -111 21 11 28 40 10 40 -5 0 -10 -4 -10
-10 0 -5 -7 -10 -15 -10 -8 0 -15 8 -15 19 0 14 6 17 26 13 24 -4 25 -3 22 34
-3 34 -7 39 -30 42 -18 2 -30 -3 -37 -17z m49 -21 c0 -11 -7 -20 -15 -20 -8 0
-15 9 -15 20 0 11 7 20 15 20 8 0 15 -9 15 -20z"/>
<path d="M740 153 c0 -47 4 -63 14 -63 10 0 12 11 9 44 -5 37 -2 46 16 58 29
18 26 25 -9 25 l-30 0 0 -64z"/>
<path d="M820 156 c0 -52 3 -66 15 -66 12 0 15 13 15 56 0 73 24 70 28 -4 2
-29 8 -52 13 -52 6 0 9 26 7 63 l-3 62 -37 3 -38 3 0 -65z"/>
<path d="M934 205 c-9 -22 2 -30 20 -16 15 13 36 7 36 -10 0 -5 -8 -9 -18 -9
-24 0 -42 -19 -42 -47 0 -27 23 -42 56 -35 24 4 25 8 22 66 -3 61 -3 61 -36
64 -22 2 -34 -2 -38 -13z m51 -76 c0 -7 -8 -15 -17 -17 -18 -3 -25 18 -11 32
10 10 28 1 28 -15z"/>
<path d="M1108 155 c-2 -47 0 -65 10 -65 8 0 12 20 12 65 0 84 -17 84 -22 0z"/>
<path d="M1153 208 c2 -7 10 -37 17 -65 8 -29 19 -53 26 -53 6 0 17 21 23 48
7 26 14 55 17 65 3 10 0 17 -9 17 -8 0 -17 -18 -23 -47 l-10 -48 -8 48 c-6 31
-13 47 -23 47 -8 0 -13 -6 -10 -12z"/>
<path d="M1267 213 c-4 -3 -7 -30 -7 -59 0 -43 4 -55 20 -64 24 -13 60 3 60
25 0 18 -12 19 -27 4 -6 -6 -16 -8 -22 -5 -21 13 -11 26 19 26 26 0 30 4 30
28 0 15 -5 33 -12 40 -13 13 -50 16 -61 5z m43 -33 c0 -11 -7 -20 -15 -20 -15
0 -21 21 -8 33 12 13 23 7 23 -13z"/>
<path d="M1422 208 c-6 -6 -12 -31 -12 -54 0 -50 29 -80 62 -63 19 10 25 39 8
39 -5 0 -10 -4 -10 -10 0 -5 -7 -10 -15 -10 -8 0 -15 8 -15 19 0 14 6 17 26
13 24 -4 25 -3 22 34 -3 33 -7 39 -28 42 -14 2 -31 -3 -38 -10z m48 -28 c0
-11 -7 -20 -15 -20 -8 0 -15 9 -15 20 0 11 7 20 15 20 8 0 15 -9 15 -20z"/>
<path d="M1520 156 c0 -46 4 -66 13 -66 8 0 12 17 12 52 0 40 4 53 15 53 12 0
15 -12 14 -52 -1 -40 2 -53 13 -53 11 0 13 13 11 63 l-3 62 -37 3 -38 3 0 -65z"/>
<path d="M1637 214 c-4 -4 -7 -31 -7 -60 0 -42 4 -55 18 -63 25 -13 70 15 52
33 -9 8 -14 8 -17 -1 -7 -20 -33 -15 -33 6 0 14 6 17 26 13 24 -4 25 -3 22 34
-3 33 -7 39 -28 42 -14 2 -29 0 -33 -4z m43 -34 c0 -11 -7 -20 -15 -20 -8 0
-15 9 -15 20 0 11 7 20 15 20 8 0 15 -9 15 -20z"/>
<path d="M1730 154 c0 -50 3 -64 15 -64 11 0 15 12 15 50 0 36 4 52 15 56 25
10 17 21 -15 22 l-30 1 0 -65z"/>
<path d="M1814 206 c-3 -7 -4 -35 -2 -62 3 -46 5 -49 31 -49 19 1 27 -4 27
-17 0 -20 -20 -24 -38 -6 -16 16 -29 1 -16 -20 14 -22 41 -27 59 -12 11 9 15
35 15 95 l0 82 -35 1 c-22 1 -38 -4 -41 -12z m51 -52 c0 -28 -4 -39 -15 -39
-16 0 -26 45 -16 72 11 28 31 7 31 -33z"/>
<path d="M1910 218 c0 -2 9 -32 19 -66 19 -61 19 -92 0 -92 -5 0 -9 -7 -9 -15
0 -8 3 -15 8 -15 20 1 32 21 46 80 9 36 18 75 22 88 5 16 2 22 -10 22 -10 0
-16 -9 -17 -22 0 -13 -4 -32 -9 -43 -7 -16 -9 -13 -15 23 -5 25 -13 42 -21 42
-8 0 -14 -1 -14 -2z"/>
</g>
</svg>
