<?xml version="1.0" standalone="no"?>
<!DOCTYPE svg PUBLIC "-//W3C//DTD SVG 20010904//EN"
 "http://www.w3.org/TR/2001/REC-SVG-20010904/DTD/svg10.dtd">
<svg version="1.0" xmlns="http://www.w3.org/2000/svg"
 width="200.000000pt" height="200.000000pt" viewBox="0 0 200.000000 200.000000"
 preserveAspectRatio="xMidYMid meet">
<metadata>
Created by potrace 1.10, written by Peter Selinger 2001-2011
</metadata>
<g transform="translate(0.000000,200.000000) scale(0.100000,-0.100000)"
fill="#000000" stroke="none">
<path d="M967 1779 c-52 -8 -88 -36 -114 -89 -29 -56 -29 -96 0 -150 27 -51
90 -90 147 -90 57 0 120 39 147 90 29 54 29 94 1 150 -37 72 -100 103 -181 89z
m104 -62 c23 -15 38 -37 47 -64 12 -37 11 -46 -6 -86 -20 -45 -66 -77 -112
-77 -32 0 -87 28 -103 54 -76 116 59 251 174 173z"/>
<path d="M661 900 c-214 -590 -213 -584 -182 -663 l11 -28 46 32 c34 23 52 45
68 83 12 28 105 279 207 558 101 280 186 508 189 508 3 0 90 -235 194 -523
104 -287 198 -539 208 -559 10 -20 38 -51 63 -68 l45 -31 10 26 c32 83 35 71
-180 663 -112 306 -205 559 -207 561 -1 2 -11 -3 -20 -11 -48 -43 -166 -47
-216 -7 -14 10 -27 19 -29 19 -1 0 -95 -252 -207 -560z m263 484 c9 -3 16 -11
16 -18 0 -14 -363 -1014 -379 -1043 -5 -11 -17 -26 -26 -33 -14 -12 -18 -11
-26 1 -5 8 -9 22 -9 32 0 14 317 900 375 1050 7 18 22 21 49 11z m231 -96 c89
-243 137 -376 155 -423 34 -92 131 -359 162 -448 40 -117 27 -175 -24 -106
-18 24 -388 1029 -388 1054 0 14 15 23 41 24 12 1 27 -27 54 -101z"/>
<path d="M212 1307 l-112 -112 81 -80 80 -80 24 29 c20 26 26 28 40 16 14 -12
13 -16 -12 -42 l-27 -28 79 -81 80 -80 52 55 c44 47 53 53 64 40 10 -13 4 -24
-39 -67 l-52 -53 45 -44 c24 -24 46 -42 48 -39 2 2 29 76 60 164 l58 159 -178
178 -178 178 -113 -113z m272 -106 l148 -149 -12 -38 c-18 -56 -19 -57 -46
-39 -21 14 -27 14 -52 1 -15 -8 -36 -23 -46 -35 -27 -29 -36 -27 -85 23 -41
42 -43 46 -33 75 10 27 8 35 -13 59 -22 25 -25 26 -57 14 -32 -12 -34 -11 -82
37 l-49 50 73 75 c40 42 81 76 89 76 9 0 83 -67 165 -149z"/>
<path d="M1497 1242 l-178 -178 58 -159 c31 -88 58 -162 60 -164 2 -3 24 15
48 39 l45 44 -27 28 c-22 23 -24 30 -13 43 12 14 16 12 39 -15 l26 -31 80 80
79 81 -52 53 c-46 47 -51 55 -38 66 13 11 23 5 65 -41 l50 -53 80 80 81 80
-113 113 -112 112 -178 -178z m266 39 c37 -38 67 -75 67 -83 0 -8 -20 -33 -43
-56 l-44 -43 -42 35 c-50 42 -72 45 -101 14 -28 -30 -26 -42 15 -87 19 -21 35
-43 35 -48 0 -5 -20 -29 -45 -53 -43 -42 -47 -44 -76 -33 -29 11 -34 10 -61
-17 -25 -25 -27 -33 -18 -50 6 -12 9 -26 7 -33 -3 -7 -8 -4 -12 8 -4 11 -23
59 -41 107 -19 49 -34 93 -34 100 0 19 292 308 311 308 9 0 46 -31 82 -69z"/>
<path d="M794 726 l-61 -165 42 -41 41 -41 52 55 c43 45 53 52 63 39 10 -11 3
-23 -39 -66 l-52 -53 80 -79 80 -80 80 80 80 79 -27 28 c-21 22 -24 30 -14 42
11 13 16 11 38 -15 l26 -30 42 41 42 41 -61 165 -60 165 -73 -73 -73 -72 -73
72 -73 73 -60 -165z m206 -16 c10 0 40 20 68 45 27 25 54 45 60 45 11 0 82
-191 82 -221 0 -25 -25 -35 -55 -21 -19 9 -28 7 -50 -10 -23 -18 -25 -25 -20
-62 6 -39 4 -43 -39 -86 l-46 -44 -45 44 c-25 24 -45 49 -45 56 0 6 14 28 30
49 36 46 37 64 6 94 -22 21 -26 22 -53 8 -15 -8 -37 -24 -47 -36 -22 -24 -39
-27 -54 -8 -11 12 16 103 62 211 l16 38 56 -51 c30 -28 64 -51 74 -51z"/>
</g>
</svg>
