<?xml version="1.0" standalone="no"?>
<!DOCTYPE svg PUBLIC "-//W3C//DTD SVG 20010904//EN"
 "http://www.w3.org/TR/2001/REC-SVG-20010904/DTD/svg10.dtd">
<svg version="1.0" xmlns="http://www.w3.org/2000/svg"
 width="300.000000pt" height="307.000000pt" viewBox="0 0 300.000000 307.000000"
 preserveAspectRatio="xMidYMid meet">
<metadata>
Created by potrace 1.10, written by Peter Selinger 2001-2011
</metadata>
<g transform="translate(0.000000,307.000000) scale(0.100000,-0.100000)"
fill="#000000" stroke="none">
<path d="M695 2461 c-46 -21 -111 -88 -131 -137 -12 -28 -14 -164 -14 -793 l0
-759 28 -53 c31 -60 93 -113 150 -129 22 -6 181 -10 400 -10 l362 0 0 340 0
340 -98 0 c-63 0 -102 4 -110 12 -17 17 -17 259 0 276 8 8 47 12 109 12 l97 0
5 163 c2 89 10 179 16 199 30 96 121 186 217 214 63 18 308 27 337 12 15 -7
17 -24 17 -121 0 -75 -4 -117 -12 -125 -7 -7 -42 -12 -88 -12 -89 0 -140 -13
-166 -41 -16 -18 -20 -42 -24 -155 l-5 -134 141 0 c109 0 144 -3 153 -14 15
-18 -5 -231 -26 -263 -13 -22 -20 -23 -138 -23 l-124 0 -3 -341 -3 -340 245 3
245 3 47 28 c53 31 94 79 114 134 10 31 13 187 13 788 l1 750 -24 50 c-25 55
-81 110 -132 131 -27 12 -171 14 -796 14 -717 0 -765 -2 -803 -19z m1591 -30
c44 -20 114 -95 114 -122 0 -10 5 -21 10 -24 15 -9 14 -1452 -1 -1511 -15 -60
-79 -125 -144 -147 -61 -21 -413 -25 -433 -5 -16 16 -17 560 -2 589 10 17 22
19 111 19 98 0 101 1 130 29 22 22 29 39 29 67 0 21 5 66 11 101 24 137 -1
165 -151 169 -147 4 -140 -2 -140 110 0 89 2 96 25 119 23 20 38 24 120 27 83
3 96 6 119 27 25 24 26 29 26 142 l0 117 -32 27 -32 27 -141 -5 c-86 -3 -159
-11 -189 -20 -102 -33 -196 -123 -231 -222 -13 -35 -19 -91 -23 -185 -2 -74
-8 -140 -13 -146 -5 -6 -44 -14 -87 -17 -67 -5 -80 -9 -99 -32 -21 -24 -23
-36 -23 -145 0 -121 9 -163 39 -176 9 -5 52 -10 96 -13 l80 -6 3 -288 c1 -187
-1 -295 -8 -307 -10 -19 -23 -20 -335 -20 -228 0 -339 4 -372 12 -61 16 -137
88 -152 144 -7 26 -11 279 -11 774 0 703 1 737 20 777 24 54 44 75 100 107
l45 26 750 0 c707 0 752 -1 791 -19z"/>
</g>
</svg>
