<?xml version="1.0" standalone="no"?>
<!DOCTYPE svg PUBLIC "-//W3C//DTD SVG 20010904//EN"
 "http://www.w3.org/TR/2001/REC-SVG-20010904/DTD/svg10.dtd">
<svg version="1.0" xmlns="http://www.w3.org/2000/svg"
 width="300.000000pt" height="300.000000pt" viewBox="0 0 300.000000 300.000000"
 preserveAspectRatio="xMidYMid meet">
<metadata>
Created by potrace 1.10, written by Peter Selinger 2001-2011
</metadata>
<g transform="translate(0.000000,300.000000) scale(0.100000,-0.100000)"
fill="#000000" stroke="none">
<path d="M1310 2470 c-296 -63 -527 -242 -660 -513 -73 -148 -92 -231 -94
-402 -1 -105 4 -160 17 -219 78 -329 310 -586 625 -692 123 -41 182 -50 182
-29 0 9 -9 15 -24 15 -13 0 -63 11 -110 25 -341 99 -596 382 -657 729 -17 100
-7 312 20 404 44 150 111 268 216 380 494 529 1363 318 1566 -380 30 -105 37
-315 14 -429 -29 -144 -96 -286 -192 -404 -132 -162 -361 -295 -559 -323 -26
-4 -49 -13 -52 -21 -7 -21 85 -5 200 33 315 107 547 364 625 692 26 113 23
329 -6 439 -30 112 -107 266 -179 357 -221 277 -590 412 -932 338z"/>
<path d="M1339 2385 c-528 -105 -831 -654 -638 -1155 95 -248 321 -452 571
-515 35 -9 71 -18 80 -21 16 -5 17 17 18 295 l0 301 -109 0 -110 0 -3 125 -3
125 112 0 112 0 0 138 c1 75 5 151 10 167 48 169 189 242 415 216 89 -10 113
-8 86 9 -44 27 -259 29 -330 3 -52 -19 -98 -49 -120 -76 -8 -10 -25 -31 -37
-46 -33 -42 -53 -136 -53 -255 0 -125 1 -124 -118 -127 -78 -2 -81 -3 -92 -30
-16 -38 -10 -243 8 -261 8 -8 43 -13 92 -14 47 -1 86 -7 95 -14 13 -10 15 -52
15 -255 0 -222 -2 -244 -17 -251 -10 -4 -22 -6 -28 -5 -5 2 -15 4 -22 5 -7 1
-16 5 -19 9 -4 4 -15 7 -25 7 -22 0 -161 72 -210 108 -87 65 -110 87 -165 160
-32 42 -63 80 -69 84 -5 4 -6 8 -1 8 5 0 2 8 -7 18 -53 59 -107 258 -107 395
0 96 20 226 44 281 42 99 60 136 65 136 3 0 12 14 19 30 27 60 111 152 197
217 33 24 68 51 78 59 9 8 24 14 31 14 8 0 16 4 18 8 4 11 127 58 193 73 74
18 309 19 370 2 28 -8 57 -17 65 -20 8 -4 17 -7 20 -7 24 -5 107 -41 112 -50
4 -6 11 -11 15 -11 24 -1 178 -114 197 -143 4 -8 19 -23 32 -35 13 -11 24 -26
24 -33 0 -6 7 -14 15 -18 8 -3 15 -12 15 -21 0 -8 4 -15 8 -15 14 0 101 -184
123 -260 21 -72 18 -331 -5 -405 -28 -90 -78 -203 -107 -239 -5 -6 -20 -25
-34 -42 -14 -18 -25 -36 -25 -41 0 -28 -233 -206 -287 -219 -13 -4 -23 -10
-23 -15 0 -4 -27 -13 -60 -20 -33 -6 -60 -15 -60 -20 0 -5 -11 -3 -25 3 l-25
11 2 244 c1 274 -1 266 76 268 81 3 97 5 110 14 14 9 42 149 44 219 1 63 -12
71 -113 73 -48 1 -93 5 -100 10 -9 5 -14 31 -15 74 -3 115 31 152 144 154 100
2 107 12 105 135 -2 74 -6 101 -15 101 -10 0 -13 -27 -15 -104 l-1 -103 -79
-2 c-139 -4 -164 -32 -171 -194 l-5 -103 122 3 c102 3 121 1 121 -12 0 -8 -8
-65 -17 -127 l-17 -113 -103 0 -103 0 0 -301 c0 -281 1 -300 18 -295 9 3 45
12 80 21 250 63 476 267 571 515 219 566 -202 1176 -807 1169 -48 0 -117 -7
-153 -14z"/>
<path d="M1443 690 c-21 -12 -35 -31 -42 -56 -27 -96 81 -163 158 -98 25 21
31 33 31 66 0 50 -13 74 -50 93 -38 20 -58 19 -97 -5z m112 -25 c35 -34 33
-78 -4 -116 -31 -31 -59 -36 -94 -17 -80 42 -52 158 38 158 25 0 44 -8 60 -25z"/>
<path d="M1460 610 c0 -33 2 -60 5 -60 2 0 25 13 50 29 l46 29 -51 31 -50 31
0 -60z"/>
</g>
</svg>
