<?xml version="1.0" standalone="no"?>
<!DOCTYPE svg PUBLIC "-//W3C//DTD SVG 20010904//EN"
 "http://www.w3.org/TR/2001/REC-SVG-20010904/DTD/svg10.dtd">
<svg version="1.0" xmlns="http://www.w3.org/2000/svg"
 width="300.000000pt" height="300.000000pt" viewBox="0 0 300.000000 300.000000"
 preserveAspectRatio="xMidYMid meet">
<metadata>
Created by potrace 1.10, written by Peter Selinger 2001-2011
</metadata>
<g transform="translate(0.000000,300.000000) scale(0.100000,-0.100000)"
fill="#000000" stroke="none">
<path d="M1375 2801 c-320 -38 -575 -159 -795 -380 -58 -58 -131 -145 -163
-192 -240 -362 -288 -805 -130 -1204 65 -165 206 -377 309 -465 104 -89 208
-170 217 -170 3 0 33 -16 66 -35 298 -168 701 -204 1036 -93 186 61 356 168
505 318 254 254 384 566 383 920 0 358 -129 667 -382 921 -150 149 -318 254
-511 319 -152 51 -387 78 -535 61z m320 -42 c33 -5 70 -10 83 -10 13 -1 60
-14 105 -31 45 -16 91 -32 102 -35 11 -4 37 -17 58 -30 21 -13 43 -21 50 -17
7 4 9 4 5 -1 -4 -4 12 -17 35 -29 37 -18 82 -48 155 -103 46 -35 170 -159 188
-188 10 -16 27 -36 36 -43 10 -7 18 -20 18 -28 0 -8 7 -14 15 -14 8 0 15 -5
15 -11 0 -6 13 -30 28 -53 16 -23 32 -55 36 -70 4 -15 11 -24 16 -21 6 3 10 0
10 -8 0 -8 10 -36 22 -63 12 -27 22 -53 23 -59 1 -5 6 -23 13 -38 7 -16 12
-34 12 -41 0 -6 4 -16 9 -21 5 -6 11 -28 14 -50 3 -22 11 -83 18 -135 20 -148
12 -375 -13 -407 -6 -7 -8 -20 -4 -28 6 -17 -30 -141 -44 -150 -6 -3 -10 -15
-10 -26 0 -21 -40 -112 -51 -117 -5 -2 -5 -10 -2 -19 4 -11 2 -14 -5 -9 -7 4
-12 1 -12 -9 0 -18 -64 -117 -71 -110 -3 2 -11 -11 -18 -30 -7 -19 -18 -35
-25 -35 -8 0 -19 -13 -26 -29 -6 -16 -18 -32 -26 -35 -8 -3 -14 -13 -14 -21 0
-9 -4 -13 -10 -10 -5 3 -10 1 -10 -6 0 -7 -3 -9 -7 -6 -3 4 -14 -7 -25 -23
-10 -17 -31 -38 -48 -48 -16 -11 -28 -21 -25 -24 3 -3 -1 -11 -10 -18 -13 -11
-15 -10 -10 6 4 13 2 12 -6 -3 -7 -13 -16 -23 -21 -23 -5 0 -19 -10 -32 -23
-12 -12 -42 -31 -66 -42 -25 -11 -56 -29 -70 -41 -14 -11 -51 -29 -82 -39 -31
-10 -55 -22 -52 -26 2 -4 -6 -5 -18 -1 -14 3 -19 2 -14 -6 5 -8 -5 -12 -34
-12 -25 0 -39 -4 -35 -10 3 -5 5 -10 3 -11 -2 0 -23 -2 -48 -5 -25 -3 -52 -8
-60 -11 -8 -4 -22 -8 -30 -9 -8 -2 -32 -7 -53 -13 -59 -14 -389 -9 -395 7 -2
6 -7 10 -11 8 -3 -3 -36 2 -71 10 -36 8 -81 19 -100 23 -19 4 -46 14 -60 21
-14 8 -27 15 -30 15 -22 3 -119 58 -124 70 -4 11 -13 14 -25 10 -12 -3 -23 0
-28 8 -4 8 -25 22 -45 32 -21 9 -36 21 -33 25 3 5 -5 12 -17 16 -12 4 -36 21
-54 38 -45 45 -95 86 -104 86 -5 0 -12 9 -15 20 -3 11 -11 20 -16 20 -5 0 -9
6 -9 14 0 8 -7 16 -15 20 -8 3 -14 9 -13 13 2 4 0 8 -3 8 -12 0 -39 34 -39 50
0 9 -4 14 -9 11 -4 -3 -17 11 -27 32 -10 20 -21 39 -24 42 -13 11 -50 82 -50
94 0 7 -9 23 -20 36 -11 13 -20 32 -20 42 0 11 -4 17 -9 14 -5 -3 -12 11 -16
32 -3 20 -13 47 -21 60 -8 12 -12 26 -9 31 2 5 -4 44 -14 86 -11 42 -17 83
-14 91 3 8 1 14 -4 14 -6 0 -10 62 -10 150 -1 118 2 152 14 161 9 8 10 14 3
19 -7 4 -7 21 0 56 6 27 13 65 16 84 3 19 10 44 14 55 5 11 16 43 25 70 19 59
64 153 76 161 5 3 9 12 9 20 0 9 13 34 29 57 15 23 31 52 35 65 4 12 11 20 16
17 4 -3 15 11 24 30 18 37 29 47 20 18 -2 -10 3 -3 12 15 10 17 21 32 26 32 4
0 8 4 8 9 0 11 77 88 121 122 17 13 43 34 57 46 41 36 51 43 57 43 7 0 68 42
76 53 3 4 15 9 27 10 11 0 19 4 16 8 -2 4 6 10 18 14 13 3 32 10 43 15 46 22
81 33 93 31 6 -1 12 2 12 8 0 5 25 15 55 22 30 7 55 16 55 21 0 4 15 8 33 8
17 -1 73 6 122 14 95 15 252 13 360 -5z"/>
<path d="M960 2283 c-41 -12 -79 -22 -83 -23 -5 0 -5 -4 -2 -10 3 -5 -3 -10
-14 -10 -13 0 -30 -14 -43 -35 -13 -19 -28 -35 -35 -35 -11 0 -59 -94 -70
-135 -2 -11 -7 -99 -9 -195 -6 -214 -6 -154 1 -540 6 -282 9 -330 24 -360 10
-19 16 -41 13 -49 -3 -8 0 -11 7 -7 6 4 11 1 11 -8 0 -47 168 -166 235 -166
16 0 37 -4 45 -10 9 -5 19 -5 27 2 8 6 22 7 40 1 16 -5 46 -6 68 -2 22 4 44 4
49 1 11 -6 743 -5 773 2 64 14 143 50 148 67 4 11 11 19 16 19 6 0 7 -6 4 -12
-4 -7 2 -4 12 8 10 11 29 31 43 44 14 13 19 20 13 16 -7 -4 -13 -3 -13 3 0 6
9 15 19 21 12 6 26 33 36 67 24 82 31 1006 9 1087 -8 28 -16 59 -19 69 -8 34
-41 82 -62 92 -12 5 -24 17 -26 26 -6 22 -71 55 -147 75 -50 13 -144 16 -528
17 -455 2 -468 1 -542 -20z m1094 -33 c64 -24 137 -86 170 -143 44 -76 47
-129 44 -647 l-3 -485 -28 -57 c-35 -72 -110 -140 -184 -168 -54 -20 -69 -21
-572 -18 l-516 3 -45 24 c-58 30 -137 112 -164 170 -21 45 -21 57 -21 571 l0
525 28 57 c34 70 110 140 180 167 49 19 77 20 554 20 481 1 505 0 557 -19z"/>
<path d="M996 2125 c-50 -18 -104 -70 -117 -115 -6 -22 -9 -212 -7 -532 l3
-496 31 -39 c66 -81 40 -78 571 -81 318 -2 486 1 513 8 49 13 108 63 126 107
20 47 20 999 0 1046 -17 43 -76 93 -123 106 -61 17 -948 14 -997 -4z m984 -26
c72 -24 102 -61 114 -137 9 -57 8 -885 -1 -907 -4 -13 -3 -16 5 -11 7 4 12 1
12 -9 0 -9 -4 -13 -10 -10 -6 4 -10 -6 -10 -21 0 -29 -44 -84 -67 -84 -7 0
-13 -4 -13 -8 0 -13 -21 -14 -502 -18 -342 -3 -474 -1 -495 8 -15 6 -30 12
-33 12 -14 2 -59 44 -53 50 3 3 1 6 -6 6 -7 0 -9 5 -5 11 3 6 0 15 -7 20 -12
7 -14 90 -12 489 0 265 4 484 7 487 3 4 6 15 6 25 0 28 31 58 85 84 l50 23
460 -2 c253 -2 467 -5 475 -8z"/>
<path d="M1896 2039 c4 -7 1 -10 -7 -7 -8 3 -24 -5 -35 -18 -12 -12 -25 -20
-28 -16 -4 3 -4 -2 0 -12 5 -14 4 -17 -5 -12 -10 6 -12 -5 -10 -45 2 -53 22
-111 37 -107 4 1 17 -3 30 -10 24 -14 102 -13 102 0 0 4 7 8 15 8 8 0 15 5 15
11 0 5 5 7 10 4 6 -4 10 -3 9 2 -1 4 3 21 9 36 7 16 12 39 12 53 0 34 -46 103
-73 108 -70 14 -88 15 -81 5z m74 -34 c35 -18 50 -43 50 -85 0 -44 -16 -69
-56 -86 -47 -20 -97 1 -121 50 -16 34 -16 38 0 72 11 21 30 41 50 49 41 18 42
18 77 0z"/>
<path d="M1425 1922 c-11 -5 -30 -8 -42 -7 -13 1 -23 -1 -23 -4 0 -3 -21 -15
-47 -25 -26 -11 -58 -31 -70 -44 -13 -14 -23 -21 -23 -16 0 4 -14 -11 -31 -34
-28 -38 -51 -59 -33 -30 4 7 3 8 -4 4 -7 -4 -12 -13 -12 -19 0 -22 -37 -87
-45 -79 -4 4 -4 -4 0 -17 4 -15 3 -21 -3 -17 -11 6 -25 -147 -18 -199 8 -57
19 -95 27 -95 5 0 9 -7 9 -16 0 -25 31 -73 81 -125 26 -26 44 -50 41 -53 -3
-3 1 -6 9 -6 8 0 31 -9 51 -19 19 -11 38 -17 41 -14 3 3 11 2 17 -2 9 -6 9 -9
0 -15 -14 -9 43 -13 174 -13 67 0 101 4 104 11 2 7 9 12 16 12 26 0 136 64
142 82 3 10 10 18 16 18 13 0 47 41 48 58 0 6 4 12 8 12 13 0 53 90 60 134 3
23 5 79 4 125 -2 74 -6 94 -38 162 -20 43 -43 80 -51 84 -9 3 -13 12 -9 21 3
9 2 12 -4 9 -6 -4 -27 8 -47 26 -20 17 -54 39 -75 49 -21 9 -35 20 -31 24 4 4
0 4 -10 0 -9 -3 -17 -2 -17 3 0 5 -8 9 -17 10 -10 0 -54 4 -98 7 -44 3 -89 2
-100 -2z m242 -58 c180 -88 272 -288 217 -475 -87 -298 -467 -389 -675 -161
-71 78 -101 146 -107 244 -7 124 24 213 106 300 89 95 177 130 314 124 71 -3
99 -9 145 -32z"/>
<path d="M1437 1760 c-57 -15 -90 -34 -130 -79 -152 -168 -54 -416 175 -447
54 -7 145 25 194 69 105 91 118 261 28 365 -64 76 -176 114 -267 92z m128 -34
c11 -2 26 -5 32 -5 23 -2 100 -87 128 -140 40 -77 -10 -227 -89 -268 -16 -9
-36 -22 -44 -29 -25 -26 -155 -21 -194 7 -15 10 -30 19 -33 19 -13 0 -56 52
-58 69 0 10 -6 17 -13 14 -8 -3 -14 10 -18 34 -14 96 -5 189 18 180 6 -3 12 7
13 21 0 15 6 28 11 30 6 2 26 16 44 32 49 44 118 56 203 36z"/>
</g>
</svg>
