<?xml version="1.0" standalone="no"?>
<!DOCTYPE svg PUBLIC "-//W3C//DTD SVG 20010904//EN"
 "http://www.w3.org/TR/2001/REC-SVG-20010904/DTD/svg10.dtd">
<svg version="1.0" xmlns="http://www.w3.org/2000/svg"
 width="225.000000pt" height="225.000000pt" viewBox="0 0 225.000000 225.000000"
 preserveAspectRatio="xMidYMid meet">
<metadata>
Created by potrace 1.10, written by Peter Selinger 2001-2011
</metadata>
<g transform="translate(0.000000,225.000000) scale(0.100000,-0.100000)"
fill="#000000" stroke="none">
<path d="M1015 1933 c-274 -38 -524 -228 -635 -482 -148 -341 -48 -732 247
-967 296 -234 713 -228 1014 15 320 258 391 730 161 1075 -170 257 -486 400
-787 359z m227 -34 c15 -1 29 -8 32 -15 4 -11 12 -11 33 -3 23 8 38 5 99 -25
39 -20 79 -36 88 -36 10 0 14 -5 10 -11 -4 -8 0 -9 15 -4 16 5 20 3 15 -9 -4
-11 -2 -15 7 -11 17 5 70 -39 67 -56 -2 -6 3 -14 10 -16 6 -3 12 0 12 7 0 6
-5 8 -12 4 -7 -5 -8 -3 -3 6 6 10 11 9 22 -5 7 -11 13 -22 13 -26 0 -4 9 -11
21 -14 13 -4 18 -12 15 -21 -3 -9 -1 -12 4 -9 6 3 10 -1 10 -9 0 -19 16 -21
24 -3 4 6 4 2 2 -11 -4 -20 -2 -21 12 -10 10 8 13 9 9 1 -8 -12 28 -73 63
-108 11 -12 20 -30 20 -42 0 -12 5 -25 11 -28 6 -4 8 -14 5 -22 -4 -9 -2 -11
6 -7 8 5 9 2 5 -9 -20 -49 -20 -53 -3 -32 13 16 15 17 10 3 -4 -11 -1 -18 6
-18 8 0 10 -9 6 -27 -5 -21 -4 -24 4 -13 9 13 10 13 11 0 0 -8 2 -26 4 -40 13
-91 16 -211 5 -260 -6 -30 -13 -68 -15 -85 -2 -16 -8 -31 -14 -33 -6 -2 -11
-8 -11 -13 0 -6 5 -7 11 -3 8 4 8 0 0 -15 -7 -12 -9 -27 -5 -34 4 -6 4 -9 -1
-5 -4 4 -20 -19 -35 -51 -15 -32 -35 -61 -44 -64 -9 -4 -16 -12 -16 -19 0 -9
3 -8 10 2 11 17 13 10 4 -14 -3 -9 -10 -14 -14 -11 -5 3 -11 -4 -15 -14 -4
-14 -11 -18 -23 -14 -15 6 -15 5 -3 -10 12 -15 12 -17 -2 -12 -10 4 -17 -1
-21 -13 -8 -25 -52 -73 -60 -65 -3 4 -6 0 -6 -8 0 -8 -13 -23 -30 -32 -16 -10
-30 -23 -30 -29 0 -5 -7 -7 -16 -4 -8 3 -13 2 -10 -3 7 -11 -139 -81 -184 -88
-19 -3 -48 -13 -65 -22 -43 -22 -313 -23 -340 -1 -11 8 -16 10 -12 3 5 -8 -9
-7 -50 3 -32 7 -62 14 -68 14 -5 0 -4 4 4 9 11 7 4 11 -25 16 -43 8 -94 34
-94 48 0 5 -7 7 -15 3 -9 -3 -15 0 -15 8 0 10 -7 12 -22 8 -14 -3 -19 -2 -14
6 4 7 3 12 -2 12 -5 0 -12 9 -15 20 -3 11 -12 20 -21 20 -9 0 -16 5 -16 10 0
6 -6 10 -13 10 -7 0 -23 11 -35 24 -18 21 -19 26 -6 37 8 6 14 16 14 22 0 6
-6 3 -13 -8 -16 -21 -41 -11 -32 14 5 12 3 13 -6 4 -9 -9 -16 -5 -28 20 -15
29 -25 48 -52 97 -69 126 -83 187 -83 360 0 125 3 161 16 188 9 18 14 40 11
49 -5 11 -3 14 6 9 9 -6 12 -2 9 11 -2 11 2 31 9 44 6 13 17 39 25 57 7 17 19
32 26 32 8 0 12 5 10 12 -4 12 4 25 60 89 20 23 31 43 26 50 -4 7 -3 9 3 6 6
-4 17 0 24 9 7 8 25 22 41 30 15 8 28 19 28 25 0 6 -5 7 -12 3 -7 -4 -8 -3 -4
5 4 6 11 9 16 6 4 -3 13 2 20 10 7 8 17 15 23 15 5 0 20 11 33 25 15 16 29 23
40 18 12 -5 15 -3 9 6 -6 10 -3 11 14 2 16 -9 20 -9 15 2 -3 9 13 19 53 32 32
9 68 21 81 26 13 5 22 5 22 -1 0 -5 7 -7 16 -3 13 5 13 8 2 15 -9 7 -7 8 7 4
11 -2 38 -1 60 4 22 5 72 7 110 4 39 -2 82 -5 97 -5z"/>
<path d="M976 1643 c-1 -1 -39 -7 -85 -12 -47 -6 -95 -18 -107 -26 -13 -8 -30
-15 -38 -15 -28 0 -107 -106 -127 -172 -18 -56 -20 -89 -18 -302 2 -250 10
-311 50 -368 11 -14 19 -33 19 -40 0 -8 11 -20 25 -26 14 -6 25 -16 25 -21 0
-6 7 -8 15 -5 8 4 15 1 15 -5 0 -7 13 -17 30 -22 16 -6 27 -15 24 -21 -4 -6 8
-7 30 -3 20 4 42 3 49 -2 7 -6 107 -10 234 -11 123 0 233 -3 245 -7 18 -5 20
-4 8 4 -12 8 -7 11 23 11 20 0 37 4 37 9 0 5 14 11 30 15 49 9 136 99 160 164
12 31 19 64 17 74 -3 10 1 42 9 71 15 58 18 113 6 121 -4 2 -7 69 -5 148 4
168 -6 223 -49 286 -18 26 -31 54 -30 62 2 11 1 12 -6 2 -6 -9 -17 -5 -42 18
-18 16 -40 30 -47 30 -7 0 -13 4 -13 9 0 10 -49 20 -127 27 -52 4 -353 10
-357 7z m486 -66 c33 -16 70 -45 88 -67 57 -72 63 -103 68 -355 5 -306 -8
-377 -89 -455 -65 -63 -107 -72 -345 -78 -221 -5 -351 6 -404 33 -73 38 -124
114 -141 208 -17 102 -7 509 14 565 21 56 61 107 104 133 69 43 113 48 388 46
l260 -2 57 -28z"/>
<path d="M890 1514 c-75 -14 -112 -40 -143 -99 -18 -35 -21 -63 -25 -236 -5
-228 7 -344 40 -389 12 -17 42 -40 67 -53 44 -21 57 -22 296 -22 248 0 251 0
300 25 40 20 55 36 75 75 25 49 25 53 25 305 0 254 0 255 -25 300 -17 29 -41
53 -70 70 -44 24 -49 25 -280 27 -129 1 -246 -1 -260 -3z m428 -30 c52 -5 53
-6 35 -24 -10 -9 -21 -16 -25 -13 -5 2 -8 -5 -8 -16 0 -12 -5 -21 -11 -21 -6
0 -9 -6 -6 -12 2 -7 0 -24 -5 -37 -7 -20 -6 -22 9 -17 14 6 15 4 6 -5 -9 -9
-20 -5 -46 15 -24 18 -58 31 -101 38 -57 9 -75 8 -128 -8 -33 -10 -70 -27 -81
-39 -11 -11 -16 -14 -12 -6 5 10 4 12 -4 7 -6 -4 -9 -12 -5 -17 3 -6 -3 -13
-15 -16 -12 -3 -21 -12 -21 -20 0 -8 -5 -11 -11 -8 -6 4 -9 1 -8 -6 2 -8 -5
-28 -14 -46 -9 -17 -20 -62 -23 -100 -5 -58 -3 -76 15 -115 11 -26 36 -61 54
-79 17 -17 26 -28 20 -25 -7 4 -13 3 -13 -2 0 -13 29 -24 42 -15 6 3 8 1 5 -4
-4 -6 3 -13 14 -16 13 -4 18 -10 13 -18 -5 -9 -1 -11 14 -7 12 4 20 3 17 -2
-3 -4 10 -10 28 -13 43 -6 156 4 163 14 3 5 11 9 17 9 7 0 6 -4 -3 -10 -9 -6
-10 -10 -3 -10 7 0 29 16 50 36 21 19 48 43 61 51 13 9 21 22 18 29 -3 8 0 13
7 11 7 -1 11 6 11 16 -1 10 1 16 4 13 8 -9 32 15 32 32 0 13 -3 12 -15 -4 -18
-24 -19 -7 0 26 8 14 14 40 15 58 0 18 3 31 8 29 4 -3 8 9 8 25 l1 31 -13 -24
c-8 -15 -13 -18 -14 -9 -1 31 -21 90 -37 105 -19 20 -14 25 26 28 17 1 31 6
31 11 0 5 3 6 6 3 8 -7 44 36 44 51 0 6 4 13 9 16 5 4 7 -3 4 -14 -3 -11 1
-28 8 -37 11 -13 11 -17 1 -21 -9 -3 -10 -7 -2 -17 7 -9 10 -81 7 -217 -3
-192 -4 -206 -27 -246 -14 -25 -31 -42 -42 -42 -10 0 -18 -4 -18 -9 0 -16
-124 -29 -285 -30 -186 -1 -281 10 -299 35 -7 9 -18 14 -24 10 -6 -4 -19 17
-32 51 -21 55 -22 72 -18 286 3 215 4 230 23 244 16 13 17 15 2 10 -15 -6 -16
-4 -5 16 12 22 14 28 17 47 0 5 4 9 9 9 4 -1 16 -1 27 0 15 1 17 3 7 10 -17
10 11 19 81 27 38 4 47 2 41 -8 -6 -10 -5 -10 7 -2 8 7 28 11 45 9 18 -1 38 1
45 6 13 8 158 4 267 -7z m112 -64 c11 -11 20 -29 20 -40 0 -26 -34 -60 -62
-60 -50 0 -76 63 -41 102 21 24 58 23 83 -2z m-195 -78 c93 -47 139 -123 139
-227 0 -83 -21 -132 -82 -187 -126 -113 -316 -74 -398 82 -25 47 -25 161 -1
211 26 52 74 98 132 126 61 29 148 27 210 -5z"/>
<path d="M1050 1257 c-49 -26 -90 -90 -90 -139 0 -96 101 -180 196 -162 50 9
111 66 125 116 20 76 -15 154 -85 187 -55 27 -93 26 -146 -2z m128 -29 c-9 -5
-6 -8 10 -8 13 0 21 -4 18 -9 -3 -5 2 -8 11 -7 9 0 18 -5 21 -13 3 -10 0 -11
-9 -5 -12 6 -11 5 0 -10 11 -13 16 -14 22 -5 4 7 6 -10 5 -37 -2 -28 -7 -57
-12 -65 -5 -8 -9 -18 -9 -24 -1 -5 -7 -9 -14 -7 -7 1 -10 -2 -6 -8 8 -12 -76
-52 -97 -46 -7 2 -25 7 -39 10 -36 8 -81 75 -83 123 -1 25 3 37 11 36 7 -2 10
3 7 10 -8 21 33 65 66 72 16 4 32 10 35 15 3 4 21 3 40 -3 24 -7 31 -13 23
-19z"/>
</g>
</svg>
