<?xml version="1.0" encoding="UTF-8"?>
<svg version="1.1" xmlns="http://www.w3.org/2000/svg" width="512" height="512">
<path d="M0 0 C1.13308594 -0.06058594 2.26617187 -0.12117188 3.43359375 -0.18359375 C15.68266401 0.84417192 27.65896434 11.67852001 37.41113281 18.36621094 C42.23596838 21.67405314 47.07726453 24.9576301 51.91796875 28.2421875 C52.86199554 28.88339539 53.80602234 29.52460327 54.77865601 30.1852417 C61.46923551 34.72103484 68.21727507 39.1378488 75.0625 43.4375 C87.5481518 51.29618733 99.72207498 59.60944939 111.93457031 67.88330078 C122.23516699 74.85902132 132.53390994 81.80893696 143.0625 88.4375 C155.54113794 96.29376924 167.71028379 104.600818 179.91644287 112.87121582 C190.59569177 120.10421724 201.28641285 127.29226093 212.1875 134.1875 C220.0316152 139.16399604 227.85402215 144.16964739 235.58050537 149.32727051 C237.18828862 150.39646136 238.80516686 151.451937 240.42236328 152.50683594 C247.57430014 157.31563288 254.25006814 162.75549535 256.5625 171.4375 C257.55968158 180.62206716 257.24035103 188.8002898 251.5625 196.4375 C246.88423021 201.6602715 241.56530271 205.01751681 234.546875 205.75390625 C229.01069488 205.95346623 224.90639212 205.73338929 219.84521484 203.40649414 C219.04127289 203.03972061 218.23733093 202.67294708 217.4090271 202.2950592 C216.79967316 202.01206467 216.19031921 201.72907013 215.5625 201.4375 C215.56190291 202.047334 215.56130582 202.65716799 215.56069064 203.28548181 C215.52478272 239.44361132 215.46812228 275.60165313 215.38457905 311.75970509 C215.37456181 316.10298665 215.36471764 320.44626858 215.35498047 324.78955078 C215.35206841 326.08653355 215.35206841 326.08653355 215.34909752 327.40971799 C215.3180916 341.40298829 215.3011008 355.39624219 215.28930578 369.38954036 C215.27688692 383.75209298 215.24936894 398.11455968 215.20788693 412.47705805 C215.18277255 421.33674524 215.16938122 430.1962899 215.17107043 439.05601318 C215.17110022 445.13465119 215.15643983 451.2131442 215.13033572 457.29172568 C215.11571397 460.79676641 215.1074658 464.30150982 215.11669731 467.80657578 C215.1233345 471.61317861 215.10542077 475.41891747 215.08148193 479.22543335 C215.09312256 480.87430324 215.09312256 480.87430324 215.10499835 482.55648363 C215.01065265 491.04604833 213.02302797 497.6019711 208.4375 504.75 C199.88139954 512.74809391 190.7968292 513.15985611 179.62133789 513.07241821 C178.01115318 513.07818617 176.40097506 513.08613181 174.79081059 513.09605443 C170.38591562 513.11685857 165.98156476 513.10664207 161.57666826 513.09112334 C156.81856192 513.07978731 152.06054763 513.09728371 147.30245972 513.11102295 C137.98918486 513.13323585 128.67611167 513.12846283 119.36282897 513.11395974 C111.79257921 513.10265985 104.2223859 513.10113986 96.65213013 513.10657883 C95.03490699 513.10772807 95.03490699 513.10772807 93.38501269 513.10890054 C91.19465532 513.11049919 89.00429798 513.11212026 86.81394064 513.1137635 C66.28330629 513.1280153 45.75278364 513.11163718 25.22216761 513.08476166 C7.61257404 513.06242342 -9.99685472 513.06630371 -27.60644531 513.08935547 C-48.06447977 513.11612349 -68.52241637 513.12664205 -88.98046589 513.11129415 C-91.16268729 513.10970143 -93.3449087 513.10812958 -95.52713013 513.10657883 C-96.60077613 513.10580745 -97.67442214 513.10503607 -98.78060287 513.10424132 C-106.34023989 513.09992734 -113.89981475 513.10720438 -121.45944214 513.11897659 C-130.67431943 513.13301124 -139.88898382 513.12918127 -149.10383677 513.10257287 C-153.80388272 513.08944775 -158.50357391 513.08426008 -163.2036171 513.10081863 C-167.50930666 513.11575824 -171.81431385 513.10746427 -176.11994183 513.08093087 C-177.67431248 513.07536285 -179.22874121 513.07814859 -180.78307426 513.09030981 C-189.52767498 513.15346005 -197.14302528 512.80307579 -204.4375 507.4375 C-212.40757157 499.21670467 -213.88475008 490.52735635 -213.83622742 479.46594238 C-213.84287424 478.2748768 -213.84952107 477.08381122 -213.85636932 475.85665274 C-213.87174464 472.56817705 -213.87384624 469.28000758 -213.87023985 465.99150801 C-213.86961432 462.43874973 -213.88625177 458.88606639 -213.90075684 455.33334351 C-213.92351808 449.18383728 -213.93542367 443.03438761 -213.93988609 436.88484192 C-213.94635375 427.99372606 -213.96930194 419.10271233 -213.99622939 410.21163768 C-214.03947524 395.78531189 -214.06945456 381.35899041 -214.09106445 366.93261719 C-214.11208074 352.92152796 -214.13936152 338.91047394 -214.17504883 324.89941406 C-214.17724765 324.03528713 -214.17944648 323.1711602 -214.18171193 322.28084761 C-214.19278175 317.94563175 -214.20397453 313.61041623 -214.21522844 309.27520084 C-214.30838236 273.32933096 -214.37999478 237.38344371 -214.4375 201.4375 C-215.04807755 201.7196788 -215.65865509 202.0018576 -216.28773499 202.29258728 C-217.09262863 202.65872635 -217.89752228 203.02486542 -218.72680664 203.40209961 C-219.52300919 203.76677841 -220.31921173 204.13145721 -221.13954163 204.50718689 C-226.91170558 206.84400894 -233.41664055 206.37529428 -239.28125 204.5546875 C-246.34370735 201.34254575 -250.27586861 196.89611022 -254.3125 190.4375 C-257.1092184 182.97396836 -256.72561626 173.24600391 -253.5625 166 C-248.788234 157.9813433 -240.58713995 153.48538091 -232.92578125 148.5703125 C-222.52759039 141.86952594 -212.20076358 135.0616631 -201.875 128.25 C-200.89974365 127.60699951 -199.9244873 126.96399902 -198.91967773 126.30151367 C-187.53799956 118.79722304 -176.1667935 111.27860507 -164.83642578 103.69702148 C-152.50143244 95.45588531 -140.09787344 87.31788459 -127.70507812 79.1640625 C-118.76558752 73.2803847 -109.83761137 67.38061277 -100.9375 61.4375 C-90.19737111 54.26570242 -79.41371664 47.160914 -68.625 40.0625 C-56.5581593 32.12046367 -44.50069437 24.16669221 -32.5 16.125 C-8.89045416 0.32707356 -8.89045416 0.32707356 0 0 Z M-11.5625 24.125 C-13.60767167 25.49539068 -15.65328619 26.86512055 -17.69921875 28.234375 C-18.898935 29.04360612 -20.09864147 29.85285175 -21.29833984 30.66210938 C-26.14079924 33.9189425 -31.01767471 37.12312272 -35.89453125 40.328125 C-36.82207214 40.93779617 -37.74961304 41.54746735 -38.70526123 42.1756134 C-40.62125506 43.43494933 -42.53727098 44.69425167 -44.45330811 45.95352173 C-57.67837331 54.65111078 -70.88470013 63.37623157 -84.04003906 72.17895508 C-96.37453995 80.41977169 -108.77761696 88.55743807 -121.16992188 96.7109375 C-130.10941248 102.5946153 -139.03738863 108.49438723 -147.9375 114.4375 C-157.75137749 120.99078661 -167.60050162 127.48955535 -177.45880127 133.97576904 C-190.50944799 142.56366592 -203.55959832 151.1524163 -216.5625 159.8125 C-217.45300049 160.40466309 -218.34350098 160.99682617 -219.26098633 161.60693359 C-221.65958758 163.20787738 -224.0510147 164.81855731 -226.4375 166.4375 C-227.35885742 167.06172852 -228.28021484 167.68595703 -229.22949219 168.32910156 C-230.14118164 168.95526367 -231.05287109 169.58142578 -231.9921875 170.2265625 C-233.23331299 171.07661865 -233.23331299 171.07661865 -234.49951172 171.94384766 C-236.55030732 173.30025607 -236.55030732 173.30025607 -237.4375 175.4375 C-237.93049302 179.79227171 -237.89032859 181.77884023 -235.375 185.4375 C-232.58011653 187.76485393 -232.58011653 187.76485393 -229.1784668 187.31933594 C-225.0518724 186.34659829 -222.08257303 184.69413627 -218.64453125 182.328125 C-217.99697372 181.89773422 -217.3494162 181.46734344 -216.68223572 181.02391052 C-214.53022934 179.5899211 -212.390432 178.13869684 -210.25 176.6875 C-208.72582427 175.66769619 -207.20073665 174.64925415 -205.67480469 173.63208008 C-202.37236865 171.42925055 -199.07404703 169.22042685 -195.77783203 167.00830078 C-190.1615959 163.24559588 -184.51887852 159.5237245 -178.87109375 155.80859375 C-177.8989241 155.16908783 -176.92675446 154.52958191 -175.92512512 153.87069702 C-173.97250231 152.5865531 -172.01978985 151.30254549 -170.06698608 150.01867676 C-159.69970128 143.20069407 -149.33286067 136.38184387 -139.015625 129.48828125 C-128.22845964 122.28100063 -117.380103 115.16600055 -106.54394531 108.03271484 C-97.06143091 101.78981837 -87.5806219 95.54533373 -78.14134216 89.23721313 C-72.83854403 85.69698526 -67.51637794 82.18645424 -62.19140625 78.6796875 C-61.29023575 78.08615479 -60.38906525 77.49262207 -59.46058655 76.88110352 C-54.67998253 73.73334433 -49.8977956 70.58800626 -45.11450195 67.44433594 C-32.74464596 59.30993866 -32.74464596 59.30993866 -20.4765625 51.0234375 C-19.36256114 50.26446761 -18.24854812 49.50551483 -17.13452148 48.74658203 C-15.19939815 47.42259159 -13.27118018 46.08842051 -11.35180664 44.74169922 C-2.98244734 39.02631525 -2.98244734 39.02631525 2.5625 39.4375 C12.89663605 43.31030867 22.29259707 51.19244456 31.33569336 57.36621094 C36.17668846 60.67007302 41.0291444 63.9569813 45.8828125 67.2421875 C46.82993103 67.88339539 47.77704956 68.52460327 48.75286865 69.1852417 C55.45607204 73.713731 62.21338081 78.13216504 69.0625 82.4375 C82.64147409 90.98146523 95.87565318 100.04193935 109.140625 109.0625 C116.86188702 114.30493449 124.57887834 119.52079582 132.52734375 124.4140625 C143.54288965 131.19582073 154.1692076 138.56840956 164.86279297 145.84228516 C174.47037696 152.37234794 184.08101129 158.85096546 193.97264099 164.94444275 C198.31898135 167.63061953 202.5711879 170.42731565 206.78515625 173.31640625 C207.64160233 173.9011824 207.64160233 173.9011824 208.51535034 174.49777222 C210.80802091 176.06476541 213.0990381 177.63360698 215.37768555 179.22094727 C217.08906658 180.41040594 218.81089201 181.58323045 220.53515625 182.75390625 C221.52781494 183.43912354 222.52047363 184.12434082 223.54321289 184.83032227 C226.99728478 186.66893755 229.66261238 187.26676295 233.5625 187.4375 C236.66600449 185.58408666 236.66600449 185.58408666 238.5625 182.4375 C239.39583333 178.9375 239.39583333 178.9375 238.5625 175.4375 C235.19699444 171.58790961 231.37162939 168.76591657 227.1015625 166.015625 C226.1378624 165.3839743 226.1378624 165.3839743 225.1546936 164.73956299 C223.73131613 163.80688216 222.30633933 162.87663879 220.88000488 161.94848633 C217.55129186 159.77820401 214.23656086 157.58690134 210.92034912 155.39758301 C205.32444303 151.70429255 199.7224884 148.020174 194.12158203 144.33447266 C183.20003611 137.14659361 172.29530503 129.93507583 161.42204285 122.67434692 C152.48969124 116.71359388 143.52149391 110.80770173 134.55053711 104.90527344 C109.15486495 88.19473962 109.15486495 88.19473962 97.5625 80.4375 C85.29742834 72.23017549 72.96375011 64.12705032 60.63763428 56.01184082 C49.63407002 48.76691865 38.63988604 41.50959062 27.6875 34.1875 C25.88033174 32.98418964 24.07304887 31.78105139 22.265625 30.578125 C19.24238763 28.56507349 16.23361303 26.5329741 13.234375 24.484375 C11.96903981 23.63498477 10.70343984 22.78598879 9.4375 21.9375 C8.42429687 21.2465625 7.41109375 20.555625 6.3671875 19.84375 C-1.00742009 16.14617516 -5.4433297 19.9133957 -11.5625 24.125 Z M-4.9855957 61.54833984 C-5.670103 62.01414459 -6.35461029 62.47994934 -7.05986023 62.95986938 C-7.79936417 63.47584686 -8.5388681 63.99182434 -9.30078125 64.5234375 C-10.92732054 65.63333245 -12.55446356 66.74234301 -14.18212891 67.85058594 C-15.03953674 68.43787476 -15.89694458 69.02516357 -16.78033447 69.63024902 C-21.25128011 72.67112878 -25.77344628 75.63357886 -30.29296875 78.6015625 C-32.17132933 79.83838165 -34.04958364 81.07536222 -35.92773438 82.3125 C-37.82678881 83.56255181 -39.7258775 84.81255159 -41.625 86.0625 C-56.2979912 95.71196647 -56.2979912 95.71196647 -70.92578125 105.4296875 C-81.69026928 112.62345728 -92.51691717 119.723495 -103.33105469 126.84228516 C-112.79815953 133.07503662 -122.26390569 139.3089304 -131.68833923 145.60606384 C-139.9689296 151.13451485 -148.2856042 156.6085239 -156.59887695 162.08764648 C-159.49943102 163.99962494 -162.39914383 165.91287466 -165.29882812 167.82617188 C-167.19005296 169.07299434 -169.08132734 170.31974166 -170.97265625 171.56640625 C-171.81578873 172.12292374 -172.6589212 172.67944122 -173.52760315 173.25282288 C-174.35904343 173.80046799 -175.1904837 174.3481131 -176.04711914 174.91235352 C-176.83928361 175.46770657 -177.63144808 176.02305962 -178.44761753 176.59524155 C-181.4375 178.4375 -181.4375 178.4375 -184.9688549 179.74597454 C-189.30135938 181.49497475 -192.77202754 183.50797832 -195.4375 187.4375 C-198.03495251 195.86115507 -197.27220154 205.13290115 -197.10639584 213.85623527 C-197.05189828 217.53316999 -197.07867992 221.20964911 -197.09526062 224.88682556 C-197.11508717 232.08119333 -197.06091519 239.27318353 -196.98220844 246.46707311 C-196.89370137 254.8454176 -196.8820972 263.22334227 -196.87442081 271.60208634 C-196.85842707 286.54953487 -196.77778858 301.49591905 -196.65844727 316.44287109 C-196.5427446 330.94647972 -196.46488156 345.44957167 -196.43286133 359.95361328 C-196.43087941 360.84750742 -196.42889749 361.74140156 -196.42685551 362.66238341 C-196.41897811 366.25546788 -196.41119139 369.84855254 -196.40356684 373.44163756 C-196.37148342 388.10190134 -196.31071221 402.76206603 -196.24477077 417.42221165 C-196.22977346 420.763557 -196.21581554 424.10490424 -196.20272374 427.44625759 C-196.16775625 436.22522276 -196.12329744 445.00397174 -196.05118889 453.78271905 C-196.0214285 457.41268732 -195.99612358 461.04252572 -195.98353195 464.67259789 C-195.96959704 468.6051524 -195.93234148 472.53728363 -195.89247131 476.46966553 C-195.89166016 477.62013768 -195.89084901 478.77060983 -195.89001328 479.95594478 C-195.86810288 481.53530531 -195.86810288 481.53530531 -195.84574986 483.14657211 C-195.83607507 484.50795606 -195.83607507 484.50795606 -195.82620484 485.89684272 C-195.3519516 488.99666251 -194.25449969 490.90217621 -192.4375 493.4375 C-189.64609489 494.83320256 -187.36152274 494.56689265 -184.23674202 494.57172108 C-183.59067397 494.57407331 -182.94460592 494.57642554 -182.27896005 494.57884905 C-180.09319352 494.58555704 -177.90748619 494.58508029 -175.72171021 494.58467102 C-174.1471602 494.58796852 -172.57261104 494.59169384 -170.99806297 494.5958125 C-166.65490165 494.60585341 -162.31175415 494.60955264 -157.96858287 494.61220181 C-153.29091854 494.6160986 -148.61326523 494.62567727 -143.93560791 494.63441467 C-132.63191538 494.65419543 -121.32822192 494.66424674 -110.0245164 494.67314246 C-104.70633467 494.67752219 -99.38815393 494.68288977 -94.06997299 494.68813133 C-76.40019754 494.70514422 -58.73042272 494.71964 -41.06064034 494.72688007 C-36.47320683 494.72879008 -31.88577333 494.7307104 -27.29833984 494.73266602 C-26.15810525 494.73314976 -25.01787065 494.7336335 -23.84308349 494.7341319 C-5.35808282 494.7424382 13.12685325 494.76778496 31.61182569 494.80024669 C50.57351771 494.83327522 69.53517686 494.85132497 88.49689782 494.85452431 C99.14992853 494.85669318 109.80286502 494.86549678 120.45586777 494.89098549 C129.52540362 494.912635 138.59482237 494.92077132 147.66438113 494.91101871 C152.29474139 494.90645742 156.92485976 494.90846576 161.55518723 494.92778015 C165.79045684 494.94529471 170.02530601 494.94451034 174.26057936 494.92888286 C175.79625186 494.92648886 177.3319526 494.93092223 178.86758171 494.94271151 C180.94892546 494.95770607 183.02875525 494.94824726 185.11005974 494.93248463 C186.26788204 494.93346144 187.42570434 494.93443824 188.61861217 494.93544465 C192.19759301 494.33007703 193.33932473 493.24331425 195.5625 490.4375 C196.79809453 487.96631094 196.71175658 486.29532773 196.74700069 483.52968216 C196.76255912 482.48583178 196.77811754 481.4419814 196.79414743 480.36649919 C196.81228812 478.63279907 196.81228812 478.63279907 196.83079529 476.86407471 C196.8553606 475.03260442 196.8553606 475.03260442 196.88042217 473.16413474 C196.92453873 469.76383242 196.96397942 466.36353788 197.00106466 462.96315551 C197.02528934 460.78893649 197.05136183 458.61474743 197.07806206 456.44055748 C197.42634225 428.04867314 197.62758404 399.65554991 197.78449917 371.26202774 C197.80476533 367.65954619 197.82542956 364.05706716 197.84643555 360.45458984 C197.85424354 359.1115323 197.85424354 359.1115323 197.86220927 357.74134228 C197.94876358 343.25515184 198.11596959 328.77098803 198.31399702 314.28594032 C198.51569621 299.40815597 198.63344082 284.53142595 198.67311722 269.65231776 C198.70013866 260.47852493 198.79137702 251.31008538 198.96601576 242.13789585 C199.07954736 235.84141948 199.11093151 229.5477896 199.0790435 223.25038573 C199.06302159 219.61971403 199.08179705 215.99849635 199.1984787 212.36945915 C200.09459505 197.74170137 200.09459505 197.74170137 194.38258266 184.91374445 C189.11582847 180.49445356 183.33111918 177.42167999 177.08581257 174.61093354 C173.91595742 173.13683382 171.21638444 171.36734952 168.37158203 169.34472656 C167.56399445 168.79745911 166.75640686 168.25019165 165.92434692 167.68634033 C165.14751556 167.15562927 164.3706842 166.62491821 163.5703125 166.078125 C162.68495819 165.4779657 161.79960388 164.8778064 160.88742065 164.25946045 C158.15209707 162.4050888 155.41944292 160.54684781 152.6875 158.6875 C138.2820547 148.84789184 138.2820547 148.84789184 123.5859375 139.453125 C112.57410887 132.67431485 101.9518935 125.30393837 91.26220703 118.03271484 C81.81423133 111.6111343 72.36701603 105.23276465 62.64056396 99.2394104 C53.37466803 93.50557832 44.36459775 87.37554635 35.3125 81.3125 C33.46368877 80.07660283 31.61473106 78.84092476 29.765625 77.60546875 C28.86525513 77.00357727 27.96488525 76.40168579 27.03723145 75.78155518 C25.27241267 74.60228745 23.50704455 73.42384137 21.74108887 72.24627686 C18.05479448 69.78598419 14.37577962 67.31923614 10.73632812 64.79003906 C9.14208008 63.69127441 9.14208008 63.69127441 7.515625 62.5703125 C6.63551758 61.9530127 5.75541016 61.33571289 4.84863281 60.69970703 C1.00375193 58.57689262 -1.5822618 59.19306082 -4.9855957 61.54833984 Z " fill="#000000" transform="translate(255.4375,-0.4375)"/>
<path d="M0 0 C9.59765354 7.4494075 17.94975068 16.82207354 26.5078125 25.41015625 C28.0851379 26.9893502 29.6626868 28.56832093 31.240448 30.14707947 C35.36237423 34.27279648 39.48128667 38.40150927 43.59954834 42.53088379 C47.81452607 46.75615016 52.03238917 50.97853412 56.25 55.20117188 C64.50280367 63.4646521 72.75242178 71.7313046 81 80 C85.26568418 78.05101056 88.14404902 75.0935357 91.38574219 71.77783203 C92.33294632 70.82142822 92.33294632 70.82142822 93.29928589 69.84570312 C94.66879708 68.46189654 96.03605957 67.07586168 97.40132904 65.68787003 C99.56593559 63.48844532 101.73759077 61.29621617 103.91143799 59.10592651 C110.09079634 52.87770318 116.25899658 46.63851905 122.41796875 40.39013672 C126.18764411 36.56674296 129.96712721 32.75327183 133.75272369 28.94564438 C135.19017061 27.49581828 136.62381629 26.04221275 138.05348969 24.58472061 C140.05872739 22.54082771 142.07619315 20.50976147 144.09667969 18.48095703 C144.96983322 17.58151871 144.96983322 17.58151871 145.86062622 16.66390991 C154.02992803 8.53262124 162.24376793 6.69599088 173.50195312 6.68530273 C188.24293688 6.95077868 197.85457679 17.49330756 207.7487793 27.43310547 C209.18744633 28.87494621 210.63900329 30.30287943 212.09179688 31.73046875 C221.84887109 41.4808 228.99877405 50.27915969 229.4375 64.375 C229.00264701 82.63882543 215.89898508 93.39322955 203.75390625 105.44140625 C202.37341698 106.81815877 200.9933735 108.19535841 199.61375427 109.57298279 C196.00642735 113.17272535 192.39313226 116.7664173 188.77850342 120.35882568 C185.08108971 124.03566822 181.38943157 127.71827982 177.69726562 131.40039062 C170.47042279 138.60587539 163.23725328 145.80497269 156 153 C157.33401188 155.96636632 158.78874066 158.03171551 161.09884644 160.31243896 C161.73529083 160.94585205 162.37173523 161.57926514 163.02746582 162.23187256 C163.72464722 162.91557922 164.42182861 163.59928589 165.14013672 164.30371094 C166.24284409 165.39721863 166.24284409 165.39721863 167.36782837 166.51281738 C168.96444684 168.0951317 170.56329285 169.67520077 172.1640892 171.25328827 C174.6995453 173.75396037 177.22784445 176.26166242 179.75418091 178.77154541 C186.93822135 185.90668859 194.13323146 193.03069148 201.33740234 200.14550781 C205.74432011 204.49875488 210.14136245 208.86177803 214.53253555 213.23090363 C216.20565215 214.89162812 217.88255127 216.54855105 219.56332016 218.20153046 C221.91849878 220.51812354 224.26095553 222.84691962 226.60107422 225.17871094 C227.29420715 225.85432068 227.98734009 226.52993042 228.70147705 227.22601318 C234.9452003 233.4951003 238.48600242 239.63988957 239.03125 248.5546875 C238.86545706 261.52798523 229.52292899 269.95266275 220.92578125 278.54296875 C219.83558351 279.64028313 218.74567894 280.73788884 217.65605164 281.83576965 C215.37911284 284.12609364 213.09639535 286.41046621 210.80981445 288.69116211 C207.89918543 291.59589774 205.00722245 294.51846382 202.11982441 297.44626904 C199.87640751 299.71569548 197.6214512 301.97338472 195.36318016 304.22802162 C194.29284811 305.3000322 193.2264308 306.37596794 192.1642704 307.45607567 C185.15844533 314.5671823 178.40132259 320.92867678 168.2421875 322.62890625 C148.35523003 322.23670407 137.13129504 306.27665214 123.9296875 293.02734375 C122.39720267 291.49299023 120.86449423 289.95886002 119.33157349 288.42494202 C115.32801408 284.41759295 111.3274688 280.40724833 107.32757568 276.39624023 C103.23324538 272.29161883 99.13602746 268.18988199 95.0390625 264.08789062 C87.02323688 256.06139044 79.01059731 248.03171791 71 240 C67.50055077 241.49140864 65.31444188 243.47861368 62.68139648 246.20263672 C61.83629013 247.07048798 60.99118378 247.93833923 60.12046814 248.83248901 C59.21317459 249.77206451 58.30588104 250.71164001 57.37109375 251.6796875 C56.41763555 252.65468083 55.46319674 253.62871607 54.50782776 254.60183716 C50.46122501 258.72447951 46.42118854 262.85316775 42.40893555 267.00927734 C39.94937735 269.55575485 37.47242668 272.08419447 34.98390388 274.60235977 C33.59373471 276.01888042 32.22265349 277.45405459 30.85215759 278.88961792 C24.96330975 284.82589387 20.03079712 287.81861912 12 290 C10.90023331 290.33575043 9.80046661 290.67150085 8.66737366 291.01742554 C4.9301226 292.156698 1.18057262 293.24857976 -2.57421875 294.328125 C-3.95181628 294.72594264 -5.32940502 295.12379073 -6.70698547 295.52166748 C-9.57278188 296.34811504 -12.43954554 297.17110996 -15.30688477 297.9921875 C-18.96431927 299.04028996 -22.61771068 300.10182451 -26.27034283 301.16652298 C-29.10544653 301.99041531 -31.94323836 302.80472606 -34.78183937 303.61647797 C-36.12992397 304.00369781 -37.4770191 304.39438129 -38.82303429 304.78873444 C-56.4298115 309.93751615 -56.4298115 309.93751615 -63.25 306.3125 C-67.73741845 303.82634676 -70.36474899 300.90575302 -72 296 C-72.84343813 287.99804647 -70.94236571 280.95094295 -68.67578125 273.3359375 C-68.3325029 272.14505524 -67.98922455 270.95417297 -67.63554382 269.72720337 C-66.54024977 265.93941018 -65.4265243 262.15732139 -64.3125 258.375 C-63.58280377 255.85841494 -62.85427753 253.34149032 -62.12695312 250.82421875 C-58.48485114 238.26715222 -58.48485114 238.26715222 -57.0259552 233.48907471 C-56.29368158 230.9987541 -55.63195156 228.53622375 -55.01737976 226.01824951 C-52.39141982 215.79870076 -47.90123473 209.38368465 -40.23046875 202.15625 C-39.18145027 201.12782182 -38.13488821 200.09688273 -37.09065247 199.06359863 C-34.37397932 196.38834861 -31.62596307 193.74785362 -28.8692627 191.11395264 C-26.04683886 188.40533126 -23.25641682 185.66414077 -20.46289062 182.92578125 C-15.00553818 177.5853767 -9.51455209 172.28138849 -4 167 C-5.31995825 164.07585038 -6.73954085 162.01581866 -9.01618958 159.76348877 C-9.6343605 159.14690399 -10.25253143 158.53031921 -10.88943481 157.89505005 C-11.56634369 157.23004486 -12.24325256 156.56503967 -12.94067383 155.87988281 C-14.01171104 154.81563583 -14.01171104 154.81563583 -15.10438538 153.72988892 C-16.65512793 152.19010223 -18.2081373 150.6525959 -19.7631321 149.11710358 C-22.22710819 146.68329386 -24.68434505 144.24286423 -27.13981628 141.80047607 C-34.12258525 134.8574487 -41.11787481 127.92708549 -48.11645508 121 C-52.39799751 116.76127571 -56.67212406 112.5151845 -60.94202232 108.26473236 C-62.56774072 106.64955479 -64.19636569 105.03729715 -65.82798195 103.4280777 C-68.11594441 101.17146132 -70.3944162 98.90563961 -72.67114258 96.63769531 C-73.34197876 95.98078705 -74.01281494 95.32387878 -74.70397949 94.64706421 C-81.51949999 87.81812572 -86.90407225 80.50634626 -87.03125 70.5546875 C-85.89129355 51.9163995 -66.32942144 38.09069412 -54.05688477 25.76171875 C-52.30436237 23.9975989 -50.55633631 22.22900136 -48.81274414 20.45605469 C-46.25868756 17.85919536 -43.6915099 15.27596823 -41.12109375 12.6953125 C-40.35413681 11.91084747 -39.58717987 11.12638245 -38.79698181 10.31814575 C-27.85962852 -0.57623126 -14.96755925 -7.57932813 0 0 Z M-31.32421875 28.98828125 C-32.31722465 29.97484987 -33.31037597 30.96127215 -34.30366516 31.94755554 C-36.37730863 34.0092698 -38.44682379 36.07502907 -40.51391602 38.14331055 C-43.15325039 40.78284838 -45.80609333 43.408341 -48.4626646 46.03051472 C-50.51567528 48.06121295 -52.55945516 50.10101341 -54.6008091 52.14342308 C-55.57474012 53.11500655 -56.55188707 54.08337809 -57.53238487 55.04833412 C-65.01864619 61.97506146 -65.01864619 61.97506146 -69 71 C-66.22868396 76.95154571 -62.30381194 81.10966184 -57.66113281 85.67944336 C-56.56297997 86.77825333 -56.56297997 86.77825333 -55.44264221 87.89926147 C-53.03651667 90.30330773 -50.61996224 92.69657056 -48.203125 95.08984375 C-46.52666874 96.76070103 -44.85087641 98.43222469 -43.17572021 100.10438538 C-38.77648185 104.49219892 -34.36830726 108.87092622 -29.95819092 113.24780273 C-25.45496127 117.7202808 -20.96026888 122.20132048 -16.46484375 126.68164062 C-7.65154911 135.46281275 1.17121277 144.23440655 10 153 C14.36336211 149.33830286 18.54194318 145.58142616 22.56811523 141.54541016 C23.33042702 140.78331741 23.33042702 140.78331741 24.10813904 140.00582886 C25.7606768 138.35260332 27.4096599 136.69588192 29.05859375 135.0390625 C30.21422229 133.88156574 31.37007414 132.72429189 32.52613831 131.56723022 C35.54827738 128.54129782 38.56739953 125.51237303 41.58587646 122.48278809 C44.67455447 119.38382705 47.76611335 116.28774287 50.85742188 113.19140625 C56.90775098 107.13039606 62.95489193 101.06621753 69 95 C68.05893615 93.8921646 67.11643273 92.78555197 66.17333984 91.67944336 C65.64864105 91.06306503 65.12394226 90.44668671 64.58334351 89.81163025 C62.37254722 87.28208097 60.01599944 84.92118864 57.625 82.5625 C56.75101562 81.69753906 55.87703125 80.83257812 54.9765625 79.94140625 C54.32429688 79.30074219 53.67203125 78.66007812 53 78 C48.08893084 79.98026982 45.1361473 83.95784534 41.6328125 87.78515625 C38.62614635 90.31450299 36.88086892 90.79798217 33 91 C30.05500219 90.26375055 28.54653291 89.67074494 26.625 87.3125 C25.65571052 83.72612893 25.98080593 81.59715554 27 78 C28.53819822 75.86796654 30.20012945 73.98968755 32.015625 72.08984375 C34.4687077 69.50638067 36.71929905 66.73684114 39 64 C33.72 58.72 28.44 53.44 23 48 C17.51502784 52.7014047 12.54701407 57.436472 7.55078125 62.609375 C4.57191919 65.40120284 2.77803664 67.01766262 -1.359375 66.9765625 C-2.14828125 66.86054688 -2.9371875 66.74453125 -3.75 66.625 C-4.54921875 66.51414063 -5.3484375 66.40328125 -6.171875 66.2890625 C-7.07679688 66.14597656 -7.07679688 66.14597656 -8 66 C-9.26662883 62.2001135 -9.82803134 58.92076379 -9 55 C-7.09897521 51.90530848 -4.59162468 49.52528616 -2 47 C-1.02698649 46.01856942 -0.05573631 45.03538855 0.9140625 44.05078125 C3.58834641 41.34541608 6.28816585 38.66769942 9 36 C6.77916707 31.00589848 3.0537014 27.64687641 -0.75 23.8125 C-1.45382813 23.07580078 -2.15765625 22.33910156 -2.8828125 21.58007812 C-5.86081899 18.57162733 -8.1728743 16.32611797 -12.140625 14.76171875 C-20.02726625 15.41893885 -26.06022391 23.73234516 -31.32421875 28.98828125 Z M154.125 34.75 C153.62742187 35.25660156 153.12984375 35.76320313 152.6171875 36.28515625 C151.40676798 37.51885307 150.20270147 38.75877784 149 40 C150.49530324 43.48972003 152.49191662 45.73465395 155.17431641 48.40136719 C156.03505768 49.2619574 156.89579895 50.12254761 157.78262329 51.00921631 C158.71287323 51.92914368 159.64312317 52.84907104 160.6015625 53.796875 C161.56321086 54.75479097 162.52441694 55.71315114 163.48519897 56.67193604 C166.00923282 59.18835125 168.53921591 61.69870107 171.07049561 64.20782471 C173.6547919 66.77162441 176.23340199 69.34112918 178.8125 71.91015625 C183.86945697 76.94569457 188.93272256 81.9748456 194 87 C197.70204784 85.26627208 200.15291388 83.14642057 203.0625 80.25 C203.91972656 79.40953125 204.77695312 78.5690625 205.66015625 77.703125 C209.70783796 73.02700523 211.79557253 68.64537655 211.43188477 62.46948242 C209.92586101 53.85815949 201.48518184 47.01651529 195.5324707 41.14135742 C194.05768266 39.68273547 192.59972965 38.2086403 191.14257812 36.73242188 C183.39908205 28.71225277 183.39908205 28.71225277 173.33984375 24.46875 C172.54707031 24.4790625 171.75429688 24.489375 170.9375 24.5 C170.14214844 24.4896875 169.34679687 24.479375 168.52734375 24.46875 C162.48860266 25.73809898 158.26450337 30.46426417 154.125 34.75 Z M133.41772461 55.46875 C132.42011108 56.47421875 132.42011108 56.47421875 131.40234375 57.5 C130.68369141 58.221875 129.96503906 58.94375 129.22460938 59.6875 C128.46986328 60.450625 127.71511719 61.21375 126.9375 62 C126.17888672 62.763125 125.42027344 63.52625 124.63867188 64.3125 C122.75687495 66.20613213 120.87744195 68.10205162 119 70 C123.81437438 75.79835896 128.99248432 81.12281785 134.3359375 86.43359375 C135.21528961 87.31153091 136.09464172 88.18946808 137.00064087 89.0940094 C139.78974058 91.87754412 142.58231018 94.65756769 145.375 97.4375 C147.2752542 99.33216665 149.17474653 101.2275963 151.07421875 103.12304688 C155.71350604 107.75135161 160.35564167 112.37678421 165 117 C166.1078354 116.05893615 167.21444803 115.11643273 168.32055664 114.17333984 C168.93693497 113.64864105 169.55331329 113.12394226 170.18836975 112.58334351 C172.71791903 110.37254722 175.07881136 108.01599944 177.4375 105.625 C178.73494141 104.31402344 178.73494141 104.31402344 180.05859375 102.9765625 C181.01958984 101.99816406 181.01958984 101.99816406 182 101 C177.18960893 95.21170163 172.02564447 89.88000927 166.69921875 84.56640625 C165.82223831 83.68846909 164.94525787 82.81053192 164.04170227 81.9059906 C162.1998471 80.0634582 160.3567416 78.2221749 158.51245117 76.38208008 C156.61837191 74.49160203 154.72569881 72.59985874 152.83569336 70.70532227 C150.10535829 67.96884577 147.37162543 65.23581297 144.63671875 62.50390625 C143.78575119 61.65091446 142.93478363 60.79792267 142.05802917 59.91908264 C141.27664078 59.14084641 140.49525238 58.36261017 139.69018555 57.56079102 C138.99990768 56.87130875 138.30962982 56.18182648 137.59843445 55.47145081 C135.50334039 53.49695769 135.50334039 53.49695769 133.41772461 55.46875 Z M101.31315935 87.41935384 C100.55732653 88.18187882 100.55732653 88.18187882 99.78622437 88.95980835 C99.24957016 89.49334258 98.71291595 90.0268768 98.15999949 90.57657874 C96.35104311 92.37751546 94.54936906 94.18556825 92.74755859 95.99365234 C91.45705507 97.28144776 90.16612604 98.5688169 88.87480164 99.85578918 C85.35999159 103.36145143 81.85157366 106.87344725 78.34450102 110.38684797 C74.68127097 114.05512568 71.01318185 117.71853914 67.34585571 121.38272095 C61.18692499 127.53800841 55.03223395 133.69751159 48.87988281 139.859375 C41.75701547 146.99312756 34.62697145 154.11964626 27.49315584 161.24244916 C21.37908267 167.34745969 15.26889919 173.45634264 9.16197646 179.56850588 C5.50989949 183.22370819 1.85646745 186.87752851 -1.80046463 190.52787399 C-5.23749973 193.95915112 -8.66964235 197.39524667 -12.09799767 200.83519554 C-13.36049532 202.1003481 -14.62471724 203.36378258 -15.89073753 204.62541008 C-17.61187046 206.34111876 -19.32678841 208.06280155 -21.04019165 209.78622437 C-21.80271663 210.54205718 -21.80271663 210.54205718 -22.58064616 211.31315935 C-25.23951063 213.70609548 -25.23951063 213.70609548 -26 217 C-22.59447474 218.56718383 -19.17421516 220.09913741 -15.75 221.625 C-14.29787109 222.29402344 -14.29787109 222.29402344 -12.81640625 222.9765625 C-11.88183594 223.3890625 -10.94726562 223.8015625 -9.984375 224.2265625 C-9.12553711 224.61408691 -8.26669922 225.00161133 -7.38183594 225.40087891 C-5.07154233 226.21718851 -5.07154233 226.21718851 -3.17304611 225.34432411 C-0.33114343 223.58622138 1.78859257 221.45673683 4.15057373 219.0899353 C4.65626837 218.58594951 5.16196301 218.08196372 5.68298173 217.56270564 C7.37514875 215.87383115 9.06007134 214.17791096 10.74511719 212.48193359 C11.95708484 211.26940178 13.1694931 210.05731023 14.38230896 208.84562683 C17.67365076 205.55485933 20.95878552 202.25795754 24.24285412 198.95993376 C27.67592734 195.51436626 31.11465724 192.0744538 34.55279541 188.63394165 C41.06259064 182.11792783 47.56727042 175.59683207 54.07013535 169.07390273 C61.47364005 161.64805085 68.88281799 154.22787062 76.2924819 146.80816531 C91.53464987 131.54508675 106.76966634 116.2748869 122 101 C120.61667788 98.12638452 119.28720333 96.03133832 117.03125 93.765625 C116.46019531 93.19199219 115.88914062 92.61835938 115.30078125 92.02734375 C114.70652344 91.44082031 114.11226562 90.85429687 113.5 90.25 C112.90574219 89.64800781 112.31148437 89.04601562 111.69921875 88.42578125 C111.12816406 87.85730469 110.55710937 87.28882813 109.96875 86.703125 C109.44732422 86.18395508 108.92589844 85.66478516 108.38867188 85.12988281 C105.25189497 82.577667 103.70919665 85.05046477 101.31315935 87.41935384 Z M130.12753296 117.70510864 C129.61552892 118.21131929 129.10352489 118.71752994 128.57600558 119.23908031 C126.84687563 120.95005358 125.12143093 122.66469553 123.39599609 124.37939453 C122.1628824 125.60134018 120.92959697 126.82311253 119.69615173 128.04472351 C115.63437582 132.06986024 111.57833876 136.10075173 107.5234375 140.1328125 C106.83455586 140.81774827 106.14567422 141.50268405 105.43591738 142.20837545 C98.9446363 148.66323767 92.4558322 155.1205822 85.97212791 161.5830555 C77.66516477 169.86242071 69.3468131 178.12997073 61.01270044 186.38200867 C55.16107495 192.17793933 49.32282846 197.98713287 43.49436057 203.80634964 C40.00929267 207.28514498 36.51848279 210.75769868 33.01319504 214.2161293 C29.71641253 217.4693852 26.43644555 220.73868134 23.16877937 224.02117348 C21.96506729 225.2245557 20.75531914 226.42193409 19.53926277 227.61284065 C17.88239587 229.23722605 16.24843045 230.88164215 14.61849976 232.5329895 C13.23637582 233.90738284 13.23637582 233.90738284 11.82633018 235.3095417 C9.67365955 237.89993896 9.67365955 237.89993896 10.15834999 241.19584465 C10.92246452 243.74167226 11.74455958 246.10713051 12.84765625 248.5234375 C13.20537109 249.31621094 13.56308594 250.10898437 13.93164062 250.92578125 C14.30482422 251.73402344 14.67800781 252.54226563 15.0625 253.375 C15.43955078 254.20644531 15.81660156 255.03789062 16.20507812 255.89453125 C17.13043356 257.93265588 18.0621837 259.9675867 19 262 C22.87510608 260.41888078 25.48673956 257.78812864 28.37835693 254.8621521 C28.90855289 254.333665 29.43874884 253.80517789 29.98501134 253.26067603 C31.76009449 251.48888669 33.5279356 249.71004456 35.29589844 247.93115234 C36.56697865 246.65950799 37.83849941 245.38830386 39.11042786 244.11750793 C42.5629209 240.66558931 46.00920767 237.20753374 49.45442867 233.7483592 C53.05566619 230.13462922 56.6625586 226.52655258 60.26885986 222.9178772 C67.09739816 216.08311978 73.92082169 209.24327955 80.74243093 202.40160716 C88.50868662 194.61300594 96.28061406 186.83007497 104.05302763 179.04761958 C120.04167925 163.03805616 136.02318038 147.02137062 152 131 C150.56304789 128.00191324 149.14380269 125.89626572 146.77734375 123.546875 C146.15666016 122.928125 145.53597656 122.309375 144.89648438 121.671875 C144.25001953 121.03765625 143.60355469 120.4034375 142.9375 119.75 C142.28716797 119.1003125 141.63683594 118.450625 140.96679688 117.78125 C135.68655319 112.31715942 135.68655319 112.31715942 130.12753296 117.70510864 Z M137.19482422 170.68075562 C136.65607666 171.22309845 136.1173291 171.76544128 135.56225586 172.32421875 C134.99640274 172.88992584 134.43054962 173.45563293 133.84754944 174.03848267 C131.96760255 175.91912926 130.09122776 177.80329913 128.21484375 179.6875 C126.91611615 180.98809158 125.61716838 182.28846334 124.31800842 183.58862305 C120.89137638 187.01908188 117.46775728 190.45253264 114.04473877 193.88659668 C110.55441301 197.3871331 107.06127135 200.884857 103.56835938 204.3828125 C96.70946702 211.25244503 89.85375157 218.12523883 83 225 C87.15667589 229.95577256 91.47968583 234.62383563 96.05932617 239.1887207 C96.73813339 239.86928024 97.41694061 240.54983978 98.11631775 241.25102234 C100.33937563 243.47844778 102.56603093 245.70223542 104.79296875 247.92578125 C106.34676988 249.48025657 107.90042258 251.03488026 109.45393372 252.58964539 C112.69935618 255.83653764 115.94656934 259.08162537 119.19506836 262.32543945 C123.36146412 266.48611929 127.5233289 270.65129801 131.6838789 274.81782246 C134.88618112 278.02373346 138.09085536 281.2272648 141.29625893 284.43007469 C142.8324152 285.96556356 144.36782809 287.5017965 145.9024868 289.03878212 C148.04220275 291.18103182 150.18508793 293.32005972 152.32885742 295.45825195 C153.28036682 296.4127977 153.28036682 296.4127977 154.25109863 297.3866272 C154.83554245 297.96825119 155.41998627 298.54987518 156.0221405 299.14912415 C156.52778628 299.6543929 157.03343206 300.15966166 157.55440044 300.68024158 C159.82846122 302.7563427 161.66653294 303.93020457 164.6875 304.5625 C168.25007992 303.9575336 168.97750004 303.42769101 171.55664062 301.09155273 C172.61334961 300.13452957 172.61334961 300.13452957 173.69140625 299.15817261 C180.53012624 292.76504339 187.20901061 286.20847586 193.86771393 279.62891483 C196.44736839 277.07996116 199.03443877 274.53966688 201.640625 272.01782227 C204.1834124 269.55704381 206.70595848 267.0771164 209.21549988 264.58245659 C210.62942535 263.18663739 212.06292591 261.81073668 213.4967041 260.43531799 C218.7989779 255.39657598 218.7989779 255.39657598 220.83007812 248.65991211 C219.9148305 244.62447766 219.04012695 243.09345323 216.0625 240.28125 C215.25039063 239.49492187 214.43828125 238.70859375 213.6015625 237.8984375 C212.74304688 237.10695313 211.88453125 236.31546875 211 235.5 C210.14148438 234.67757812 209.28296875 233.85515625 208.3984375 233.0078125 C206.28253864 230.98595359 204.15032017 228.98510645 202 227 C198.99264159 228.34480376 196.9414784 229.82783179 194.65234375 232.1875 C193.74452148 233.11175781 193.74452148 233.11175781 192.81835938 234.0546875 C191.88733398 235.01761719 191.88733398 235.01761719 190.9375 236 C189.69892558 237.27308578 188.45812384 238.54400932 187.21484375 239.8125 C186.66948975 240.37582031 186.12413574 240.93914062 185.56225586 241.51953125 C182.73543303 244.19836445 180.82746718 245.2672389 177 245.1875 C176.319375 245.18105469 175.63875 245.17460937 174.9375 245.16796875 C173 245 173 245 170 244 C168.01538745 235.86142081 168.01538745 235.86142081 170.0703125 231.9765625 C171.93657834 229.83982335 173.92315696 227.9343146 176 226 C177.05112753 224.94955062 178.09769076 223.89452201 179.140625 222.8359375 C182.07009092 219.86605617 185.02839132 216.92769328 188 214 C183.01595832 207.96668638 177.58084697 202.4815829 172 197 C168.11337943 198.54753313 166.05304955 201.02698746 163.3125 204.125 C157.86401109 209.71050712 157.86401109 209.71050712 153.0625 209.8125 C150.49601145 209.61221142 149.32839423 209.26029405 147.3046875 207.65625 C145.11242588 204.8732592 145.0589865 202.48020325 145 199 C147.88483861 192.96806473 153.23317432 188.58348623 158 184 C153.02838782 177.98173262 147.70170757 172.33662648 142 167 C139.8922584 167 138.60434637 169.27519267 137.19482422 170.68075562 Z M-37 232 C-39.24480642 237.61201606 -40.83348574 243.07136283 -42 249 C-41.09636719 249.54269531 -40.19273437 250.08539063 -39.26171875 250.64453125 C-38.07017612 251.36696261 -36.8787774 252.08963136 -35.6875 252.8125 C-35.09259766 253.16892578 -34.49769531 253.52535156 -33.88476562 253.89257812 C-30.91155145 255.70308284 -28.42233457 257.51495126 -26 260 C-25.34 260 -24.68 260 -24 260 C-23.73058594 260.56847656 -23.46117187 261.13695312 -23.18359375 261.72265625 C-21.95372102 264.08904504 -20.56336156 266.23394499 -19.0625 268.4375 C-16.92411182 271.5821885 -14.9629445 274.72842583 -13 278 C-4.585 275.525 -4.585 275.525 4 273 C-1.07599259 253.99915324 -1.07599259 253.99915324 -13.45751953 240.14453125 C-16.59637096 238.88483432 -19.74558726 237.93223612 -23 237 C-25.28145584 236.04584558 -27.55347884 235.06861867 -29.8125 234.0625 C-33.30106292 232.49894606 -33.30106292 232.49894606 -37 232 Z M-47 267 C-51.36750796 277.70129781 -51.36750796 277.70129781 -53 289 C-50.45757096 288.37798054 -47.91608125 287.75248241 -45.375 287.125 C-44.66214844 286.95097656 -43.94929688 286.77695312 -43.21484375 286.59765625 C-39.07203784 285.57145662 -35.03273322 284.41209271 -31 283 C-34.29669145 276.53848477 -38.27270912 270.82399341 -44.9375 267.5625 C-45.9584375 267.2840625 -45.9584375 267.2840625 -47 267 Z " fill="#000000" transform="translate(180,156)"/>
</svg>
