<?xml version="1.0" encoding="UTF-8"?>
<svg version="1.1" xmlns="http://www.w3.org/2000/svg" width="1493" height="297">
<path d="M0 0 C492.69 0 985.38 0 1493 0 C1493 98.01 1493 196.02 1493 297 C1000.31 297 507.62 297 0 297 C0 198.99 0 100.98 0 0 Z " fill="#010101" transform="translate(0,0)"/>
<path d="M0 0 C4.21131014 0.02033768 8.42259751 0.01421814 12.63394475 0.01189232 C19.69350385 0.01194561 26.75279273 0.03153977 33.81227422 0.0637722 C41.95079234 0.10075277 50.08895852 0.10943095 58.22754973 0.10247469 C66.09834866 0.09615375 73.96902819 0.10694695 81.83980298 0.12644005 C85.17248617 0.13457156 88.505108 0.13733155 91.83780026 0.13574791 C95.76232524 0.13486405 99.68651971 0.14921876 103.61095738 0.17497444 C105.04354364 0.18208667 106.47616518 0.18424395 107.90876508 0.1808567 C116.04242939 0.16530309 123.0833892 0.69811708 130.71046758 3.60576439 C131.49384968 3.88970306 132.27723178 4.17364174 133.08435273 4.46618462 C134.96766716 5.15813122 136.84048821 5.87855019 138.71046758 6.60576439 C138.71046758 7.26576439 138.71046758 7.92576439 138.71046758 8.60576439 C139.37046758 8.60576439 140.03046758 8.60576439 140.71046758 8.60576439 C141.77686402 10.23074944 142.75757101 11.91172605 143.71046758 13.60576439 C144.54114902 14.8991381 145.37467751 16.19068603 146.21046758 17.48076439 C150.77558228 24.79594819 152.82093742 31.5850088 152.85573125 40.26885033 C152.86530103 41.90149834 152.86530103 41.90149834 152.87506413 43.56712914 C152.87673337 45.31101921 152.87673337 45.31101921 152.87843633 47.09013939 C152.88176473 48.30091148 152.88509313 49.51168358 152.88852239 50.75914574 C152.89357759 53.31771529 152.89593115 55.87629141 152.89577031 58.43486595 C152.89795195 62.32788159 152.91610971 66.22061152 152.93507695 70.11357689 C152.93801221 72.60576343 152.93999612 75.0979513 152.94093633 77.59013939 C152.94812184 78.74463585 152.95530736 79.89913231 152.96271062 81.08861351 C152.91955022 96.5345262 149.50936327 109.19307711 138.71046758 120.60576439 C129.28688621 129.48600413 119.02031935 132.77305106 106.25067449 132.72601891 C105.40110702 132.72687333 104.55153956 132.72772776 103.67622763 132.72860807 C100.83109276 132.73025445 97.98601693 132.72475526 95.1408875 132.71928978 C93.10076707 132.7190077 91.06064654 132.71916605 89.02052617 132.71973228 C83.48173382 132.72001945 77.94296308 132.71413574 72.40417576 132.70715833 C66.61591871 132.70091137 60.82766119 132.70031992 55.03940129 132.69913292 C44.07832114 132.69602357 33.11725096 132.6878155 22.1561752 132.67778343 C9.67745882 132.66661001 -2.80125803 132.66110874 -15.27997816 132.65608799 C-40.9498351 132.64563258 -66.61968321 132.62804078 -92.28953242 132.60576439 C-92.28064998 133.33080162 -92.27176753 134.05583885 -92.26261592 134.80284691 C-92.1819651 141.6861722 -92.12131411 148.56942551 -92.08228374 155.45310402 C-92.06154197 158.99085202 -92.03347582 162.52820473 -91.98777461 166.06572533 C-91.93539006 170.14681527 -91.91647671 174.22749987 -91.89890742 178.30888939 C-91.87826228 179.55938072 -91.85761714 180.80987206 -91.83634639 182.09825706 C-91.83365405 192.79490461 -93.49060834 202.7858966 -101.22703242 210.60576439 C-102.06105586 211.47201439 -102.8950793 212.33826439 -103.75437617 213.23076439 C-113.38142443 222.2496324 -120.4488749 223.049661 -133.35349727 222.97807884 C-134.88670799 222.98050918 -136.41991712 222.98423085 -137.9531219 222.98914146 C-142.1040909 222.99852257 -146.25482295 222.98914763 -150.4057734 222.97580934 C-154.75908592 222.96446139 -159.11238733 222.96860504 -163.4657104 222.97055626 C-170.77746629 222.97143837 -178.08912933 222.96037785 -185.40086055 222.94194603 C-193.83905894 222.92079553 -202.2771212 222.91726569 -210.71534073 222.92350799 C-218.84878927 222.92921554 -226.98219015 222.92353859 -235.11563182 222.91233444 C-238.56914985 222.90770524 -242.02263858 222.90680733 -245.47615886 222.90892029 C-249.54902553 222.91081284 -253.62175495 222.90262541 -257.69459033 222.88685989 C-259.18403819 222.88264016 -260.67350003 222.88175081 -262.16295123 222.88455009 C-276.21839308 222.90694608 -288.38071986 221.27218333 -299.16453242 211.35576439 C-308.67318708 200.95781109 -309.59738596 187.82752435 -309.62546992 174.35185814 C-309.63212672 173.21152626 -309.63878352 172.07119438 -309.64564204 170.89630699 C-309.65570883 168.49535786 -309.66046093 166.09438109 -309.66013789 163.69341087 C-309.66449166 160.07712069 -309.70082464 156.46207226 -309.73875117 152.84599876 C-309.8072498 138.45646445 -308.85917237 125.31468422 -304.28953242 111.60576439 C-303.62953242 111.60576439 -302.96953242 111.60576439 -302.28953242 111.60576439 C-302.06265742 111.06951439 -301.83578242 110.53326439 -301.60203242 109.98076439 C-297.25954323 102.1229268 -289.81232021 96.03871055 -281.62937617 92.43388939 C-270.55575525 89.68814946 -258.73429202 90.46978035 -247.4059875 90.492239 C-245.40439043 90.49252145 -243.40279325 90.49236201 -241.40119624 90.49179649 C-235.99498608 90.49151077 -230.58879832 90.49737105 -225.18259335 90.50437045 C-219.52249604 90.51064153 -213.86239817 90.51121075 -208.20229793 90.51239586 C-197.49641242 90.51549813 -186.79053718 90.52369659 -176.08465618 90.53374535 C-163.89116409 90.54494083 -151.6976715 90.55042558 -139.50417554 90.55544078 C-114.43262215 90.56588016 -89.36107787 90.58345815 -64.28953242 90.60576439 C-64.29175303 89.89912148 -64.29397365 89.19247856 -64.29626155 88.46442223 C-64.31638437 81.77138351 -64.33156732 75.07835336 -64.34134459 68.3852911 C-64.34654032 64.94517846 -64.35357708 61.50509104 -64.36497188 58.0649929 C-64.3780192 54.10072199 -64.382788 50.13646093 -64.38718867 46.17217064 C-64.39234996 44.94994301 -64.39751124 43.72771538 -64.40282893 42.46845055 C-64.40369228 29.20320642 -63.3587598 20.17904605 -54.53953242 9.85576439 C-40.25894022 -2.99901757 -17.91354139 -0.10606211 0 0 Z " fill="#F7F7F7" transform="translate(322.2895324230194,49.394235610961914)"/>
<path d="M0 0 C1.41365606 -0.00135742 2.82731176 -0.00313926 4.2409668 -0.00531006 C8.05710819 -0.00984428 11.87322236 -0.0081113 15.68936419 -0.00493097 C19.69786317 -0.00238607 23.70635993 -0.00475087 27.71485901 -0.00631714 C34.44548966 -0.00813284 41.17610931 -0.00574847 47.90673828 -0.00097656 C55.66782877 0.00446269 63.42889298 0.00270343 71.18998283 -0.00280297 C77.87391936 -0.00735382 84.55784801 -0.00797494 91.24178559 -0.0053643 C95.22479276 -0.00381208 99.20778762 -0.00357863 103.19079399 -0.00690079 C106.9377985 -0.00980816 110.68476941 -0.00775157 114.43177032 -0.00200653 C116.44794673 -0.00007242 118.464126 -0.00300851 120.4803009 -0.00613403 C127.32566933 0.00967761 134.03274869 0.2655945 140.82641602 1.12939453 C140.82641602 1.78939453 140.82641602 2.44939453 140.82641602 3.12939453 C141.53668945 3.31115234 142.24696289 3.49291016 142.97875977 3.68017578 C143.89786133 3.93154297 144.81696289 4.18291016 145.76391602 4.44189453 C146.68043945 4.68552734 147.59696289 4.92916016 148.54125977 5.18017578 C149.29536133 5.49341797 150.04946289 5.80666016 150.82641602 6.12939453 C151.15641602 7.11939453 151.48641602 8.10939453 151.82641602 9.12939453 C152.48641602 9.12939453 153.14641602 9.12939453 153.82641602 9.12939453 C153.82641602 9.78939453 153.82641602 10.44939453 153.82641602 11.12939453 C154.40391602 11.23251953 154.98141602 11.33564453 155.57641602 11.44189453 C158.20768616 12.24589374 159.81329695 13.26006968 161.82641602 15.12939453 C161.82641602 16.11939453 161.82641602 17.10939453 161.82641602 18.12939453 C162.81641602 18.45939453 163.80641602 18.78939453 164.82641602 19.12939453 C165.55688477 21.19580078 165.55688477 21.19580078 166.01391602 23.69189453 C166.1724707 24.51818359 166.33102539 25.34447266 166.49438477 26.19580078 C166.60395508 26.83388672 166.71352539 27.47197266 166.82641602 28.12939453 C167.48641602 28.12939453 168.14641602 28.12939453 168.82641602 28.12939453 C170.89379024 36.25920011 171.11111714 44.0748637 171.08520508 52.43237305 C171.08792071 53.84780049 171.09148484 55.26322651 171.0958252 56.6786499 C171.10488264 60.49469179 171.10143282 64.31062461 171.09506702 68.12666821 C171.08997339 72.13563134 171.09470768 76.14458566 171.09783936 80.15354919 C171.10146883 86.88241234 171.09670628 93.61123145 171.0871582 100.34008789 C171.07627118 108.10181408 171.07980513 115.86343519 171.09081101 123.62515885 C171.09990771 130.30995598 171.10115767 136.99472161 171.09593368 143.67952293 C171.09282762 147.6630554 171.092367 151.64653859 171.09900665 155.63006783 C171.10481442 159.37547819 171.10072094 163.12075397 171.08921814 166.8661499 C171.08534356 168.88370075 171.09122752 170.90126308 171.09747314 172.91880798 C171.03441632 186.53694158 168.26052649 197.5267456 159.15844727 207.94970703 C157.82641602 209.12939453 157.82641602 209.12939453 155.82641602 209.12939453 C155.82641602 209.78939453 155.82641602 210.44939453 155.82641602 211.12939453 C148.18844909 219.20381671 136.66163168 221.87131979 125.88633156 222.22623444 C122.31763106 222.27356773 118.75016763 222.28738407 115.18115234 222.29052734 C113.81191883 222.29516386 112.44268659 222.30018963 111.07345581 222.30557251 C107.37276192 222.31861818 103.6720861 222.32512605 99.97137284 222.32958317 C97.65289145 222.33252658 95.33441485 222.3366337 93.0159359 222.34108734 C85.74319478 222.35474159 78.4704648 222.36441838 71.19771177 222.36828923 C62.83710588 222.37276513 54.47666386 222.39029996 46.11610776 222.41928983 C39.63001867 222.44099002 33.14397541 222.45099794 26.65785044 222.45233035 C22.7948392 222.45337242 18.93198242 222.45915147 15.06900978 222.47714996 C11.43028281 222.4937758 7.79182406 222.49571688 4.15307236 222.48701096 C2.20304644 222.48588843 0.25302883 222.49949299 -1.69694519 222.51376343 C-14.09949161 222.45585165 -25.54905306 220.90824065 -35.11108398 212.56689453 C-37.17358398 210.12939453 -37.17358398 210.12939453 -37.17358398 207.12939453 C-37.83358398 207.12939453 -38.49358398 207.12939453 -39.17358398 207.12939453 C-39.84513331 205.84025966 -40.51067257 204.54799249 -41.17358398 203.25439453 C-41.54483398 202.53509766 -41.91608398 201.81580078 -42.29858398 201.07470703 C-43.17358398 199.12939453 -43.17358398 199.12939453 -43.17358398 197.12939453 C-43.83358398 197.12939453 -44.49358398 197.12939453 -45.17358398 197.12939453 C-46.17358398 192.12939453 -46.17358398 192.12939453 -46.17358398 180.12939453 C11.57641602 180.12939453 69.32641602 180.12939453 128.82641602 180.12939453 C128.82641602 134.58939453 128.82641602 89.04939453 128.82641602 42.12939453 C84.93641602 42.12939453 41.04641602 42.12939453 -4.17358398 42.12939453 C-4.17358398 71.82939453 -4.17358398 101.52939453 -4.17358398 132.12939453 C-18.03358398 132.12939453 -31.89358398 132.12939453 -46.17358398 132.12939453 C-46.21369279 108.36269673 -46.21369279 108.36269673 -46.22241211 98.18603516 C-46.22837623 91.25804879 -46.23541128 84.33007572 -46.24902344 77.40209961 C-46.25993557 71.81296455 -46.26587839 66.22384376 -46.26846123 60.63469887 C-46.27030052 58.50860685 -46.27389207 56.38251557 -46.27931404 54.25642967 C-46.28663513 51.26509321 -46.2875703 48.27381476 -46.28710938 45.2824707 C-46.29070465 44.4149971 -46.29429993 43.5475235 -46.29800415 42.65376282 C-46.26831209 24.69822476 -46.26831209 24.69822476 -42.17358398 19.12939453 C-41.92608398 18.34564453 -41.67858398 17.56189453 -41.42358398 16.75439453 C-38.00713149 9.57984429 -30.38101015 4.10420478 -23.17358398 1.12939453 C-15.44970973 -0.02124691 -7.79736606 -0.01206897 0 0 Z " fill="#7F7F7F" transform="translate(818.173583984375,49.87060546875)"/>
<path d="M0 0 C4.21131014 0.02033768 8.42259751 0.01421814 12.63394475 0.01189232 C19.69350385 0.01194561 26.75279273 0.03153977 33.81227422 0.0637722 C41.95079234 0.10075277 50.08895852 0.10943095 58.22754973 0.10247469 C66.09834866 0.09615375 73.96902819 0.10694695 81.83980298 0.12644005 C85.17248617 0.13457156 88.505108 0.13733155 91.83780026 0.13574791 C95.76232524 0.13486405 99.68651971 0.14921876 103.61095738 0.17497444 C105.04354364 0.18208667 106.47616518 0.18424395 107.90876508 0.1808567 C116.04242939 0.16530309 123.0833892 0.69811708 130.71046758 3.60576439 C131.49384968 3.88970306 132.27723178 4.17364174 133.08435273 4.46618462 C134.96766716 5.15813122 136.84048821 5.87855019 138.71046758 6.60576439 C138.71046758 7.26576439 138.71046758 7.92576439 138.71046758 8.60576439 C139.37046758 8.60576439 140.03046758 8.60576439 140.71046758 8.60576439 C141.77686402 10.23074944 142.75757101 11.91172605 143.71046758 13.60576439 C144.54114902 14.8991381 145.37467751 16.19068603 146.21046758 17.48076439 C150.77558228 24.79594819 152.82093742 31.5850088 152.85573125 40.26885033 C152.86530103 41.90149834 152.86530103 41.90149834 152.87506413 43.56712914 C152.87673337 45.31101921 152.87673337 45.31101921 152.87843633 47.09013939 C152.88176473 48.30091148 152.88509313 49.51168358 152.88852239 50.75914574 C152.89357759 53.31771529 152.89593115 55.87629141 152.89577031 58.43486595 C152.89795195 62.32788159 152.91610971 66.22061152 152.93507695 70.11357689 C152.93801221 72.60576343 152.93999612 75.0979513 152.94093633 77.59013939 C152.94812184 78.74463585 152.95530736 79.89913231 152.96271062 81.08861351 C152.91955022 96.5345262 149.50936327 109.19307711 138.71046758 120.60576439 C129.28688621 129.48600413 119.02031935 132.77305106 106.25067449 132.72601891 C105.40110702 132.72687333 104.55153956 132.72772776 103.67622763 132.72860807 C100.83109276 132.73025445 97.98601693 132.72475526 95.1408875 132.71928978 C93.10076707 132.7190077 91.06064654 132.71916605 89.02052617 132.71973228 C83.48173382 132.72001945 77.94296308 132.71413574 72.40417576 132.70715833 C66.61591871 132.70091137 60.82766119 132.70031992 55.03940129 132.69913292 C44.07832114 132.69602357 33.11725096 132.6878155 22.1561752 132.67778343 C9.67745882 132.66661001 -2.80125803 132.66110874 -15.27997816 132.65608799 C-40.9498351 132.64563258 -66.61968321 132.62804078 -92.28953242 132.60576439 C-92.28064998 133.33080162 -92.27176753 134.05583885 -92.26261592 134.80284691 C-92.1819651 141.6861722 -92.12131411 148.56942551 -92.08228374 155.45310402 C-92.06154197 158.99085202 -92.03347582 162.52820473 -91.98777461 166.06572533 C-91.93539006 170.14681527 -91.91647671 174.22749987 -91.89890742 178.30888939 C-91.87826228 179.55938072 -91.85761714 180.80987206 -91.83634639 182.09825706 C-91.83365405 192.79490461 -93.49060834 202.7858966 -101.22703242 210.60576439 C-102.06105586 211.47201439 -102.8950793 212.33826439 -103.75437617 213.23076439 C-113.38142443 222.2496324 -120.4488749 223.049661 -133.35349727 222.97807884 C-134.88670799 222.98050918 -136.41991712 222.98423085 -137.9531219 222.98914146 C-142.1040909 222.99852257 -146.25482295 222.98914763 -150.4057734 222.97580934 C-154.75908592 222.96446139 -159.11238733 222.96860504 -163.4657104 222.97055626 C-170.77746629 222.97143837 -178.08912933 222.96037785 -185.40086055 222.94194603 C-193.83905894 222.92079553 -202.2771212 222.91726569 -210.71534073 222.92350799 C-218.84878927 222.92921554 -226.98219015 222.92353859 -235.11563182 222.91233444 C-238.56914985 222.90770524 -242.02263858 222.90680733 -245.47615886 222.90892029 C-249.54902553 222.91081284 -253.62175495 222.90262541 -257.69459033 222.88685989 C-259.18403819 222.88264016 -260.67350003 222.88175081 -262.16295123 222.88455009 C-276.21839308 222.90694608 -288.38071986 221.27218333 -299.16453242 211.35576439 C-308.67318708 200.95781109 -309.59738596 187.82752435 -309.62546992 174.35185814 C-309.63212672 173.21152626 -309.63878352 172.07119438 -309.64564204 170.89630699 C-309.65570883 168.49535786 -309.66046093 166.09438109 -309.66013789 163.69341087 C-309.66449166 160.07712069 -309.70082464 156.46207226 -309.73875117 152.84599876 C-309.8072498 138.45646445 -308.85917237 125.31468422 -304.28953242 111.60576439 C-303.62953242 111.60576439 -302.96953242 111.60576439 -302.28953242 111.60576439 C-302.06265742 111.06951439 -301.83578242 110.53326439 -301.60203242 109.98076439 C-297.25954323 102.1229268 -289.81232021 96.03871055 -281.62937617 92.43388939 C-270.55575525 89.68814946 -258.73429202 90.46978035 -247.4059875 90.492239 C-245.40439043 90.49252145 -243.40279325 90.49236201 -241.40119624 90.49179649 C-235.99498608 90.49151077 -230.58879832 90.49737105 -225.18259335 90.50437045 C-219.52249604 90.51064153 -213.86239817 90.51121075 -208.20229793 90.51239586 C-197.49641242 90.51549813 -186.79053718 90.52369659 -176.08465618 90.53374535 C-163.89116409 90.54494083 -151.6976715 90.55042558 -139.50417554 90.55544078 C-114.43262215 90.56588016 -89.36107787 90.58345815 -64.28953242 90.60576439 C-64.29175303 89.89912148 -64.29397365 89.19247856 -64.29626155 88.46442223 C-64.31638437 81.77138351 -64.33156732 75.07835336 -64.34134459 68.3852911 C-64.34654032 64.94517846 -64.35357708 61.50509104 -64.36497188 58.0649929 C-64.3780192 54.10072199 -64.382788 50.13646093 -64.38718867 46.17217064 C-64.39234996 44.94994301 -64.39751124 43.72771538 -64.40282893 42.46845055 C-64.40369228 29.20320642 -63.3587598 20.17904605 -54.53953242 9.85576439 C-40.25894022 -2.99901757 -17.91354139 -0.10606211 0 0 Z M-44.99593425 24.25074768 C-47.81427492 27.79559411 -47.96609859 31.22805777 -47.85715938 35.63066673 C-47.85788951 36.41182854 -47.85861964 37.19299034 -47.8593719 37.99782372 C-47.85590641 40.56317224 -47.81709756 43.12667318 -47.77781367 45.69170189 C-47.76848178 47.47673615 -47.76136744 49.26178327 -47.75637507 51.04683495 C-47.73733477 55.73249066 -47.68825996 60.41736462 -47.63285518 65.10271263 C-47.58159837 69.88877857 -47.55884733 74.67497151 -47.53367305 79.46123314 C-47.48013802 88.84308599 -47.39486149 98.22436004 -47.28953242 107.60576439 C-48.45151054 107.6048426 -49.61348866 107.6039208 -50.81067824 107.60297108 C-78.37696004 107.58132586 -105.94324099 107.5648302 -133.50952952 107.55469906 C-136.90047126 107.55344831 -140.29141298 107.55215399 -143.68235469 107.55083275 C-144.3574467 107.55057044 -145.0325387 107.55030813 -145.72808804 107.55003787 C-156.66742689 107.54568336 -167.6067605 107.53779701 -178.54609624 107.52861159 C-189.76600337 107.51926897 -200.98590786 107.51378237 -212.20581907 107.51167589 C-218.50990584 107.51036943 -224.81398072 107.50728759 -231.11806369 107.50003433 C-237.04654129 107.49326823 -242.97500205 107.49114865 -248.90348315 107.49265671 C-251.08401399 107.49238065 -253.26454538 107.49037902 -255.44507289 107.48655891 C-258.41304787 107.48161249 -261.38095854 107.48276967 -264.34893489 107.48550987 C-265.21955068 107.48259703 -266.09016647 107.47968419 -266.98716456 107.47668308 C-270.34068873 107.4851007 -273.08559048 107.53778374 -276.28953242 108.60576439 C-276.28953242 109.26576439 -276.28953242 109.92576439 -276.28953242 110.60576439 C-279.25953242 111.10076439 -279.25953242 111.10076439 -282.28953242 111.60576439 C-282.61953242 112.59576439 -282.94953242 113.58576439 -283.28953242 114.60576439 C-284.77453242 115.10076439 -284.77453242 115.10076439 -286.28953242 115.60576439 C-286.28953242 116.26576439 -286.28953242 116.92576439 -286.28953242 117.60576439 C-286.94953242 117.60576439 -287.60953242 117.60576439 -288.28953242 117.60576439 C-288.61953242 119.58576439 -288.94953242 121.56576439 -289.28953242 123.60576439 C-289.94953242 123.60576439 -290.60953242 123.60576439 -291.28953242 123.60576439 C-292.35437393 130.54256705 -292.43459307 137.34568244 -292.42234492 144.35576439 C-292.42330165 145.56844994 -292.42425838 146.78113548 -292.42524409 148.03056908 C-292.42592231 150.58558263 -292.42409311 153.14059793 -292.41990352 155.69560814 C-292.41455025 159.59278315 -292.41986076 163.48984293 -292.42625117 167.38701439 C-292.42559033 169.87659798 -292.42430903 172.36618149 -292.42234492 174.85576439 C-292.42436915 176.01430931 -292.42639338 177.17285423 -292.42847896 178.36650658 C-292.89344153 189.0457704 -292.89344153 189.0457704 -289.03953242 198.48076439 C-286.46995361 200.46634802 -284.37019552 201.63755599 -281.28953242 202.60576439 C-281.28953242 203.26576439 -281.28953242 203.92576439 -281.28953242 204.60576439 C-277.40396275 205.5169169 -273.79324933 205.73578453 -269.80627131 205.74620628 C-268.49546092 205.75191643 -267.18465053 205.75762657 -265.8341186 205.76350975 C-264.38834844 205.76475495 -262.94257816 205.76588008 -261.49680781 205.7668972 C-259.96887793 205.77152826 -258.4409492 205.77655331 -256.9130218 205.78194237 C-252.76841953 205.79503752 -248.62383343 205.80150527 -244.47921371 205.80595303 C-241.88893503 205.80888741 -239.29866074 205.81299283 -236.70838428 205.8174572 C-228.60110537 205.83112232 -220.49383653 205.84079473 -212.38654691 205.84465909 C-203.03253965 205.84914255 -193.67867832 205.86670788 -184.32471544 205.89565969 C-177.08975816 205.91727492 -169.85484195 205.92736323 -162.61985272 205.92870021 C-158.30039482 205.92974802 -153.98107429 205.93565119 -149.66165042 205.95351982 C-145.59947282 205.9699986 -141.53753591 205.97215703 -137.47533679 205.96338081 C-135.98623073 205.96261043 -134.49711173 205.96695339 -133.00803828 205.97683907 C-130.97199064 205.98956144 -128.93584626 205.98188901 -126.89977717 205.97325706 C-125.76140438 205.97472363 -124.62303159 205.97619019 -123.45016265 205.97770119 C-119.25009633 205.48344558 -115.64931848 204.21142956 -112.86375117 200.92217064 C-109.88672555 195.03369265 -109.14221658 190.71908916 -109.17600703 184.17510033 C-109.17578799 183.06231712 -109.17578799 183.06231712 -109.17556453 181.92705345 C-109.17625973 179.48138542 -109.18403376 177.03579408 -109.19187617 174.59013939 C-109.19374175 172.89191797 -109.19516499 171.19369601 -109.19616389 169.49547386 C-109.1999781 165.03043184 -109.20979904 160.56542245 -109.22086787 156.1003933 C-109.23110556 151.54229232 -109.23566657 146.98418606 -109.2407043 142.42607689 C-109.25142228 133.4859584 -109.26848555 124.54586411 -109.28953242 115.60576439 C-108.14154894 115.60852977 -106.99356545 115.61129515 -105.81079459 115.61414433 C-78.55326783 115.67913326 -51.29574952 115.72859364 -24.03816118 115.75896038 C-20.68241696 115.76271245 -17.32667289 115.76659542 -13.97092891 115.77055931 C-12.9688366 115.77173971 -12.9688366 115.77173971 -11.94650001 115.77294395 C-1.13270477 115.78599396 9.68104256 115.80964556 20.4948094 115.83722278 C31.59268998 115.86528827 42.69055103 115.88171855 53.78846616 115.88802987 C60.02118205 115.89194279 66.25378935 115.90114724 72.48647046 115.92295456 C78.3526176 115.94331318 84.21861136 115.94959938 90.08479047 115.94508743 C92.23784778 115.94591291 94.3909102 115.95188217 96.54393697 115.96338081 C99.4844062 115.97831493 102.42429698 115.97471442 105.36477971 115.96652794 C106.21596224 115.97526646 107.06714477 115.98400499 107.94412071 115.99300832 C116.22427969 115.93073499 121.76156299 113.17574921 127.84718633 107.56279564 C136.28366054 98.70184474 135.8754707 89.50769548 135.94874883 77.84013939 C135.95682057 76.61095787 135.96489232 75.38177635 135.97320867 74.11534691 C135.98700514 71.51988174 135.99774701 68.92439877 136.00563359 66.32890892 C136.01715858 63.68725289 136.03761827 61.04562025 136.06715703 58.40410423 C136.1099908 54.570123 136.12602402 50.73683069 136.13624883 46.90263939 C136.16251096 45.15053154 136.16251096 45.15053154 136.18930364 43.36302757 C136.16980436 35.91302835 135.27617949 29.25965997 131.71046758 22.60576439 C128.90811009 20.41163317 128.90811009 20.41163317 125.71046758 19.60576439 C124.9540384 19.2619441 124.19760922 18.91812382 123.41825795 18.56388474 C120.23750674 17.43841266 117.69596532 17.34843761 114.32332158 17.33833885 C112.38885167 17.3255439 112.38885167 17.3255439 110.41530156 17.31249046 C108.9931823 17.31318944 107.57106313 17.31411247 106.14894414 17.31523705 C104.64558382 17.30925012 103.14222656 17.30244419 101.63887334 17.29488182 C97.56016633 17.27722881 93.48154327 17.27252667 89.40280175 17.27125025 C86.85202533 17.26982741 84.30127015 17.26555524 81.75049901 17.26025581 C72.8442378 17.2417561 63.93803642 17.23358491 55.03175664 17.23515892 C46.74235518 17.2363595 38.45321443 17.21527344 30.16387892 17.18367159 C23.03756936 17.15747615 15.91134476 17.14679303 8.78498745 17.14806974 C4.53302634 17.14857852 0.28129686 17.14294225 -3.9706161 17.12171364 C-7.97295831 17.10227663 -11.9748493 17.10224373 -15.9772079 17.1167469 C-17.44086566 17.11882953 -18.90455207 17.11416675 -20.36816096 17.10202599 C-30.08625766 17.02667646 -37.81490436 17.23268263 -44.99593425 24.25074768 Z " fill="#F7F7F7" transform="translate(322.2895324230194,49.394235610961914)"/>
<path d="M0 0 C22.49680231 -0.02338954 44.99360261 -0.0410089 67.49041462 -0.05181217 C77.93672912 -0.05696227 88.38303606 -0.06398043 98.8293457 -0.07543945 C107.93732797 -0.08542562 117.04530476 -0.09186278 126.15329236 -0.09408849 C130.97316141 -0.09538893 135.79301478 -0.09843242 140.6128788 -0.10573006 C145.15591311 -0.11255237 149.69892539 -0.11460439 154.24196434 -0.11310768 C155.90311681 -0.11338123 157.56427007 -0.11534931 159.22541809 -0.11920547 C183.72183127 -0.17324854 183.72183127 -0.17324854 191.125 3.3125 C192.03507812 3.72113281 192.94515625 4.12976563 193.8828125 4.55078125 C196 6 196 6 196.8046875 8.16796875 C196.86914062 8.77253906 196.93359375 9.37710938 197 10 C197.598125 10.12375 198.19625 10.2475 198.8125 10.375 C201 11 201 11 204 13 C204 13.99 204 14.98 204 16 C204.99 16.33 205.98 16.66 207 17 C208.09765625 18.59375 208.09765625 18.59375 209.0625 20.5 C210.42445528 23.33019068 210.42445528 23.33019068 213 25 C213.81640625 27.1875 213.81640625 27.1875 214.5625 30 C214.81128906 30.9075 215.06007813 31.815 215.31640625 32.75 C217.00215544 40.76453329 217.15937738 48.71082827 217.16796875 56.8671875 C217.17129715 57.9825589 217.17462555 59.0979303 217.17805481 60.24710083 C217.18309389 62.59523102 217.18546407 64.94336831 217.18530273 67.29150391 C217.1874891 70.85721782 217.20567711 74.42262193 217.22460938 77.98828125 C217.22754407 80.28124895 217.22952836 82.57421811 217.23046875 84.8671875 C217.23765427 85.91961639 217.24483978 86.97204529 217.25224304 88.05636597 C217.20894967 102.28564417 214.5384249 112.39656124 204.625 122.875 C193.06099787 133.82122572 179.12983 133.29331992 164.06591797 133.22705078 C162.26151028 133.22648587 160.45710213 133.22680478 158.6526947 133.22793579 C153.77943457 133.22850719 148.90627384 133.21678739 144.03303671 133.20278788 C138.93081262 133.19024498 133.828586 133.18910722 128.72634888 133.18673706 C119.07580895 133.18053273 109.4253146 133.16413611 99.7747947 133.14403808 C88.78324265 133.12164645 77.79168836 133.11067745 66.80011916 133.10064721 C44.20004839 133.07976893 21.60004006 133.0431058 -1 133 C-1 118.81 -1 104.62 -1 90 C57.08 90 115.16 90 175 90 C175 74.16 175 58.32 175 42 C170.64417725 42.00523682 166.28835449 42.01047363 161.80053711 42.01586914 C147.41560325 42.03243227 133.03066901 42.0435331 118.64572811 42.05181217 C109.92340038 42.05696576 101.20108169 42.06399062 92.47875977 42.07543945 C84.87530577 42.0854149 77.27185832 42.09186025 69.66839796 42.09408849 C65.64343013 42.09539073 61.61848103 42.09844582 57.59351921 42.10573006 C53.80232688 42.1125354 50.01116094 42.11460778 46.21996307 42.11310768 C44.83126494 42.11338198 43.4425659 42.11536026 42.05387306 42.11920547 C29.69155547 42.15174675 22.9109999 41.72265112 13 34 C12.28714844 33.46503906 11.57429688 32.93007812 10.83984375 32.37890625 C6.24284673 28.74472996 6.24284673 28.74472996 5.0625 25.125 C5.041875 24.42375 5.02125 23.7225 5 23 C4.34 23 3.68 23 3 23 C-0.13293435 17.85244907 -0.37993835 13.94749378 -0.1875 8.125 C-0.17396484 7.34125 -0.16042969 6.5575 -0.14648438 5.75 C-0.11141789 3.83303218 -0.05762072 1.91642249 0 0 Z " fill="#7E7E7E" transform="translate(1266,139)"/>
<path d="M0 0 C22.34915136 -0.04520741 44.69826549 -0.08202441 67.04745102 -0.10362434 C77.42536815 -0.11392168 87.80325479 -0.12795245 98.18115234 -0.15087891 C107.23018072 -0.17086009 116.27918699 -0.18372764 125.32823682 -0.18817699 C130.11630061 -0.19077637 134.9043012 -0.19685375 139.69234467 -0.21146011 C144.20667249 -0.22511883 148.72091157 -0.22920601 153.2352581 -0.22621536 C154.88470633 -0.22676184 156.53415778 -0.2306896 158.18358803 -0.23841095 C185.52815544 -0.36004845 185.52815544 -0.36004845 192.5 6.4375 C193.325 7.283125 194.15 8.12875 195 9 C195.80308594 9.45117188 196.60617187 9.90234375 197.43359375 10.3671875 C204.21460409 14.68143761 209.48535645 24.45701008 211.59431267 32.17494678 C213.38429296 41.04428117 213.26718217 49.86353973 213.22705078 58.86401367 C213.22648572 60.64886468 213.22680508 62.43371615 213.22793579 64.21856689 C213.22850661 69.033919 213.21679646 73.84917025 213.20278788 78.66449904 C213.19023506 83.70799347 213.18910644 88.75149053 213.18673706 93.79499817 C213.18053562 103.33217398 213.16414297 112.86930362 213.14403808 122.40645915 C213.12163738 133.26986262 213.11067518 144.13326836 213.10064721 154.9966892 C213.07977549 177.33115758 213.04311603 199.66556272 213 222 C198.81 222 184.62 222 170 222 C170 162.6 170 103.2 170 42 C113.9 42 57.8 42 0 42 C0 28.14 0 14.28 0 0 Z " fill="#7E7E7E" transform="translate(1024,50)"/>
<path d="M0 0 C1.26177063 -0.00563965 2.52354126 -0.0112793 3.82354736 -0.01708984 C5.21423398 -0.01320159 6.60492002 -0.00910527 7.99560547 -0.00482178 C9.46604587 -0.00753303 10.93648491 -0.01109471 12.40692139 -0.01544189 C16.39447109 -0.02455224 20.38191719 -0.02102723 24.36946869 -0.01468372 C28.54449236 -0.00961673 32.71950722 -0.01431712 36.89453125 -0.01745605 C43.90545238 -0.02109366 50.91633136 -0.016302 57.92724609 -0.0067749 C66.03033641 0.00410926 74.13332608 0.00058353 82.23641396 -0.01042771 C89.19620436 -0.01950645 96.15596448 -0.02078299 103.1157589 -0.01555037 C107.2713829 -0.01243391 111.42695961 -0.01201247 115.58258057 -0.01862335 C119.48960324 -0.02440471 123.39649626 -0.02038547 127.30350494 -0.00883484 C128.73658279 -0.00619248 130.16967157 -0.00694612 131.60274506 -0.01136017 C133.56035469 -0.0168335 135.5179882 -0.00874974 137.47558594 0 C139.11815872 0.00113108 139.11815872 0.00113108 140.79391479 0.002285 C145.38792789 0.395043 149.46349512 1.94971326 152.73779297 5.25396729 C153.23226929 7.84545898 153.23226929 7.84545898 153.22363281 10.99127197 C153.2328627 12.758909 153.2328627 12.758909 153.24227905 14.56225586 C153.2207225 16.47473114 153.2207225 16.47473114 153.19873047 18.42584229 C153.19781403 19.73675842 153.19689758 21.04767456 153.19595337 22.39831543 C153.19282449 25.17593544 153.17626188 27.95303962 153.14941406 30.73052979 C153.11556628 34.2756285 153.1077818 37.82015706 153.10930443 41.36539841 C153.10862641 44.76062142 153.09092093 48.15566113 153.07373047 51.55084229 C153.07150482 52.81772888 153.06927917 54.08461548 153.06698608 55.38989258 C153.00287388 61.37433896 152.82526347 66.61727637 150.73779297 72.25396729 C150.07779297 72.25396729 149.41779297 72.25396729 148.73779297 72.25396729 C148.39748047 73.08927979 148.39748047 73.08927979 148.05029297 73.94146729 C146.14270908 77.30244843 143.7026382 80.5481607 139.96445084 81.89098263 C137.11146445 82.35606992 134.37810986 82.37660781 131.48626709 82.3742218 C130.20181702 82.37559647 128.91736694 82.37697113 127.59399414 82.37838745 C126.17285133 82.37484852 124.75170875 82.37121372 123.33056641 82.36749268 C121.83245852 82.36721057 120.33435049 82.367369 118.83624268 82.36793518 C114.7704814 82.36822224 110.70474959 82.36234021 106.63899517 82.35536122 C102.38956031 82.34911254 98.14012478 82.34852268 93.89068604 82.34733582 C85.84430496 82.34422697 77.79793746 82.33601959 69.75156236 82.32598633 C60.59082351 82.31481133 51.43008401 82.30931124 42.26934004 82.30429089 C23.42548332 82.29383662 4.58163923 82.27624581 -14.26220703 82.25396729 C-14.33179413 72.7092267 -14.38506245 63.16457378 -14.41764355 53.61963463 C-14.43328282 49.18727008 -14.45448923 44.75507942 -14.48852539 40.32281494 C-14.52118101 36.04342571 -14.53907312 31.76420349 -14.54683876 27.48469925 C-14.55237115 25.85405474 -14.56317463 24.22341911 -14.5793972 22.59284592 C-14.60125437 20.3043943 -14.60417056 18.01662801 -14.6027832 15.72808838 C-14.60944504 14.42681 -14.61610687 13.12553162 -14.62297058 11.78482056 C-14.22286365 7.86890707 -13.46025646 5.5155117 -11.26220703 2.25396729 C-7.58055378 0.07470322 -4.21803763 0.00290454 0 0 Z " fill="#F8F8F8" transform="translate(297.26220703125,74.74603271484375)"/>
<path d="M0 0 C1.81425983 0.00028245 3.62851978 0.00012301 5.44277954 -0.0004425 C10.34286766 -0.00072822 15.24293107 0.00513193 20.14301348 0.01213145 C25.27326868 0.01840266 30.40352451 0.01897176 35.53378296 0.02015686 C45.23743041 0.02325909 54.94106652 0.0314575 64.64470899 0.04150635 C75.69672424 0.05270195 86.74874004 0.05818661 97.80075955 0.06320179 C120.52522112 0.07364108 143.24966716 0.09197274 165.97412109 0.11352539 C165.97412109 13.97352539 165.97412109 27.83352539 165.97412109 42.11352539 C108.22412109 42.11352539 50.47412109 42.11352539 -9.02587891 42.11352539 C-9.02587891 71.81352539 -9.02587891 101.51352539 -9.02587891 132.11352539 C-22.88587891 132.11352539 -36.74587891 132.11352539 -51.02587891 132.11352539 C-51.07106561 118.78762016 -51.1077582 105.46176583 -51.12950325 92.13580132 C-51.13993983 85.94800851 -51.15409688 79.76027084 -51.17675781 73.57250977 C-51.19849045 67.60084618 -51.21044848 61.62923563 -51.21563339 55.65753555 C-51.21932837 53.37937714 -51.22654369 51.10122162 -51.23733902 48.82308578 C-51.25185935 45.63191202 -51.2538566 42.44095735 -51.25292969 39.24975586 C-51.26012024 38.30820145 -51.26731079 37.36664703 -51.27471924 36.39656067 C-51.25404777 29.81837661 -49.96364868 24.71099193 -47.02587891 18.80102539 C-46.69587891 18.12426758 -46.36587891 17.44750977 -46.02587891 16.75024414 C-45.02587891 15.11352539 -45.02587891 15.11352539 -43.02587891 14.11352539 C-42.57212891 13.32977539 -42.11837891 12.54602539 -41.65087891 11.73852539 C-40.00385482 9.07794802 -38.6715779 7.73508284 -36.02587891 6.11352539 C-35.36587891 6.11352539 -34.70587891 6.11352539 -34.02587891 6.11352539 C-34.02587891 5.45352539 -34.02587891 4.79352539 -34.02587891 4.11352539 C-24.14649938 -1.86609906 -11.16266748 -0.02441703 0 0 Z " fill="#7E7E7E" transform="translate(561.02587890625,49.886474609375)"/>
<path d="M0 0 C23.83518534 -0.04516938 47.67033596 -0.08200233 71.50555325 -0.10362434 C82.57297232 -0.11393123 93.64036289 -0.12798038 104.70776367 -0.15087891 C114.35555591 -0.17083072 124.0033275 -0.18372071 133.6511398 -0.18817699 C138.75824577 -0.19078132 143.86529267 -0.19689049 148.97237968 -0.21146011 C153.7829968 -0.22507229 158.59353072 -0.22921528 163.40416527 -0.22621536 C165.16613976 -0.2267639 166.92811713 -0.23071962 168.69007492 -0.23841095 C189.6426363 -0.32535856 189.6426363 -0.32535856 198.75 4.875 C199.63171875 5.36742187 200.5134375 5.85984375 201.421875 6.3671875 C206.91525983 9.84633123 209.97980273 13.04306679 212.75 18.9375 C213.05292969 19.54529297 213.35585937 20.15308594 213.66796875 20.77929688 C216.83686125 27.30721543 217.14220668 32.90935279 217.09765625 40.01953125 C217.09664917 40.78116577 217.09564209 41.54280029 217.09460449 42.32751465 C217.08939679 45.15585855 217.07543561 47.98418089 217.0625 50.8125 C217.041875 57.144375 217.02125 63.47625 217 70 C203.14 70 189.28 70 175 70 C175 60.76 175 51.52 175 42 C117.25 42 59.5 42 0 42 C0 28.14 0 14.28 0 0 Z " fill="#FDFDFD" transform="translate(13,50)"/>
<path d="M0 0 C13.86 0 27.72 0 42 0 C42 9.57 42 19.14 42 29 C99.75 29 157.5 29 217 29 C217 42.53 217 56.06 217 70 C192.53016364 70.09035359 168.0604627 70.16401311 143.59050179 70.20724869 C132.22824245 70.22785882 120.86609425 70.2559499 109.50390625 70.30175781 C99.59864122 70.34167288 89.6934567 70.36744407 79.78811347 70.37635398 C74.54508424 70.38156079 69.30228529 70.39376657 64.05932999 70.42292023 C59.11978448 70.45016303 54.18056313 70.45842708 49.24094963 70.45243073 C47.43261768 70.453527 45.62427437 70.46142787 43.81600761 70.4768219 C31.22764052 70.57869022 21.24784051 69.80504169 11.74609375 60.78125 C2.41664147 51.2639564 -0.18213052 42.14252747 -0.09765625 29.1015625 C-0.09614563 27.99010864 -0.09614563 27.99010864 -0.09460449 26.85620117 C-0.08940853 24.1124515 -0.0754475 21.36872404 -0.0625 18.625 C-0.041875 12.47875 -0.02125 6.3325 0 0 Z " fill="#FEFEFE" transform="translate(258,201)"/>
<path d="M0 0 C71.94 0 143.88 0 218 0 C218 14.19 218 28.38 218 43 C194.34700942 43.06780051 170.69409788 43.12303042 147.0410347 43.15543652 C136.0577572 43.1708852 125.0745445 43.19193647 114.09130859 43.22631836 C104.51490285 43.25628194 94.93854406 43.27558952 85.36209273 43.28226548 C80.29454086 43.28616596 75.22712327 43.29529085 70.15961456 43.31719017 C65.38261217 43.33766536 60.60579844 43.34381163 55.82875633 43.33932304 C54.08254913 43.34014333 52.33633513 43.34604289 50.59016609 43.35761642 C40.9553862 43.41830285 32.26285557 43.03373366 23 40 C21.94456938 39.66155453 21.94456938 39.66155453 20.86781693 39.31627178 C16.6930957 37.77122369 14.39029024 35.72885277 12 32 C12 31.34 12 30.68 12 30 C11.401875 29.979375 10.80375 29.95875 10.1875 29.9375 C8 29 8 29 6.25 25.5625 C5 22 5 22 5 20 C4.34 20 3.68 20 3 20 C2.49009907 17.98164215 1.99255336 15.96016125 1.5 13.9375 C1.2215625 12.81214844 0.943125 11.68679687 0.65625 10.52734375 C0 7 0 7 0 0 Z " fill="#7D7D7D" transform="translate(509,229)"/>
<path d="M0 0 C1.51029206 -0.00243102 3.0205825 -0.00615335 4.53086853 -0.01106262 C8.61333173 -0.02043037 12.69555347 -0.01108231 16.77799773 0.00226951 C21.0571022 0.01362223 25.33619546 0.00947371 29.61531067 0.00752258 C36.79664028 0.0066411 43.97787522 0.01769185 51.15917969 0.03613281 C59.45831002 0.05732238 67.75730197 0.0608043 76.05645388 0.05457085 C84.04949339 0.04887512 92.04248425 0.05452378 100.03551674 0.0657444 C103.43372816 0.07038514 106.83190979 0.07126655 110.23012352 0.06915855 C114.22994334 0.06727395 118.22962243 0.07539274 122.22941017 0.09121895 C123.69635053 0.09545806 125.16330518 0.09631485 126.63024902 0.09352875 C128.63368872 0.09030111 130.63713657 0.10062441 132.64054871 0.11161804 C133.76119815 0.11367091 134.88184759 0.11572378 136.03645611 0.11783886 C139.10697686 0.37847295 141.24655644 1.10439898 144.03442383 2.37231445 C145.04504883 2.68168945 146.05567383 2.99106445 147.09692383 3.30981445 C151.70156076 6.5428574 152.6698368 11.04455225 154.03442383 16.37231445 C154.54331983 20.79370996 154.55036477 25.15223218 154.49536133 29.59887695 C154.49444489 30.82714203 154.49352844 32.0554071 154.49258423 33.32089233 C154.4865773 35.90089821 154.47091992 38.48089807 154.44604492 41.06079102 C154.40946377 44.99302064 154.40502677 48.92430706 154.40551758 52.85668945 C154.39568721 55.3749267 154.38403056 57.89315762 154.37036133 60.41137695 C154.36813568 61.57722321 154.36591003 62.74306946 154.36361694 63.94424438 C154.22879978 75.61949628 152.63715478 83.68055791 144.29614258 92.1340332 C138.03358737 97.86892301 132.05265136 98.66905252 123.80899048 98.61282349 C122.42922706 98.61538676 122.42922706 98.61538676 121.02158964 98.61800182 C117.94457058 98.62129164 114.8677704 98.61030129 111.79077148 98.59936523 C109.58301804 98.59880101 107.37526421 98.5991179 105.16751099 98.60025024 C99.17628896 98.60082432 93.18514693 98.589061 87.1939435 98.57510233 C80.93190192 98.56260422 74.66985853 98.56142519 68.4078064 98.55905151 C57.8980785 98.55354056 47.38837535 98.54104607 36.87866211 98.52319336 C26.05509589 98.50482667 15.23153765 98.49067403 4.40795898 98.48217773 C3.40669298 98.48138956 3.40669298 98.48138956 2.38519938 98.48058547 C-0.96360872 98.47797534 -4.31241688 98.47544794 -7.66122508 98.47296166 C-35.42936255 98.45205363 -63.1974673 98.41687243 -90.96557617 98.37231445 C-90.95558342 99.77719872 -90.95558342 99.77719872 -90.94538879 101.21046448 C-90.88447749 110.05264901 -90.83955551 118.89479077 -90.81013966 127.73713779 C-90.79450807 132.28269279 -90.77331576 136.82807791 -90.73925781 141.37353516 C-90.70657472 145.76315409 -90.68870431 150.15260998 -90.68094444 154.54234123 C-90.67541697 156.21402489 -90.66462316 157.88569999 -90.648386 159.55731392 C-90.62649232 161.90542759 -90.62361416 164.25287431 -90.625 166.60107422 C-90.61421417 167.28656342 -90.60342834 167.97205261 -90.59231567 168.67831421 C-90.62410963 173.68254247 -91.80273348 176.96261777 -93.96557617 181.37231445 C-94.41932617 182.30043945 -94.87307617 183.22856445 -95.34057617 184.18481445 C-97.37224711 186.9197561 -98.73167708 187.35887894 -101.96557617 188.37231445 C-105.00315857 188.62120342 -105.00315857 188.62120342 -108.45556641 188.61955261 C-110.42394974 188.62584435 -110.42394974 188.62584435 -112.43209839 188.63226318 C-113.87945631 188.62678021 -115.32681349 188.62109724 -116.77416992 188.61523438 C-118.30372194 188.61630773 -119.83327355 188.6182472 -121.36282349 188.62098694 C-125.5115314 188.62582991 -129.66013156 188.61818632 -133.80882645 188.6080339 C-138.15200933 188.59924341 -142.49518894 188.60101104 -146.83837891 188.60139465 C-154.13177287 188.6004584 -161.4251252 188.59177984 -168.71850586 188.578125 C-177.14876192 188.56239992 -185.57897239 188.55712693 -194.00924206 188.55786055 C-202.98679669 188.55853627 -211.96433376 188.55159342 -220.94188309 188.54241395 C-223.52765215 188.54028355 -226.11341837 188.53957289 -228.69918823 188.53917503 C-232.76376892 188.5381697 -236.82831141 188.53205747 -240.89287949 188.5220089 C-242.38400921 188.51909081 -243.87514332 188.51785713 -245.36627579 188.51843643 C-247.40271665 188.51892815 -249.43915578 188.51264586 -251.47558594 188.50602722 C-252.61488052 188.50435138 -253.75417511 188.50267553 -254.92799377 188.50094891 C-257.72298909 188.38258744 -260.24732082 188.01040968 -262.96557617 187.37231445 C-262.96557617 186.71231445 -262.96557617 186.05231445 -262.96557617 185.37231445 C-264.04838867 185.03200195 -264.04838867 185.03200195 -265.15307617 184.68481445 C-268.67949131 183.03915406 -270.5607516 181.44514586 -272.96557617 178.37231445 C-274.25030052 171.49928721 -274.11057068 164.59454562 -274.09838867 157.62231445 C-274.0993454 156.40962891 -274.10030212 155.19694336 -274.10128784 153.94750977 C-274.10196605 151.39249621 -274.10013686 148.83748091 -274.09594727 146.2824707 C-274.090594 142.38529569 -274.0959045 138.48823591 -274.10229492 134.59106445 C-274.10163408 132.10148087 -274.10035278 129.61189735 -274.09838867 127.12231445 C-274.1004129 125.96376953 -274.10243713 124.80522461 -274.10452271 123.61157227 C-274.08770004 117.76910756 -273.85237966 112.14930637 -272.96557617 106.37231445 C-272.30557617 106.37231445 -271.64557617 106.37231445 -270.96557617 106.37231445 C-270.63557617 104.39231445 -270.30557617 102.41231445 -269.96557617 100.37231445 C-269.30557617 100.37231445 -268.64557617 100.37231445 -267.96557617 100.37231445 C-267.63557617 99.38231445 -267.30557617 98.39231445 -266.96557617 97.37231445 C-266.30557617 97.37231445 -265.64557617 97.37231445 -264.96557617 97.37231445 C-264.63557617 96.38231445 -264.30557617 95.39231445 -263.96557617 94.37231445 C-260.99557617 93.87731445 -260.99557617 93.87731445 -257.96557617 93.37231445 C-257.96557617 92.71231445 -257.96557617 92.05231445 -257.96557617 91.37231445 C-253.9844644 90.0452772 -250.17508605 90.23817482 -246.02497864 90.25205994 C-245.09953253 90.25120551 -244.17408642 90.25035109 -243.22059649 90.24947077 C-240.10668031 90.24781819 -236.9928175 90.25333375 -233.87890625 90.25878906 C-231.65189109 90.25907101 -229.42487583 90.25891306 -227.19786072 90.25834656 C-221.14037221 90.25805887 -215.08290339 90.26395099 -209.02541947 90.27092052 C-202.69929494 90.27715881 -196.37316998 90.27775823 -190.04704285 90.27894592 C-179.42523822 90.28170395 -168.80344139 90.28795621 -158.18164062 90.296875 C-147.24056026 90.30605233 -136.29948187 90.3131316 -125.35839844 90.31738281 C-124.68412561 90.31764554 -124.00985278 90.31790826 -123.31514744 90.31817894 C-119.93255925 90.31948397 -116.54997105 90.32074768 -113.16738284 90.32199085 C-85.10010891 90.33235958 -57.03284299 90.35004879 -28.96557617 90.37231445 C-28.98556168 88.89226173 -28.98556168 88.89226173 -29.00595093 87.38230896 C-29.12774668 78.06931925 -29.21760321 68.75649177 -29.2764492 59.4428854 C-29.30772039 54.65494449 -29.35011555 49.86764811 -29.41821289 45.08007812 C-29.48355675 40.45699319 -29.5193139 35.83452691 -29.53483963 31.2110157 C-29.54589914 29.44994432 -29.56749659 27.68890562 -29.59995651 25.92809868 C-29.87467882 10.40377232 -29.87467882 10.40377232 -26.42895508 5.92333984 C-18.64389722 -0.74029868 -9.7066083 -0.05482084 0 0 Z M-18.96557617 11.37231445 C-21.37866263 15.32221408 -21.20811362 19.18757233 -21.19262695 23.73291016 C-21.19291901 24.45540451 -21.19321106 25.17789886 -21.19351196 25.92228699 C-21.19212456 28.297681 -21.17659142 30.67275684 -21.16088867 33.0480957 C-21.15715644 34.70004607 -21.15431046 36.35199865 -21.15231323 38.00395203 C-21.14469331 42.34243937 -21.12505898 46.68079185 -21.10290527 51.01922607 C-21.08241144 55.45005469 -21.07330396 59.88090518 -21.06323242 64.31176758 C-21.04181148 72.99867828 -21.00769543 81.68547957 -20.96557617 90.37231445 C-1.26815674 90.44242617 18.42923733 90.49531324 38.12675571 90.52775097 C47.27286007 90.54321336 56.41888685 90.56429087 65.56494141 90.59863281 C73.53755986 90.6285544 81.51012213 90.64789403 89.48279518 90.65457994 C93.70344527 90.65848752 97.92393463 90.66765778 102.14453316 90.68950462 C106.11963202 90.70991339 110.09450437 90.71613941 114.06965065 90.7116375 C115.52608726 90.71246074 116.98253168 90.7184003 118.43892288 90.72993088 C128.68339134 90.94958541 128.68339134 90.94958541 138.03442383 87.37231445 C141.14171359 84.35382215 141.14171359 84.35382215 142.03442383 80.37231445 C142.69442383 80.37231445 143.35442383 80.37231445 144.03442383 80.37231445 C146.54298882 73.5776834 146.37505278 66.88353872 146.40551758 59.7043457 C146.41454605 58.39197433 146.42357452 57.07960297 146.43287659 55.72746277 C146.44929108 52.96134996 146.45705411 50.1953572 146.45996094 47.42919922 C146.46536912 43.88806387 146.50317836 40.34805606 146.5487051 36.80724049 C146.58559152 33.41877961 146.58698453 30.03050062 146.59301758 26.6418457 C146.62231606 24.73711235 146.62231606 24.73711235 146.65220642 22.79389954 C146.64612869 21.61555038 146.64005096 20.43720123 146.63378906 19.22314453 C146.63885971 18.18724686 146.64393036 17.15134918 146.64915466 16.08406067 C146.24138216 13.17349783 146.24138216 13.17349783 143.7469635 11.06913757 C139.43738119 8.37328801 135.93997816 8.24557038 130.89920044 8.23187256 C129.64024963 8.22616241 128.38129883 8.22045227 127.084198 8.21456909 C125.69146738 8.21332383 124.29873666 8.21219871 122.90600586 8.21118164 C121.43733598 8.20655166 119.96866729 8.20152676 118.5 8.19613647 C114.51235832 8.18302928 110.52473346 8.176571 106.53707361 8.17212582 C104.04512843 8.16919286 101.55318783 8.16508766 99.06124496 8.16062164 C91.26257763 8.14695219 83.46392079 8.13728239 75.66524231 8.13341975 C66.66609567 8.12893783 57.66710083 8.11138145 48.66800034 8.08241916 C41.70906931 8.06080086 34.75018099 8.05071542 27.79121673 8.04937863 C23.63606228 8.04833087 19.48105062 8.04242894 15.32593155 8.02455902 C11.41724942 8.00807535 7.50881742 8.00592417 3.60011292 8.01469803 C2.16744695 8.0154682 0.73476751 8.01112821 -0.69786453 8.00123978 C-2.65733054 7.98851049 -4.61689715 7.99619235 -6.5763855 8.00482178 C-7.67181105 8.00335522 -8.7672366 8.00188866 -9.89585686 8.00037766 C-13.55559318 8.44380276 -15.88395724 9.34908952 -18.96557617 11.37231445 Z M-259.77807617 103.74731445 C-264.39903395 109.29246379 -266.07434055 113.537624 -266.12670898 120.68823242 C-266.13631653 121.74968475 -266.14592407 122.81113708 -266.15582275 123.90475464 C-266.16007263 125.04647125 -266.16432251 126.18818787 -266.16870117 127.36450195 C-266.17440125 128.54319855 -266.18010132 129.72189514 -266.18597412 130.93630981 C-266.19541793 133.42945459 -266.20195564 135.92261181 -266.20581055 138.41577148 C-266.21552115 142.22572616 -266.24655335 146.03514249 -266.27807617 149.8449707 C-266.28460596 152.26814459 -266.28985653 154.69132232 -266.29370117 157.11450195 C-266.30604797 158.2521701 -266.31839478 159.38983826 -266.33111572 160.5619812 C-266.31511269 166.25567691 -266.23984453 170.49352033 -262.96557617 175.37231445 C-262.36505511 176.42344547 -262.36505511 176.42344547 -261.75240231 177.49581146 C-260.06427129 179.63844967 -260.06427129 179.63844967 -257.17129612 179.87567902 C-256.02885913 179.87718712 -254.88642214 179.87869522 -253.70936584 179.88024902 C-252.39841446 179.89152832 -251.08746307 179.90280762 -249.73678589 179.91442871 C-248.28057642 179.90665114 -246.82436911 179.89845845 -245.36816406 179.88989258 C-243.83727858 179.89531168 -242.30639831 179.90243315 -240.77552795 179.91113281 C-236.6142831 179.92939609 -232.45343414 179.92228603 -228.29218221 179.90961647 C-223.94049959 179.89950243 -219.58885128 179.90887787 -215.23716736 179.91516113 C-207.92758081 179.92244299 -200.61815579 179.9128366 -193.30859375 179.89379883 C-184.8555169 179.87203712 -176.40282605 179.87907407 -167.94975859 179.90110445 C-160.69615881 179.91925289 -153.44267529 179.92181927 -146.18906015 179.91134977 C-141.85509727 179.90511071 -137.52131583 179.9042903 -133.18736458 179.91749573 C-129.11197651 179.92904531 -125.0370862 179.92104524 -120.96175194 179.8979187 C-119.46537223 179.89262643 -117.96895069 179.89415431 -116.47258759 179.90296936 C-114.43133025 179.91388622 -112.38998145 179.89777371 -110.34877014 179.88024902 C-109.20595613 179.87874092 -108.06314211 179.87723282 -106.88569736 179.87567902 C-103.30924516 179.25917745 -102.15722262 178.21241527 -99.96557617 175.37231445 C-98.7798333 171.81508583 -98.84567425 168.99454901 -98.85205078 165.23876953 C-98.85183174 164.15546608 -98.85183174 164.15546608 -98.85160828 163.05027771 C-98.85230472 160.66410311 -98.86008457 158.27800666 -98.86791992 155.8918457 C-98.86978505 154.23703555 -98.87120851 152.58222484 -98.87220764 150.92741394 C-98.87602532 146.57250442 -98.88584923 142.21762827 -98.89691162 137.86273193 C-98.90714184 133.41866507 -98.91170872 128.97459282 -98.91674805 124.53051758 C-98.92747215 115.81110123 -98.9445396 107.09171199 -98.96557617 98.37231445 C-118.38495689 98.30217868 -137.80431184 98.24930389 -157.22379303 98.21687794 C-166.24095396 98.20142064 -175.25803612 98.1803529 -184.27514648 98.14599609 C-192.13607318 98.11605888 -199.99694281 98.09673118 -207.85792494 98.09004897 C-212.01880427 98.08614403 -216.17952036 98.07699065 -220.34034729 98.05512428 C-224.26045811 98.03469078 -228.18033918 98.02849445 -232.1004982 98.03299141 C-233.53555171 98.03216927 -234.97061328 98.02624451 -236.40562057 98.01469803 C-248.99519134 97.86579403 -248.99519134 97.86579403 -259.77807617 103.74731445 Z " fill="#0A0A0A" transform="translate(303.965576171875,66.627685546875)"/>
<path d="M0 0 C0.75820903 -0.00085442 1.51641807 -0.00170885 2.29760313 -0.00258917 C4.81557362 -0.00422457 7.33347617 0.00124536 9.85144043 0.00672913 C11.66540526 0.00701144 13.4793702 0.00685239 15.29333496 0.00628662 C20.20180567 0.00600039 25.1102518 0.01186906 30.01871681 0.01886058 C35.1543223 0.02512302 40.28992839 0.0257002 45.42553711 0.02688599 C55.14341753 0.02999078 64.86128666 0.03819269 74.57916212 0.04823548 C85.645641 0.05942306 96.71212043 0.06491373 107.77860355 0.06993091 C130.53661416 0.08037602 153.29460931 0.09871091 176.0526123 0.12025452 C176.0526123 13.98025452 176.0526123 27.84025452 176.0526123 42.12025452 C104.4426123 42.12025452 32.8326123 42.12025452 -40.9473877 42.12025452 C-40.9473877 28.97455016 -39.34417222 23.0631815 -32.9473877 12.12025452 C-32.2873877 12.12025452 -31.6273877 12.12025452 -30.9473877 12.12025452 C-30.9473877 11.46025452 -30.9473877 10.80025452 -30.9473877 10.12025452 C-30.2873877 10.12025452 -29.6273877 10.12025452 -28.9473877 10.12025452 C-28.9473877 9.46025452 -28.9473877 8.80025452 -28.9473877 8.12025452 C-20.06474754 1.24337182 -10.96327715 -0.04610572 0 0 Z " fill="#7E7E7E" transform="translate(1305.9473876953125,49.87974548339844)"/>
<path d="M0 0 C43.89 0 87.78 0 133 0 C133 15.51 133 31.02 133 47 C89.11 47 45.22 47 0 47 C0 31.49 0 15.98 0 0 Z " fill="#050505" transform="translate(300,92)"/>
<path d="M0 0 C0.9724916 0.00092179 1.9449832 0.00184359 2.94694424 0.00279331 C4.05898724 0.00141865 5.17103024 0.00004398 6.31677151 -0.00137234 C7.54747372 0.00222294 8.77817593 0.00581821 10.04617214 0.00952244 C11.33378948 0.00937641 12.62140682 0.00923038 13.94804287 0.00907993 C17.48920685 0.00879197 21.03033724 0.01468847 24.57149339 0.02165389 C28.26840913 0.02788766 31.96532556 0.02849125 35.66224575 0.0296793 C42.66749824 0.03279255 49.6727352 0.04100584 56.67798084 0.05102879 C64.65124801 0.06219013 72.6245159 0.06770043 80.59778893 0.07272422 C97.00368957 0.08318846 113.40956881 0.10153386 129.81545925 0.12304783 C129.81545925 15.63304783 129.81545925 31.14304783 129.81545925 47.12304783 C85.92545925 47.12304783 42.03545925 47.12304783 -3.18454075 47.12304783 C-3.18454075 0.17937446 -3.18454075 0.17937446 0 0 Z " fill="#020202" transform="translate(58.18454074859619,181.87695217132568)"/>
<path d="M0 0 C14.19 0 28.38 0 43 0 C43 44.55 43 89.1 43 135 C28.81 135 14.62 135 0 135 C0 90.45 0 45.9 0 0 Z " fill="#7D7D7D" transform="translate(1024,137)"/>
<path d="M0 0 C0.33 0.99 0.66 1.98 1 3 C1.99 3.33 2.98 3.66 4 4 C3.67 4.99 3.34 5.98 3 7 C2.88408552 8.79403055 2.82347129 10.59186356 2.79467773 12.3894043 C2.77473251 13.49031906 2.75478729 14.59123383 2.73423767 15.72550964 C2.71752518 16.91308365 2.70081268 18.10065765 2.68359375 19.32421875 C2.66281265 20.54075638 2.64203156 21.75729401 2.62062073 23.01069641 C2.55515283 26.90290596 2.49625285 30.79518385 2.4375 34.6875 C2.39431218 37.32357482 2.3506978 39.95964269 2.30664062 42.59570312 C2.19947422 49.06372951 2.09770255 55.53182411 2 62 C1.67 62 1.34 62 1 62 C0.67 41.54 0.34 21.08 0 0 Z " fill="#2F2F2F" transform="translate(474,78)"/>
<path d="M0 0 C0.99 0.33 1.98 0.66 3 1 C2.38125 1.0825 1.7625 1.165 1.125 1.25 C-1.72082309 2.25440815 -1.69360143 3.31462516 -3 6 C-4.8602395 8.14925977 -6.79517303 10.20258671 -9 12 C-9.66 12 -10.32 12 -11 12 C-11.4021875 13.36125 -11.4021875 13.36125 -11.8125 14.75 C-12.89576294 17.71471963 -13.98359457 19.6169754 -16 22 C-15.17665766 13.21768174 -8.27738416 6.55680143 -2 1 C-1.34 0.67 -0.68 0.34 0 0 Z " fill="#A3A3A3" transform="translate(275,54)"/>
<path d="M0 0 C0.66 0.33 1.32 0.66 2 1 C1.16855469 1.74443359 1.16855469 1.74443359 0.3203125 2.50390625 C-4.34888538 6.88231778 -6.74628526 9.73142628 -8 16 C-8.66 16.66 -9.32 17.32 -10 18 C-10.69748583 19.31747324 -11.36959957 20.64914193 -12 22 C-12.37210831 17.65873643 -11.34221021 15.60340032 -9 12 C-8.7525 11.21625 -8.505 10.4325 -8.25 9.625 C-6.35246646 5.64017957 -3.20609409 2.9746381 0 0 Z " fill="#434343" transform="translate(785,57)"/>
<path d="M0 0 C2.97 0.495 2.97 0.495 6 1 C6.33 2.32 6.66 3.64 7 5 C7.66 5 8.32 5 9 5 C9.69710731 6.28650706 10.38242876 7.57940665 11.0625 8.875 C11.44535156 9.59429687 11.82820312 10.31359375 12.22265625 11.0546875 C12.60744141 12.01761719 12.60744141 12.01761719 13 13 C12.67 13.66 12.34 14.32 12 15 C8 8.25 8 8.25 8 6 C7.4225 5.7525 6.845 5.505 6.25 5.25 C3.6997003 3.83316683 1.98214299 2.12372463 0 0 Z " fill="#525252" transform="translate(214,56)"/>
<path d="M0 0 C0.495 0.66 0.99 1.32 1.5 2 C4.76269871 5.91523845 8.35925053 9.43878146 12 13 C9 13 9 13 7.28125 11.57421875 C6.6934375 10.95160156 6.105625 10.32898438 5.5 9.6875 C4.9121875 9.07261719 4.324375 8.45773437 3.71875 7.82421875 C3.1515625 7.22222656 2.584375 6.62023437 2 6 C1.00340326 4.99660828 0.00458358 3.99539531 -1 3 C-0.67 2.01 -0.34 1.02 0 0 Z " fill="#4A4A4A" transform="translate(262,252)"/>
<path d="M0 0 C-1.39253532 3.48133831 -2.63176216 4.47886033 -6 6 C-6.33 6.66 -6.66 7.32 -7 8 C-7.66 8 -8.32 8 -9 8 C-9 8.99 -9 9.98 -9 11 C-9.66 11 -10.32 11 -11 11 C-10.67 9.68 -10.34 8.36 -10 7 C-9.34 7 -8.68 7 -8 7 C-7.67 6.01 -7.34 5.02 -7 4 C-6.34 4 -5.68 4 -5 4 C-4.67 3.01 -4.34 2.02 -4 1 C-2 0 -2 0 0 0 Z " fill="#535353" transform="translate(44,160)"/>
<path d="M0 0 C0 3.80345877 -1.13786331 4.77701015 -3.5 7.6875 C-4.1496875 8.49574219 -4.799375 9.30398438 -5.46875 10.13671875 C-5.9740625 10.75160156 -6.479375 11.36648438 -7 12 C-8.32 11.67 -9.64 11.34 -11 11 C-10.45730469 10.54109375 -9.91460937 10.0821875 -9.35546875 9.609375 C-8.64003906 8.99578125 -7.92460937 8.3821875 -7.1875 7.75 C-6.47980469 7.14671875 -5.77210938 6.5434375 -5.04296875 5.921875 C-3.08110329 4.07629602 -1.54330375 2.20054668 0 0 Z " fill="#6E6E6E" transform="translate(224,255)"/>
<path d="M0 0 C6.57142857 5.14285714 6.57142857 5.14285714 8 9 C4.11980141 7.74155722 2.0588158 6.57583797 0 3 C0 2.01 0 1.02 0 0 Z " fill="#4F4F4F" transform="translate(31,242)"/>
<path d="M0 0 C0.33 1.32 0.66 2.64 1 4 C-0.4375 6.25 -0.4375 6.25 -2 8 C-3.32 7.67 -4.64 7.34 -6 7 C-4.02 4.69 -2.04 2.38 0 0 Z " fill="#444444" transform="translate(465,164)"/>
<path d="M0 0 C0.99 0.33 1.98 0.66 3 1 C-0.465 3.97 -0.465 3.97 -4 7 C-3.6875 4.625 -3.6875 4.625 -3 2 C-2.01 1.34 -1.02 0.68 0 0 Z " fill="#C5C5C5" transform="translate(288,76)"/>
<path d="M0 0 C0.33 1.32 0.66 2.64 1 4 C-1.02045442 3.39816251 -3.02111039 2.72693904 -5 2 C-5.33 1.34 -5.66 0.68 -6 0 C-3.50907189 -1.24546405 -2.58919267 -0.7767578 0 0 Z " fill="#676767" transform="translate(983,69)"/>
<path d="M0 0 C0.66 0 1.32 0 2 0 C1.42655063 2.86724686 1.1385485 3.8614515 -1 6 C-1.69748583 7.31747324 -2.36959957 8.64914193 -3 10 C-3.3636198 5.75776898 -2.5393228 3.41831915 0 0 Z " fill="#595959" transform="translate(776,69)"/>
</svg>
