<?xml version="1.0" encoding="UTF-8"?>
<svg version="1.1" xmlns="http://www.w3.org/2000/svg" width="4961" height="797">
<path d="M0 0 C1.88582417 -0.00187027 3.77164795 -0.00417184 5.65747112 -0.00686532 C10.81979247 -0.01296309 15.98209757 -0.01285211 21.1444217 -0.01167095 C26.71995105 -0.01146643 32.29547526 -0.01699064 37.8710022 -0.02172852 C48.78764984 -0.03002475 59.70429207 -0.0327829 70.6209426 -0.03334089 C79.49829212 -0.03381658 88.37563986 -0.03587398 97.25298882 -0.03904152 C118.34501034 -0.04641382 139.43703078 -0.05256663 160.52905369 -0.05204296 C161.20302358 -0.05202738 161.87699347 -0.0520118 162.57138669 -0.05199575 C165.98700384 -0.05191265 169.40262099 -0.05181361 172.81823815 -0.05171105 C173.49653722 -0.0516911 174.1748363 -0.05167115 174.87368989 -0.05165061 C176.24537573 -0.05161017 177.61706157 -0.05156837 178.98874741 -0.05152521 C200.31867188 -0.05091278 221.64858045 -0.0584144 242.97850037 -0.07209778 C266.96818902 -0.08748125 290.95786572 -0.09604996 314.94756073 -0.09513456 C327.63978704 -0.09480305 340.33199542 -0.09752993 353.02421761 -0.10831261 C363.83223909 -0.11743594 374.64023449 -0.11957785 385.44825817 -0.11280318 C390.95728269 -0.10954711 396.46625724 -0.10944818 401.97527695 -0.11815643 C407.0293154 -0.12606294 412.08326458 -0.12454796 417.13730096 -0.1158723 C418.95491202 -0.11434639 420.77252987 -0.11611871 422.5901329 -0.12173238 C437.59745191 -0.16497163 452.75549523 0.43120469 467.34837341 4.25871277 C468.17135925 4.47261658 468.99434509 4.68652039 469.8422699 4.90690613 C490.72515408 10.61092588 509.88461714 20.99338638 525.41087341 36.13371277 C526.6980584 37.20163779 527.98966224 38.26426167 529.28587341 39.32121277 C556.74629501 63.58343265 569.96888381 99.59459909 572.23659801 135.38161087 C572.90165954 149.70020446 572.69058007 164.06445602 572.67232275 178.3944869 C572.66775442 183.70882256 572.67480351 189.02314558 572.68028259 194.33747864 C572.68913194 204.71989396 572.68727458 215.10228021 572.68145731 225.48469663 C572.67692317 233.92982803 572.67633546 242.37495134 572.67850494 250.82008362 C572.67881141 252.02635916 572.67911788 253.2326347 572.67943363 254.47546405 C572.68007314 256.92671021 572.68072157 259.37795637 572.68137881 261.82920253 C572.68706904 284.76375714 572.68054478 307.6982957 572.66977808 330.63284767 C572.66084377 350.27149041 572.66239618 369.91010951 572.6716156 389.54875183 C572.68234138 412.40653147 572.68651984 435.26429709 572.68039107 458.1220789 C572.67975404 460.56383323 572.6791253 463.00558758 572.67850494 465.44734192 C572.67819639 466.64843682 572.67788784 467.84953172 572.67756994 469.08702344 C572.67584991 477.51277677 572.6787431 485.93852113 572.68346405 494.36427307 C572.68909859 504.64564049 572.68750267 514.9269774 572.67690256 525.20834136 C572.67168029 530.44452577 572.66952966 535.68065949 572.67620087 540.91684341 C572.73123843 588.24194172 570.49750801 634.15794319 535.41087341 670.13371277 C534.27979153 671.48280363 533.15457826 672.83684092 532.03587341 674.19621277 C514.53247291 694.24629741 487.60590649 707.07021973 462.09837341 713.00871277 C461.22809509 713.21206238 460.35781677 713.41541199 459.46116638 713.62492371 C446.34144544 716.46707838 433.00204957 716.28010448 419.6504364 716.26742554 C417.77042303 716.26929667 415.89041005 716.27159858 414.01039767 716.27429086 C408.87346753 716.28037773 403.73655374 716.28027896 398.59962082 716.27909648 C393.04800417 716.27889169 387.49639267 716.28441869 381.94477844 716.28915405 C371.07954117 716.2974438 360.21430932 716.30020812 349.34906915 716.30076643 C340.51418832 716.30124234 331.67930928 716.3033008 322.84442902 716.30646706 C301.84925985 716.31383776 280.85409164 716.31999239 259.85892105 716.3194685 C259.18832369 716.31945292 258.51772634 716.31943734 257.82680785 716.31942129 C254.42835749 716.31933819 251.02990712 716.31923915 247.63145676 716.31913658 C246.95657705 716.31911664 246.28169733 716.31909669 245.58636672 716.31907614 C244.22159745 716.3190357 242.85682819 716.31899391 241.49205893 716.31895075 C220.26251628 716.31833811 199.03298961 716.32584446 177.80345154 716.33952332 C153.92253 716.3549044 130.04161887 716.36347568 106.16069102 716.36256009 C93.52721222 716.36222855 80.89375145 716.36495709 68.26027679 716.37573814 C57.50461002 716.38485825 46.74896944 716.38700595 35.99330047 716.38022872 C30.51071432 716.37697131 25.0281784 716.37687868 19.54559708 716.38558197 C14.5169797 716.39348223 9.48845209 716.39197977 4.45983681 716.38329784 C2.65037864 716.3817706 0.84091366 716.3835494 -0.96853647 716.38915791 C-15.17004105 716.43022615 -29.72969958 716.0780204 -43.46412659 712.07121277 C-44.56011169 711.75531189 -44.56011169 711.75531189 -45.67823792 711.43302917 C-75.00070395 702.47832007 -99.97350866 681.98522779 -114.69264221 655.11955261 C-128.309104 629.51310693 -128.58912659 605.38022011 -128.58912659 576.13371277 C56.21087341 576.13371277 241.01087341 576.13371277 431.41087341 576.13371277 C431.41087341 432.25371277 431.41087341 288.37371277 431.41087341 140.13371277 C292.81087341 140.13371277 154.21087341 140.13371277 11.41087341 140.13371277 C11.41087341 235.83371277 11.41087341 331.53371277 11.41087341 430.13371277 C-34.45912659 430.13371277 -80.32912659 430.13371277 -127.58912659 430.13371277 C-129.26786863 428.45497072 -128.71606403 426.39589154 -128.71776104 424.09182739 C-128.72098549 422.99260043 -128.72420993 421.89337347 -128.72753209 420.7608366 C-128.72598349 419.53802392 -128.72443488 418.31521124 -128.72283936 417.05534363 C-128.72510491 415.76791417 -128.72737047 414.48048471 -128.72970468 413.15404224 C-128.73585349 409.5634152 -128.73568545 405.97281133 -128.7345103 402.38218021 C-128.73430704 398.51543883 -128.73981831 394.64870505 -128.74456787 390.78196716 C-128.75289464 383.19573748 -128.75562373 375.60951556 -128.75618025 368.02328169 C-128.75665498 361.85115741 -128.7587076 355.6790357 -128.76188087 349.50691223 C-128.77069727 332.00160131 -128.77529936 314.49629653 -128.7745504 296.99098337 C-128.77451044 296.04615048 -128.77447049 295.10131758 -128.77442932 294.12785339 C-128.77438844 293.18186267 -128.77434756 292.23587196 -128.77430544 291.26121485 C-128.77389993 275.96648429 -128.78344298 260.67177847 -128.79756769 245.37705505 C-128.81196156 229.66637714 -128.81883604 213.95571125 -128.81797391 198.24502659 C-128.81764271 189.42762777 -128.82035521 180.6102548 -128.83115196 171.79286194 C-128.84029719 164.2758063 -128.84239984 156.75878819 -128.83564254 149.24172938 C-128.83239593 145.41183618 -128.83225234 141.5820148 -128.84099579 137.7521286 C-128.92112961 100.31937526 -128.92112961 100.31937526 -124.52662659 85.25871277 C-124.3153009 84.52660583 -124.10397522 83.7944989 -123.88624573 83.04020691 C-114.26990314 51.58098134 -93.53092817 28.11763808 -64.95240784 12.55949402 C-44.20616385 1.81055001 -22.98237312 -0.02165993 0 0 Z " fill="#A8A8A8" transform="translate(2623.589126586914,37.86628723144531)"/>
<path d="M0 0 C1.9781455 -0.00187045 3.95629064 -0.00417209 5.93443519 -0.00686532 C11.34726222 -0.0129607 16.76007375 -0.0128524 22.17290342 -0.01167095 C28.01970047 -0.01146637 33.86649261 -0.01699114 39.71328735 -0.02172852 C51.15952704 -0.03002312 62.60576157 -0.03278282 74.052004 -0.03334089 C83.35887671 -0.0338166 92.66574785 -0.03586353 101.97262001 -0.03904152 C104.65580314 -0.03993912 107.33898628 -0.04082894 110.02216941 -0.0417164 C111.02286281 -0.04204797 111.02286281 -0.04204797 112.04377223 -0.04238624 C130.79789464 -0.04853672 149.55201648 -0.05248718 168.30613995 -0.05204296 C169.01259197 -0.05202738 169.71904398 -0.0520118 170.44690364 -0.05199575 C174.02714201 -0.05191265 177.60738038 -0.05181361 181.18761875 -0.05171105 C181.89861136 -0.0516911 182.60960397 -0.05167115 183.34214181 -0.05165061 C184.77994088 -0.05161017 186.21773996 -0.05156837 187.65553904 -0.05152521 C210.01945542 -0.05091262 232.38335663 -0.05841761 254.74726868 -0.07209778 C279.89864938 -0.08747689 305.05002012 -0.09606291 330.20140582 -0.09513456 C332.88616073 -0.09505993 335.57091564 -0.09501122 338.25567055 -0.09498024 C339.2471826 -0.09496276 339.2471826 -0.09496276 340.2587252 -0.09494492 C350.21382663 -0.09491612 360.16891601 -0.1002501 370.1240139 -0.10831261 C381.45429 -0.11743029 392.78454124 -0.11958242 404.11481943 -0.11280318 C409.89106133 -0.10954445 415.66725556 -0.10945793 421.44349289 -0.11815643 C426.74045995 -0.12605089 432.03734176 -0.12456006 437.33430681 -0.1158723 C439.24137159 -0.11434379 441.14844283 -0.11612875 443.05549999 -0.12173238 C457.57542113 -0.16154092 472.40940232 0.12623818 486.44868469 4.25871277 C487.55566711 4.58065613 487.55566711 4.58065613 488.68501282 4.90910339 C518.70896281 14.08237833 542.64460115 35.14015756 557.71186829 62.42082214 C568.4371642 83.1186025 570.60692232 104.38222476 570.57807922 127.32633972 C570.57943646 129.14758845 570.58121821 130.9688369 570.58338928 132.79008484 C570.58792619 137.70964496 570.58618925 142.62918398 570.5830102 147.54874444 C570.58046604 152.71648732 570.58282995 157.88422848 570.58439636 163.05197144 C570.58621256 171.73115867 570.58382668 180.41033738 570.57905579 189.08952332 C570.57361938 199.094321 570.57537353 209.09909829 570.58088219 219.10389549 C570.58543515 227.72082706 570.58605306 236.33775252 570.58344352 244.95468491 C570.58189207 250.08915076 570.58165565 255.22360706 570.58498001 260.35807228 C570.58789034 265.19017862 570.58582549 270.02225893 570.58008575 274.85436249 C570.57877478 276.61746617 570.57912363 278.38057208 570.58134842 280.14367485 C570.59750481 294.2599417 570.45441436 308.06551307 566.88618469 321.82121277 C566.62079895 322.85012634 566.35541321 323.87903992 566.08198547 324.93913269 C559.77335385 348.41036576 547.96794791 368.38758754 531.44868469 386.13371277 C530.43934875 387.24746277 530.43934875 387.24746277 529.40962219 388.38371277 C507.33785914 411.67646697 475.2982988 426.44335048 443.49754906 429.2553997 C442.55555333 429.33884093 441.6135576 429.42228215 440.64301654 429.5082519 C428.55811539 430.48111594 416.46998895 430.4039879 404.35435486 430.3742218 C401.67899177 430.37509577 399.00363976 430.37676662 396.3282789 430.37940013 C390.55097009 430.38351013 384.77370285 430.38032505 378.99639893 430.37212372 C370.40600988 430.35996323 361.81564658 430.35946043 353.22525049 430.3612077 C338.76897546 430.36382474 324.31271881 430.3571938 309.85644913 430.34517288 C295.55635614 430.33331249 281.25627082 430.32563569 266.95617294 430.32346725 C265.61923036 430.32326104 265.61923036 430.32326104 264.25527884 430.32305065 C259.72828701 430.32237392 255.20129518 430.32177118 250.67430334 430.3211969 C218.6637078 430.31700332 186.65312226 430.30354889 154.64253235 430.28459167 C123.55724643 430.26620377 92.47196325 430.25204589 61.38667297 430.24357605 C60.42739454 430.243313 59.46811611 430.24304995 58.47976864 430.24277892 C48.84573074 430.24014173 39.21169282 430.23759013 29.57765489 430.2351012 C9.95445431 430.23002966 -9.66874609 430.22438716 -29.29194641 430.21839905 C-30.64511814 430.21798718 -30.64511814 430.21798718 -32.02562668 430.21756699 C-92.20086038 430.19918582 -152.37608852 430.1674978 -212.55131531 430.13371277 C-212.54854993 431.51359344 -212.54854993 431.51359344 -212.54572868 432.92135048 C-212.50147667 455.34980829 -212.4684233 477.77825853 -212.44769096 500.20675087 C-212.43739737 511.05318906 -212.42337382 521.89959803 -212.4004364 532.74601746 C-212.38044369 542.20451483 -212.36758495 551.66299104 -212.36313832 561.12150896 C-212.36054087 566.12537596 -212.35447601 571.12918242 -212.33985519 576.13302994 C-212.32617818 580.85255694 -212.32211292 585.57199902 -212.32509995 590.29154396 C-212.32455428 592.01432953 -212.32063757 593.73711825 -212.31290436 595.45988655 C-212.17689617 627.35064754 -220.81736324 658.28072176 -243.22709656 681.80168152 C-243.99408875 682.57125183 -244.76108093 683.34082214 -245.55131531 684.13371277 C-246.38276062 684.97031433 -247.21420593 685.80691589 -248.07084656 686.66886902 C-248.88940125 687.48226746 -249.70795593 688.29566589 -250.55131531 689.13371277 C-251.61479187 690.19332214 -251.61479187 690.19332214 -252.69975281 691.27433777 C-262.20269113 700.27712144 -273.69176734 706.70907728 -285.55131531 712.13371277 C-286.26209038 712.48722168 -286.97286545 712.84073058 -287.70517915 713.20495188 C-297.1343416 717.3216292 -306.84264246 716.68400749 -316.92474365 716.62818909 C-319.00443627 716.63136825 -321.08412681 716.6362984 -323.16381162 716.64282191 C-328.86210383 716.65561813 -334.56011072 716.6435365 -340.25838411 716.62729335 C-346.4106125 716.61411418 -352.56280964 716.62404197 -358.71504211 716.63105774 C-369.37277144 716.63997172 -380.03039962 716.63420317 -390.68811226 716.61776352 C-401.87407775 716.60051337 -413.06000563 716.59072369 -424.24598503 716.59109879 C-425.29109014 716.59112172 -425.29109014 716.59112172 -426.35730849 716.59114512 C-429.18587011 716.59122695 -432.01443172 716.59135818 -434.84299334 716.59155675 C-461.36957374 716.59336821 -487.89609699 716.57349258 -514.42265755 716.54269742 C-537.96123865 716.51547152 -561.49977914 716.50297404 -585.03837585 716.50431824 C-586.54884611 716.50439906 -588.05931636 716.50447978 -589.56978662 716.5045604 C-590.68993493 716.50462145 -590.68993493 716.50462145 -591.8327125 716.50468373 C-595.59227934 716.50488534 -599.35184617 716.5050665 -603.111413 716.50522423 C-603.85320619 716.50525765 -604.59499938 716.50529108 -605.35927116 716.50532552 C-625.05400178 716.50605709 -644.74872735 716.4969649 -664.44345373 716.4845711 C-665.14475899 716.48413056 -665.84606426 716.48369001 -666.56862119 716.48323612 C-669.38841869 716.48145977 -672.20821618 716.47968291 -675.02801363 716.47785421 C-684.81271342 716.47155065 -694.59740922 716.46851779 -704.3821109 716.46763123 C-717.00098318 716.46643332 -729.61981953 716.4581489 -742.23868025 716.43876831 C-748.3188228 716.42956877 -754.3989245 716.42342778 -760.47907448 716.42595673 C-766.05493799 716.42816335 -771.63071149 716.42101007 -777.20655625 716.40665968 C-779.21393363 716.403064 -781.2213204 716.40274179 -783.22869802 716.40619425 C-798.76192777 716.42993272 -814.75293515 716.32145013 -829.67631531 711.50871277 C-830.92022034 711.11740173 -830.92022034 711.11740173 -832.18925476 710.71818542 C-861.34384201 701.16122952 -885.33018858 680.88135989 -899.76274109 653.86613464 C-903.84481101 645.7897058 -906.98460231 637.44909854 -909.48881531 628.75871277 C-909.78840149 627.72617371 -909.78840149 627.72617371 -910.09403992 626.67277527 C-913.27737412 614.67241499 -912.70061868 602.00642859 -912.69657898 589.6915741 C-912.6995767 587.85534091 -912.70298063 586.01910834 -912.70675659 584.18287659 C-912.7155387 579.22598886 -912.71793226 574.26911843 -912.71857238 569.31222367 C-912.71928621 566.20639447 -912.7214268 563.10056957 -912.7240696 559.99474144 C-912.73330407 549.13407999 -912.73740689 538.27343075 -912.73661804 527.4127655 C-912.73601786 517.33017012 -912.746563 507.24762834 -912.76236171 497.16504651 C-912.77548863 488.47416237 -912.78079978 479.78329565 -912.78016263 471.09240168 C-912.77990915 465.91703857 -912.78267711 460.74172314 -912.79334068 455.56637001 C-912.8031088 450.69318222 -912.80304192 445.82008688 -912.79582405 440.9468956 C-912.79478893 439.1721489 -912.7970762 437.39739617 -912.80318451 435.62265968 C-912.84946332 421.22889111 -912.29590047 406.7143 -908.42631531 392.75871277 C-908.2116864 391.97746033 -907.9970575 391.19620789 -907.77592468 390.39128113 C-901.67497847 369.15055649 -891.00501514 349.99993436 -875.55131531 334.13371277 C-874.58488131 332.95279603 -873.6259628 331.76567024 -872.67631531 330.57121277 C-856.16591027 311.18744995 -828.72838083 297.93010189 -804.30131531 292.25871277 C-803.4271698 292.05536316 -802.55302429 291.85201355 -801.65238953 291.64250183 C-790.8204366 289.30996336 -779.83119429 288.98194109 -768.78478527 289.01066494 C-767.67065403 289.0095111 -766.55652278 289.00835725 -765.40862998 289.00716844 C-761.69691429 289.00453375 -757.98524248 289.00899783 -754.27352905 289.01345825 C-751.57706319 289.01302191 -748.88060009 289.01218789 -746.18413478 289.01086909 C-740.33283636 289.00880343 -734.48154816 289.01042525 -728.63025093 289.01450729 C-719.92968374 289.02056015 -711.22912295 289.02084144 -702.52855404 289.0199653 C-687.89046034 289.01865349 -673.25237117 289.02198489 -658.61427879 289.02798271 C-644.1253272 289.03390418 -629.63637749 289.03774956 -615.1474247 289.03883553 C-613.79499749 289.03893863 -613.79499749 289.03893863 -612.41524852 289.03904383 C-607.83619575 289.03938217 -603.25714297 289.03968355 -598.67809019 289.0399707 C-566.26319064 289.04206989 -533.84829355 289.04880382 -501.43339539 289.05827332 C-469.94706739 289.06746091 -438.46074008 289.07454298 -406.97441101 289.07878113 C-406.00349045 289.07891265 -405.03256989 289.07904418 -404.0322275 289.07917969 C-394.28164921 289.08049824 -384.53107092 289.08177405 -374.78049262 289.08301855 C-354.9182776 289.08555462 -335.05606262 289.08837587 -315.19384766 289.09136963 C-314.28065914 289.09150692 -313.36747062 289.09164421 -312.42660972 289.09178566 C-251.46817722 289.10098291 -190.5097461 289.11682772 -129.55131531 289.13371277 C-129.55408069 287.74748419 -129.55408069 287.74748419 -129.55690193 286.333251 C-129.60139725 263.79595547 -129.63421238 241.25866566 -129.65493965 218.72133541 C-129.66523087 207.82223889 -129.67924981 196.92317147 -129.70219421 186.02409363 C-129.72219426 176.51907489 -129.73504739 167.01407723 -129.7394923 157.50903803 C-129.74208851 152.48110597 -129.7481454 147.45323422 -129.76277542 142.42532158 C-129.77646409 137.68198908 -129.7805154 132.93874108 -129.77753067 128.1953907 C-129.77807583 126.4649624 -129.78198547 124.73453094 -129.78972626 123.00411987 C-129.93588887 88.61046482 -119.74077791 58.27468463 -95.42631531 33.32121277 C-68.75716295 7.09608734 -36.1591196 -0.03251913 0 0 Z M-56.91264343 78.64738464 C-67.32776184 91.3840409 -70.72359816 105.03814843 -70.67156982 121.09318542 C-70.67242425 122.06782273 -70.67327867 123.04246004 -70.67415899 124.04663181 C-70.67579991 127.29703195 -70.67031522 130.54737993 -70.6648407 133.79777527 C-70.6645585 136.13390095 -70.6647172 138.47002672 -70.6652832 140.80615234 C-70.66556991 147.13812908 -70.65969365 153.47008684 -70.65270925 159.80205917 C-70.64708857 165.75200755 -70.64608559 171.70195522 -70.64505737 177.65190589 C-70.64287162 189.4327917 -70.63622448 201.21367057 -70.62675476 212.99455261 C-70.6175683 224.43498195 -70.6104935 235.87540939 -70.60624695 247.31584167 C-70.60598422 248.02165784 -70.6057215 248.727474 -70.60545082 249.45467854 C-70.60414573 252.99573834 -70.60288203 256.53679815 -70.60163891 260.07785797 C-70.59128115 289.42981405 -70.5736012 318.78176333 -70.55131531 348.13371277 C-71.15997938 348.13340081 -71.76864345 348.13308885 -72.39575189 348.13276743 C-138.67229468 348.09886952 -204.94883847 348.06745939 -271.22538757 348.04902649 C-272.21563389 348.04875038 -273.20588021 348.04847426 -274.22613399 348.04818978 C-295.74761866 348.04220376 -317.26910342 348.03666342 -338.79058832 348.03158211 C-349.34494525 348.02908747 -359.89930216 348.02649436 -370.45365906 348.02384949 C-371.50393617 348.02358797 -372.55421328 348.02332645 -373.63631697 348.02305701 C-407.66975789 348.01453657 -441.70319216 347.99951562 -475.73662905 347.98111833 C-510.71471564 347.96224476 -545.69279855 347.94993993 -580.67089014 347.94588279 C-585.61297564 347.94530649 -590.55506112 347.94465522 -595.49714661 347.94395828 C-596.46980578 347.94382344 -597.44246495 347.94368859 -598.44459864 347.94354966 C-614.09239534 347.94118759 -629.74018066 347.93191513 -645.38797273 347.9200487 C-661.12492625 347.90826249 -676.86186851 347.90377975 -692.59882629 347.90671001 C-701.94474936 347.90822944 -711.29063115 347.9041911 -720.63654676 347.89211768 C-726.88669611 347.88459628 -733.13681854 347.88440063 -739.38696978 347.89004914 C-742.94367118 347.89305709 -746.50029472 347.89298693 -750.05698764 347.8839464 C-781.06844674 347.80997485 -808.32786981 350.42562806 -831.55131531 373.13371277 C-845.75124857 388.50311161 -853.73237508 408.05994419 -853.68502808 429.00708008 C-853.68729363 429.75752789 -853.68955919 430.5079757 -853.6918934 431.28116435 C-853.69817845 433.7734524 -853.6974076 436.2656853 -853.69657898 438.75798035 C-853.6995739 440.5540982 -853.70297719 442.35021541 -853.70675659 444.14633179 C-853.71556672 449.01008134 -853.71793344 453.87381328 -853.71857238 458.73757005 C-853.71928455 461.78034729 -853.72142203 464.82312009 -853.7240696 467.86589622 C-853.73331297 478.49268756 -853.73740572 489.11946637 -853.73661804 499.7462616 C-853.73601745 509.63348851 -853.74656831 519.52066083 -853.76236171 529.40787393 C-853.77546003 537.91259797 -853.78080098 546.41730421 -853.78016263 554.92203826 C-853.77990833 559.99442987 -853.7827221 565.06677292 -853.79334068 570.13915443 C-853.80306035 574.91213658 -853.80307442 579.68502413 -853.79582405 584.45800972 C-853.79478303 586.20302215 -853.79711225 587.94804058 -853.80318451 589.69304276 C-853.86828612 609.70840646 -850.67957314 626.11501852 -836.55131531 641.13371277 C-823.96585241 653.21286394 -807.93457413 657.29024329 -790.91670609 657.27631378 C-790.08039064 657.2795648 -789.24407519 657.28281582 -788.38241684 657.28616536 C-785.58553853 657.29581481 -782.78869911 657.29845041 -779.99180603 657.30107117 C-777.964051 657.3065213 -775.93629705 657.31238519 -773.9085443 657.31862688 C-768.34021588 657.33444522 -762.77189185 657.34398278 -757.20354795 657.35239172 C-752.42669207 657.36040763 -747.64984798 657.37209548 -742.87299994 657.38380653 C-726.45562076 657.42398316 -710.03822887 657.45097891 -693.6208194 657.47450933 C-691.57288102 657.47745423 -689.52494271 657.48044415 -687.47700441 657.48344731 C-661.40689445 657.52160459 -635.33677848 657.55509282 -609.26664919 657.57670647 C-602.6450664 657.58220016 -596.02348379 657.58789982 -589.40190125 657.59367371 C-588.67027084 657.59430613 -587.93864043 657.59493856 -587.18483941 657.59559015 C-563.45922217 657.61627469 -539.73374169 657.66225425 -516.00819393 657.72232639 C-491.60393048 657.78400424 -467.1997403 657.82292043 -442.79539772 657.83220971 C-439.34755885 657.83352639 -435.89972012 657.83508833 -432.45188141 657.83679199 C-431.43408797 657.83728018 -431.43408797 657.83728018 -430.39573305 657.83777824 C-419.48593485 657.84364955 -408.57632413 657.87320075 -397.66659698 657.91149821 C-386.69825608 657.94945301 -375.73009299 657.96105377 -364.76168898 657.94773561 C-358.82184146 657.9412656 -352.88257539 657.94613606 -346.94281769 657.98160934 C-341.50194364 658.01384236 -336.06206089 658.01358312 -330.62116143 657.98779231 C-328.65617791 657.9841477 -326.69112861 657.99227761 -324.72625712 658.01357383 C-313.03066547 658.1326677 -305.09416284 657.52955986 -295.55131531 650.13371277 C-294.95579495 649.70678745 -294.36027459 649.27986213 -293.74670815 648.83999968 C-281.84809669 639.90688332 -274.21183874 626.18191863 -272.01561832 611.5694809 C-271.44050131 606.7785089 -271.41537243 602.0324011 -271.43106079 597.21220398 C-271.43020637 596.24165022 -271.42935194 595.27109647 -271.42847162 594.27113199 C-271.42683079 591.03455131 -271.43231526 587.79802301 -271.43778992 584.56144714 C-271.43807212 582.23517356 -271.43791341 579.90889988 -271.43734741 577.58262634 C-271.43706072 571.27750822 -271.44293686 564.97240915 -271.44992137 558.66729546 C-271.45554214 552.74253844 -271.45654504 546.81778215 -271.45757324 540.89302284 C-271.45975897 529.16205131 -271.46640605 517.43108676 -271.47587585 505.70011902 C-271.48506238 494.30819229 -271.49213714 482.91626746 -271.49638367 471.52433777 C-271.49664639 470.8215086 -271.49690911 470.11867943 -271.4971798 469.39455241 C-271.49848489 465.86847668 -271.49974858 462.34240094 -271.5009917 458.81632519 C-271.51134939 429.58878318 -271.52902927 400.36124807 -271.55131531 371.13371277 C-270.94541159 371.13402473 -270.33950787 371.13433669 -269.71524343 371.13465811 C-203.73603754 371.16855766 -137.75683065 371.19996756 -71.77761841 371.21839905 C-70.79173936 371.21867516 -69.80586031 371.21895128 -68.79010614 371.21923576 C-47.36328902 371.22522185 -25.9364718 371.23076217 -4.50965444 371.23584343 C5.9983499 371.23833806 16.50635422 371.24093117 27.01435852 371.24357605 C28.06002034 371.24383757 29.10568217 371.24409909 30.18303071 371.24436853 C64.06397644 371.25288824 97.94491549 371.26790863 131.82585717 371.28630721 C166.64861642 371.30518284 201.47137196 371.31748608 236.29413623 371.32154275 C241.21481909 371.32211904 246.13550193 371.32277031 251.05618477 371.32346725 C252.02462706 371.3236021 252.99306936 371.32373695 253.99085839 371.32387588 C269.56779031 371.32623751 285.14471079 371.33550877 300.72163805 371.34737684 C316.38915602 371.359166 332.05666267 371.36364505 347.72418492 371.36071552 C357.02768389 371.35919665 366.33114137 371.36322944 375.63463284 371.37530785 C381.85777983 371.38283367 388.0808998 371.38302183 394.3040487 371.3773764 C397.84450749 371.37437074 401.38488807 371.37442904 404.92533832 371.38347913 C435.70657241 371.4483893 463.45978791 369.38530864 486.70698547 347.07096863 C505.08030718 328.6949818 511.55286703 306.76282355 511.59532166 281.47285461 C511.59497225 279.80918882 511.59451077 278.14552304 511.59394836 276.4818573 C511.59694482 274.70677114 511.60034847 272.93168562 511.60412598 271.15660095 C511.61291938 266.35901623 511.61530208 261.56144937 511.61594176 256.76385736 C511.61665477 253.76092883 511.6187938 250.75800478 511.62143898 247.75507736 C511.6306761 237.26328495 511.63477581 226.7715052 511.63398743 216.27970886 C511.63338667 206.52424446 511.64394224 196.76883535 511.65973109 187.01338494 C511.67283475 178.6156104 511.67817016 170.21785387 511.67753202 161.82006919 C511.67727792 156.8141859 511.68008062 151.80835183 511.69071007 146.80247879 C511.70043905 142.09266637 511.70043752 137.38294978 511.69319344 132.67313385 C511.69215363 130.95272811 511.69447426 129.23231624 511.70055389 127.51192093 C511.7677283 107.17307651 508.62707241 90.70598192 494.44868469 75.13371277 C478.02944539 60.16790543 460.12764395 58.82563266 439.01557922 58.87974548 C437.05036873 58.87743841 435.08515909 58.87426024 433.11995125 58.87029099 C427.74305803 58.86196822 422.36623611 58.86605682 416.98934269 58.87226343 C411.18149402 58.87679723 405.37365742 58.86979956 399.56581116 58.86430359 C388.19744265 58.85541786 376.82910057 58.85732796 365.46073103 58.86312887 C356.22008008 58.86764857 346.97943653 58.86825693 337.73878479 58.86608124 C336.42280339 58.86577477 335.106822 58.86546831 333.75096238 58.86515255 C331.74770582 58.86467666 329.74444926 58.86419424 327.74119271 58.86369877 C302.72488781 58.85758529 277.7085973 58.86312053 252.69229463 58.87389256 C230.48282839 58.88338327 208.2733851 58.88253399 186.06391907 58.87297058 C161.09240556 58.86225369 136.12090476 58.85801891 111.14938927 58.86419511 C108.48578771 58.86483651 105.82218615 58.86546094 103.15858459 58.86608124 C101.19285246 58.86654406 101.19285246 58.86654406 99.18740857 58.86701624 C89.95957641 58.86874193 80.7317524 58.8658308 71.50392151 58.86112213 C60.25584472 58.85550868 49.00779583 58.85703956 37.75972223 58.86768362 C32.02258169 58.87293403 26.28548766 58.87500776 20.54834747 58.86838531 C15.29296476 58.86241078 10.03767153 58.86572583 4.7822969 58.87634042 C2.88474355 58.87856806 0.9871826 58.87745249 -0.91036582 58.87258884 C-22.20656377 58.82220608 -41.92945597 61.98745597 -56.91264343 78.64738464 Z " fill="#545454" transform="translate(978.5513153076172,37.86628723144531)"/>
<path d="M0 0 C0.89272648 0.00205532 1.78545296 0.00411064 2.70523176 0.00622824 C4.12037485 0.00359868 4.12037485 0.00359868 5.5641067 0.000916 C8.76761253 -0.00378514 11.97107379 -0.00126798 15.17458162 0.00114992 C17.47790362 -0.00071603 19.7812253 -0.00301586 22.08454648 -0.0057154 C28.44750168 -0.0118674 34.81044382 -0.01169581 41.17340133 -0.01052102 C47.3213289 -0.00985504 53.46925324 -0.01482088 59.61717891 -0.01913391 C73.75909418 -0.02882708 87.90100584 -0.03161899 102.04292404 -0.03219097 C112.97234736 -0.03265012 123.90176925 -0.03470645 134.83119211 -0.0378916 C137.97497355 -0.03878915 141.11875499 -0.03967896 144.26253644 -0.04056647 C145.43486496 -0.04089805 145.43486496 -0.04089805 146.63087688 -0.04123632 C168.63259805 -0.04739548 190.63431871 -0.05133643 212.63604078 -0.05089304 C213.46638742 -0.05087746 214.29673406 -0.05086188 215.15224272 -0.05084583 C219.36089742 -0.05076272 223.56955212 -0.05066368 227.77820682 -0.05056112 C228.61407023 -0.05054118 229.44993364 -0.05052123 230.31112625 -0.05050068 C232.00145432 -0.05046025 233.69178239 -0.05041845 235.38211046 -0.05037529 C261.63795703 -0.04976353 287.89379064 -0.05724868 314.1496335 -0.07094786 C343.64671613 -0.0863318 373.14379026 -0.09491252 402.64087716 -0.09398463 C405.79126005 -0.09391001 408.94164295 -0.0938613 412.09202585 -0.09383032 C412.86772661 -0.09381866 413.64342737 -0.09380701 414.44263422 -0.093795 C426.89521373 -0.0937643 439.34778196 -0.10013531 451.80035813 -0.10876258 C464.3391038 -0.11726917 476.8778331 -0.11820577 489.41658007 -0.11165326 C496.20194578 -0.10829798 502.98726852 -0.10829931 509.77263078 -0.11700651 C515.99797273 -0.12491239 522.22324221 -0.12339859 528.44858248 -0.11472238 C530.68782588 -0.11319624 532.92707479 -0.11496967 535.16631167 -0.12058245 C546.06963077 -0.14607776 556.87831571 0.0598981 567.74399099 1.02531508 C568.61796069 1.10283029 569.4919304 1.18034551 570.39238403 1.26020967 C599.29617399 4.11766957 626.95981568 17.07350183 647.86667451 37.13486269 C649.21661692 38.26492811 650.57064396 39.39013634 651.92917451 40.50986269 C659.90674787 47.47415556 665.98171767 56.40367672 671.86667451 65.13486269 C672.41839326 65.88122988 672.97011201 66.62759707 673.53854951 67.39658144 C691.12373041 92.44336432 694.20356196 124.27053278 694.12546358 153.9185541 C694.12818425 155.69523299 694.13175113 157.47191075 694.13608369 159.24858645 C694.14508089 164.00675235 694.14171705 168.76483003 694.13532552 173.52299717 C694.13020052 178.54200776 694.13497463 183.56101166 694.13809785 188.5800226 C694.14171813 197.00033442 694.13698896 205.42061094 694.1274167 213.84091738 C694.11652883 223.52944831 694.12006803 233.21789505 694.13106951 242.90642396 C694.14018951 251.27817178 694.14140497 259.6498945 694.13619217 268.02164569 C694.13309915 272.99850215 694.13258884 277.97531922 694.13926515 282.95217302 C694.14510739 287.63259744 694.1409181 292.31291485 694.12947664 296.99332789 C694.12686668 298.69509306 694.12753099 300.39686749 694.13200197 302.09862879 C694.16600694 316.3745278 693.87953295 331.28517631 689.80417451 345.07236269 C689.48827363 346.16158022 689.48827363 346.16158022 689.16599092 347.27280214 C679.88130948 377.49486021 658.61338882 402.53979761 630.78464326 417.33798769 C623.71202273 420.9441368 616.49369406 423.8076892 608.86667451 426.00986269 C608.21658418 426.20104677 607.56649385 426.39223086 606.89670381 426.58920839 C591.10810979 430.77228387 574.65600574 430.42050189 558.46835908 430.38210085 C556.02489172 430.38369154 553.5814248 430.3861577 551.13795909 430.38941726 C545.85179291 430.39446966 540.56568249 430.39338923 535.27952203 430.38673189 C527.4193245 430.37686031 519.55915818 430.3785603 511.69895694 430.38248219 C498.4724414 430.38873885 485.24594375 430.38560732 472.01943025 430.37688807 C458.93211777 430.36826241 445.84481333 430.36336818 432.75749788 430.3635557 C431.94225332 430.36356335 431.12700877 430.36357099 430.28705983 430.36357887 C426.97763149 430.36361978 423.66820316 430.36368539 420.35877482 430.36378468 C389.35187361 430.36468962 358.34498465 430.35476115 327.33808769 430.33935502 C299.77746511 430.3257118 272.21685122 430.31949464 244.65622529 430.32016543 C242.88419631 430.32020584 241.11216733 430.3202462 239.34013835 430.3202865 C238.4640846 430.32030686 237.58803086 430.32032721 236.68543003 430.32034817 C232.27568342 430.32044897 227.86593681 430.32053955 223.4561902 430.32061842 C222.58624645 430.32063513 221.71630271 430.32065185 220.81999703 430.32066907 C197.78992332 430.32103382 174.7598507 430.3165005 151.7297779 430.31029186 C150.50188913 430.30996145 150.50188913 430.30996145 149.24919452 430.30962437 C145.9574084 430.30873614 142.66562228 430.30784775 139.37383616 430.30693341 C127.90815283 430.30377018 116.44247035 430.30226374 104.97678661 430.30182192 C90.21600249 430.30122602 75.45522555 430.29725451 60.69444451 430.28739046 C52.88276879 430.28226079 45.07110361 430.27987099 37.25942629 430.28138665 C31.44332047 430.28220308 25.62722641 430.27782885 19.81112388 430.27133615 C17.44622006 430.26951139 15.08131422 430.26940349 12.71641031 430.27110343 C9.52453873 430.27314532 6.33273311 430.2691462 3.14086732 430.26349714 C1.73465776 430.26658012 1.73465776 430.26658012 0.30003992 430.26972538 C-6.01917039 430.24901779 -6.01917039 430.24901779 -7.13332549 429.13486269 C-7.13332549 383.26486269 -7.13332549 337.39486269 -7.13332549 290.13486269 C177.99667451 290.13486269 363.12667451 290.13486269 553.86667451 290.13486269 C553.86667451 240.96486269 553.86667451 191.79486269 553.86667451 141.13486269 C540.49103975 141.14533632 527.11540498 141.15580996 513.33444795 141.16660097 C470.49525857 141.19872812 427.65606913 141.22095928 384.81687082 141.23699335 C378.15817905 141.23949464 371.49948732 141.24208097 364.84079561 141.24472597 C363.84691088 141.24511825 363.84691088 141.24511825 362.83294768 141.24551845 C340.72406702 141.25429223 318.61519791 141.27019813 296.50632387 141.28916828 C274.49358641 141.30789786 252.48085457 141.31898588 230.46810946 141.32303968 C216.89457059 141.3257784 203.32106216 141.33441593 189.74753267 141.35069562 C180.42873341 141.36130026 171.10994981 141.36445546 161.79114497 141.36186545 C156.4216899 141.36058956 151.05228788 141.36248983 145.68284234 141.37327364 C140.75347478 141.38310058 135.82419529 141.38343724 130.89482343 141.37666048 C129.12462558 141.37582456 127.35442192 141.378281 125.58423525 141.38462906 C109.82221818 141.43780193 93.34470187 141.22880459 78.17917451 136.50986269 C77.31453584 136.24898867 76.44989717 135.98811464 75.55905733 135.71933535 C44.45587773 125.95172529 20.9264235 105.41418666 5.51901826 76.87705019 C-6.33196089 53.79996169 -8.99503177 26.7575732 -7.13332549 1.13486269 C-5.24935353 -0.74910927 -2.50737877 0.00862603 0 0 Z " fill="#A8A8A8" transform="translate(4081.1333254873753,323.865137308836)"/>
<path d="M0 0 C64.03384869 -0.04026156 64.03384869 -0.04026156 83.85189819 -0.05130005 C84.5586919 -0.05169472 85.26548561 -0.05208938 85.99369731 -0.05249601 C109.79638533 -0.06575129 133.59907372 -0.0762505 157.40176392 -0.08468628 C158.17886375 -0.08496239 158.95596358 -0.08523851 159.7566119 -0.08552299 C176.64694764 -0.09150944 193.5372835 -0.09704972 210.42761954 -0.10213066 C218.71118649 -0.10462523 226.99475341 -0.10721835 235.27832031 -0.10986328 C236.10261466 -0.1101248 236.92690901 -0.11038632 237.77618197 -0.11065576 C264.47187109 -0.11917147 291.16755172 -0.13418887 317.8632357 -0.15259444 C345.30702113 -0.17148133 372.75080187 -0.18377592 400.19459369 -0.18782998 C404.07491576 -0.18840625 407.9552378 -0.18905752 411.83555984 -0.18975449 C412.98106275 -0.18995676 412.98106275 -0.18995676 414.14970712 -0.19016311 C426.4199564 -0.19252233 438.69019111 -0.20178704 450.96043445 -0.21366407 C463.30991586 -0.22546934 475.6593829 -0.22992827 488.00886975 -0.22700275 C494.69449693 -0.22561982 501.38007641 -0.22766559 508.06569862 -0.23841095 C514.19526377 -0.24819032 520.32475796 -0.24860462 526.45432647 -0.24179779 C528.66324726 -0.24095731 530.8721726 -0.24345444 533.08108453 -0.24976636 C549.57202473 -0.2941208 566.03622806 0.02134929 582 4.625 C582.91950439 4.88587402 583.83900879 5.14674805 584.78637695 5.41552734 C606.40877928 11.79823493 626.11490579 22.93727694 642 39 C642.83789062 39.83660156 643.67578125 40.67320313 644.5390625 41.53515625 C645.75722656 42.75525391 645.75722656 42.75525391 647 44 C647.7321875 44.7115625 648.464375 45.423125 649.21875 46.15625 C678.68065287 76.42532829 685.17458067 116.28495865 685.12025452 156.69624329 C685.12069097 159.11222173 685.12156723 161.52820013 685.12284368 163.94417828 C685.12460925 169.18263497 685.12329056 174.42108137 685.11920547 179.65953636 C685.11314815 187.44881839 685.11287174 195.23809328 685.11374746 203.02737723 C685.11505874 216.13282492 685.11172994 229.23826755 685.10573006 242.34371376 C685.09980716 255.31431414 685.09596292 268.28491242 685.09487724 281.25551414 C685.0948085 282.0628607 685.09473976 282.87020726 685.09466894 283.70201886 C685.09433059 287.80234858 685.09402922 291.90267831 685.09374207 296.00300803 C685.09164327 325.0237353 685.08491044 354.04445982 685.07543945 383.06518555 C685.06625082 411.25333644 685.05916926 439.44148658 685.05493164 467.62963867 C685.05473435 468.93362581 685.05473435 468.93362581 685.05453308 470.26395612 C685.05321452 478.99430321 685.05193871 487.72465031 685.05069422 496.45499741 C685.0481582 514.23873102 685.04533695 532.02246458 685.04234314 549.80619812 C685.04220585 550.62381339 685.04206856 551.44142867 685.04192711 552.28382016 C685.03770515 577.33783946 685.03227456 602.39185829 685.02565002 627.44587708 C685.02536869 628.51256307 685.02536869 628.51256307 685.02508167 629.60079828 C685.01746744 658.4005324 685.0085728 687.20026615 685 716 C638.8 716 592.6 716 545 716 C545 525.92 545 335.84 545 140 C365.15 140 185.3 140 0 140 C0 93.8 0 47.6 0 0 Z " fill="#A8A8A8" transform="translate(3303,38)"/>
<path d="M0 0 C2.45156635 -0.00087333 4.90313252 -0.00262665 7.3546977 -0.00517833 C12.66163338 -0.0087039 17.9685117 -0.0060846 23.27543831 0.00209808 C31.16647745 0.01423112 39.05748849 0.01476388 46.94853526 0.01301411 C60.22628329 0.01039377 73.50401133 0.01704065 86.78175354 0.02904892 C99.92013142 0.04090058 113.05850097 0.04858436 126.19688416 0.05075455 C127.42423082 0.05096077 127.42423082 0.05096077 128.67637238 0.05117115 C132.83209557 0.05184786 136.98781878 0.05245061 141.14354199 0.0530249 C170.54528528 0.05722088 199.94701771 0.07068203 229.34875488 0.08963013 C257.90441836 0.10801167 286.46007886 0.12217268 315.01574707 0.13064575 C315.8966297 0.1309088 316.77751232 0.13117186 317.68508836 0.13144288 C326.53162378 0.13408002 335.37815922 0.13663163 344.22469467 0.1391206 C362.24460455 0.14419243 380.26451423 0.14983494 398.28442383 0.15582275 C399.11287114 0.15609733 399.94131846 0.15637191 400.79487024 0.15665481 C426.17737573 0.1650976 451.55987938 0.17595814 476.94238281 0.18920898 C477.66273573 0.1895841 478.38308864 0.18995922 479.12527043 0.1903457 C508.29660854 0.20557305 537.4679452 0.22336308 566.63928223 0.24050903 C566.63928223 46.44050903 566.63928223 92.64050903 566.63928223 140.24050903 C381.83928223 140.24050903 197.03928223 140.24050903 6.63928223 140.24050903 C6.67890582 235.30581946 6.67890582 235.30581946 6.72937012 330.37112427 C6.73388672 348.71133423 6.73388672 348.71133423 6.73472595 357.28312683 C6.73566178 363.30058682 6.7393438 369.31803762 6.74485779 375.335495 C6.75119961 382.26655382 6.75412371 389.19760376 6.75272718 396.12866551 C6.7521218 399.67817262 6.75311643 403.22765987 6.75849736 406.77716339 C6.76420907 410.56768225 6.76229088 414.35817418 6.75953674 418.1486969 C6.76244941 419.26994996 6.76536207 420.39120302 6.768363 421.54643345 C6.76637213 422.55544397 6.76438126 423.5644545 6.76233006 424.6040411 C6.76270978 425.48157478 6.7630895 426.35910847 6.76348072 427.26323408 C6.63928223 429.24050903 6.63928223 429.24050903 5.63928223 430.24050903 C3.84465455 430.33908223 2.04611197 430.36683015 0.2487793 430.36749268 C-1.50546608 430.37172241 -1.50546608 430.37172241 -3.29515076 430.3760376 C-4.58973709 430.37401337 -5.88432343 430.37198914 -7.21813965 430.36990356 C-8.58610582 430.37125759 -9.95407163 430.37303753 -11.32203674 430.37521362 C-15.04714151 430.37978784 -18.77221871 430.37799845 -22.49732399 430.37483454 C-26.38729555 430.37231088 -30.27726468 430.37464849 -34.16723633 430.3762207 C-40.70097276 430.37804238 -47.2346979 430.37563614 -53.76843262 430.37088013 C-61.3329946 430.36543751 -68.89752964 430.36720017 -76.46209097 430.37270653 C-82.94530262 430.37723771 -89.42850613 430.37788819 -95.91171885 430.37526786 C-99.78892363 430.37370512 -103.66611572 430.37351126 -107.5433197 430.37680435 C-111.18759364 430.37968314 -114.83183268 430.37770724 -118.47610283 430.3719101 C-120.45949632 430.36994692 -122.44289275 430.37293634 -124.42628479 430.3760376 C-125.59578171 430.37321777 -126.76527863 430.37039795 -127.97021484 430.36749268 C-128.99302803 430.36711565 -130.01584122 430.36673862 -131.06964874 430.36635017 C-133.36071777 430.24050903 -133.36071777 430.24050903 -134.36071777 429.24050903 C-134.45971526 427.57975552 -134.48811366 425.91476345 -134.48935223 424.25106239 C-134.49257667 423.16351902 -134.49580112 422.07597564 -134.49912328 420.9554764 C-134.49757467 419.74570081 -134.49602607 418.53592521 -134.49443054 417.28948975 C-134.4966961 416.01572208 -134.49896165 414.74195441 -134.50129586 413.42958772 C-134.50744468 409.87702656 -134.50727663 406.32448882 -134.50610149 402.77192354 C-134.50589822 398.94604405 -134.51140959 395.12017223 -134.51615906 391.29429626 C-134.52448625 383.78760699 -134.52721495 376.28092555 -134.52777144 368.77423204 C-134.52824622 362.66553075 -134.53029914 356.55683204 -134.53347206 350.44813156 C-134.54228921 333.11896453 -134.54689052 315.78980371 -134.54614159 298.46063443 C-134.54610163 297.52528797 -134.54606167 296.58994151 -134.54602051 295.62625122 C-134.54595919 294.22150984 -134.54595919 294.22150984 -134.54589663 292.78838985 C-134.54549127 277.6534402 -134.55503003 262.51851556 -134.56915887 247.38357313 C-134.5835602 231.8333473 -134.5904268 216.28313363 -134.5895651 200.73290098 C-134.58923411 192.00710012 -134.59193693 183.28132538 -134.60274315 174.55553055 C-134.6118983 167.11502139 -134.61398309 159.67455016 -134.60723373 152.23403777 C-134.6039918 148.44440182 -134.60382602 144.65483841 -134.61258698 140.86520958 C-134.69948519 100.74022214 -134.69948519 100.74022214 -129.73571777 84.61550903 C-129.47484375 83.74708374 -129.21396973 82.87865845 -128.94519043 81.98391724 C-119.63046874 52.18934374 -98.81992475 27.67781416 -71.27478027 13.03347778 C-64.18075004 9.41966234 -56.95048929 6.5615086 -49.29821777 4.36550903 C-48.63974854 4.17432495 -47.9812793 3.98314087 -47.30285645 3.78616333 C-31.79957995 -0.30165452 -15.8955469 -0.04231759 0 0 Z " fill="#A8A8A8" transform="translate(1790.3607177734375,37.759490966796875)"/>
<path d="M0 0 C46.2 0 92.4 0 140 0 C140 30.36 140 60.72 140 92 C324.8 92 509.6 92 700 92 C700 138.2 700 184.4 700 232 C631.77399345 232.04026156 631.77399345 232.04026156 610.65933228 232.05130005 C609.52977703 232.05189205 609.52977703 232.05189205 608.37740249 232.05249601 C583.01888558 232.06575051 557.66036831 232.07625005 532.30184937 232.08468628 C531.47399898 232.08496239 530.64614859 232.08523851 529.79321183 232.08552299 C511.80008093 232.09150936 493.80694991 232.09704964 475.81381873 232.10213066 C466.9894859 232.10462525 458.1651531 232.10721837 449.34082031 232.10986328 C448.46271163 232.1101248 447.58460295 232.11038632 446.67988491 232.11065576 C418.23813093 232.11917243 389.79638492 232.13419055 361.35463576 232.15259444 C332.11739327 232.17147863 302.88015518 232.18377529 273.64290669 232.18782998 C269.50960192 232.18840626 265.37629716 232.18905753 261.2429924 232.18975449 C260.02279937 232.18995676 260.02279937 232.18995676 258.77795598 232.19016311 C245.7043313 232.19252291 232.63072029 232.20178919 219.55710117 232.21366407 C206.40107058 232.22546547 193.24505346 232.22992923 180.08901776 232.22700275 C172.28098718 232.22548619 164.47300612 232.22949589 156.66498451 232.24159509 C150.82068449 232.25002924 144.97641824 232.24789488 139.13211434 232.24179779 C136.77783793 232.24095658 134.42355727 232.24346018 132.06928916 232.24976636 C98.88900443 232.33343054 98.88900443 232.33343054 83.9375 227.875 C83.20402344 227.66037109 82.47054687 227.44574219 81.71484375 227.22460938 C50.77918371 217.71613167 26.86680344 195.92195599 11.65234375 167.7421875 C2.57309012 150.04785477 -0.17620142 131.98580305 -0.11352539 112.27661133 C-0.11364593 111.03626224 -0.11376646 109.79591314 -0.11389065 108.51797771 C-0.1133972 105.86829231 -0.11115437 103.21868722 -0.10557556 100.5690155 C-0.09802783 96.76910499 -0.0954667 92.96922875 -0.09460449 89.16931152 C-0.089381 80.05036957 -0.07541974 70.9314343 -0.0625 61.8125 C-0.041875 41.414375 -0.02125 21.01625 0 0 Z " fill="#545454" transform="translate(849,522)"/>
<path d="M0 0 C68.36258616 -0.04026156 68.36258616 -0.04026156 89.51878357 -0.05130005 C90.65056161 -0.05189205 90.65056161 -0.05189205 91.80520386 -0.05249601 C117.21230328 -0.06574983 142.61940306 -0.07624966 168.02650452 -0.08468628 C168.8559027 -0.08496239 169.68530088 -0.08523851 170.53983233 -0.08552299 C188.56636438 -0.09150928 206.59289654 -0.09704957 224.61942887 -0.10213066 C233.46007174 -0.10462526 242.30071459 -0.10721838 251.14135742 -0.10986328 C252.46095885 -0.11025556 252.46095885 -0.11025556 253.80721889 -0.11065576 C282.30446445 -0.11917327 310.80170206 -0.13419202 339.29894281 -0.15259444 C368.59187614 -0.17147626 397.88480508 -0.18377475 427.1777444 -0.18782998 C431.31839722 -0.18840626 435.45905003 -0.18905753 439.59970284 -0.18975449 C440.41461543 -0.18988933 441.22952802 -0.19002418 442.06913493 -0.19016311 C455.16899241 -0.19252341 468.26883627 -0.20179108 481.3686882 -0.21366407 C494.54934606 -0.22546208 507.72999046 -0.22993007 520.9106534 -0.22700275 C528.7344467 -0.22548555 536.5581906 -0.22950166 544.38197495 -0.24159509 C550.23623218 -0.25002304 556.09045566 -0.24789819 561.94471676 -0.24179779 C564.30435892 -0.24095594 566.6640053 -0.2434652 569.02363919 -0.24976636 C600.86562477 -0.3298161 600.86562477 -0.3298161 616 4.125 C616.73798828 4.33962891 617.47597656 4.55425781 618.23632812 4.77539062 C648.07850084 13.8931268 672.49959574 34.90916403 687.21142578 62.25146484 C696.73229113 80.92905414 700.1802979 99.80807175 700.11352539 120.6315918 C700.11370619 122.47724716 700.11370619 122.47724716 700.11389065 124.36018848 C700.11314978 128.30655089 700.10555946 132.25286489 700.09765625 136.19921875 C700.09618427 138.65026832 700.09516514 141.10131821 700.09460449 143.55236816 C700.08938128 152.59741693 700.07542002 161.64245895 700.0625 170.6875 C700.041875 190.920625 700.02125 211.15375 700 232 C653.8 232 607.6 232 560 232 C560 201.64 560 171.28 560 140 C375.2 140 190.4 140 0 140 C0 93.8 0 47.6 0 0 Z " fill="#545454" transform="translate(66,38)"/>
<path d="M0 0 C231.33 0 462.66 0 701 0 C701 46.2 701 92.4 701 140 C632.63741384 140.04026156 632.63741384 140.04026156 611.48121643 140.05130005 C610.72669774 140.05169472 609.97217904 140.05208938 609.19479614 140.05249601 C583.78769672 140.06574983 558.38059694 140.07624966 532.97349548 140.08468628 C532.1440973 140.08496239 531.31469912 140.08523851 530.46016767 140.08552299 C512.43363562 140.09150928 494.40710346 140.09704957 476.38057113 140.10213066 C467.53992826 140.10462526 458.69928541 140.10721838 449.85864258 140.10986328 C448.53904115 140.11025556 448.53904115 140.11025556 447.19278111 140.11065576 C418.69553555 140.11917327 390.19829794 140.13419202 361.70105719 140.15259444 C332.40812386 140.17147626 303.11519492 140.18377475 273.8222556 140.18782998 C269.68160278 140.18840626 265.54094997 140.18905753 261.40029716 140.18975449 C260.58538457 140.18988933 259.77047198 140.19002418 258.93086507 140.19016311 C245.83100759 140.19252341 232.73116373 140.20179108 219.6313118 140.21366407 C206.45065394 140.22546208 193.27000954 140.22993007 180.0893466 140.22700275 C172.2655533 140.22548555 164.4418094 140.22950166 156.61802505 140.24159509 C150.76376782 140.25002304 144.90954434 140.24789819 139.05528324 140.24179779 C136.69564108 140.24095594 134.3359947 140.2434652 131.97636081 140.24976636 C100.17592209 140.32971165 100.17592209 140.32971165 85.125 135.9375 C84.39361816 135.72617432 83.66223633 135.51484863 82.90869141 135.29711914 C51.60178177 125.72022313 27.39935027 103.6492971 11.87890625 75.19140625 C-0.28788961 51.60935812 0 26.07947123 0 0 Z " fill="#A8A8A8" transform="translate(1656,614)"/>
<path d="M0 0 C1.01052114 -0.00115384 2.02104227 -0.00230769 3.06218526 -0.0034965 C6.43349141 -0.00613416 9.80474938 -0.00166461 13.17605305 0.00279331 C15.62330378 0.00235703 18.07055448 0.00148106 20.51780492 0.00020415 C25.83078765 -0.00156358 31.14375609 -0.00023793 36.45673656 0.00384235 C44.35686728 0.00989261 52.25699096 0.01017674 60.15712358 0.00930037 C73.44822749 0.00798823 86.73932642 0.01132115 100.03042889 0.01731777 C113.18689403 0.02323841 126.3433571 0.02708445 139.49982357 0.02817059 C140.72768579 0.0282737 140.72768579 0.0282737 141.9803533 0.02837889 C146.1376213 0.02871723 150.2948893 0.02901861 154.4521573 0.02930576 C183.88440069 0.03140518 213.31664138 0.03813975 242.74888325 0.04760838 C271.33872685 0.05679536 299.92856971 0.06387773 328.5184145 0.06811619 C329.39995475 0.06824771 330.28149501 0.06837924 331.18974861 0.06851475 C340.04268214 0.06983329 348.89561568 0.0711091 357.74854922 0.07235361 C375.78237744 0.0748897 393.81620561 0.07771096 411.85003376 0.08070469 C412.67916752 0.08084198 413.50830129 0.08097927 414.36256032 0.08112072 C439.77219331 0.08534311 465.18182584 0.09077395 490.59145832 0.0973978 C491.31274903 0.09758536 492.03403973 0.09777292 492.77718773 0.09796616 C521.99032798 0.10558081 551.20346787 0.11447516 580.41660786 0.12304783 C580.41660786 46.32304783 580.41660786 92.52304783 580.41660786 140.12304783 C349.08660786 140.12304783 117.75660786 140.12304783 -120.58339214 140.12304783 C-120.58339214 98.00622047 -115.47789281 64.23437494 -85.39589214 33.37304783 C-62.24322365 10.57295805 -32.20498068 -0.09203262 0 0 Z " fill="#A8A8A8" transform="translate(4194.5833921432495,37.876952171325684)"/>
<path d="M0 0 C0.80139413 -0.00205263 1.60278826 -0.00410527 2.42846707 -0.0062201 C5.11258143 -0.01187245 7.79664419 -0.01043504 10.48076344 -0.00901413 C12.42515888 -0.01159877 14.36955379 -0.01461221 16.31394798 -0.01801753 C21.65651066 -0.02607902 26.99905991 -0.02787663 32.34162796 -0.028615 C38.10389146 -0.03046701 43.866148 -0.03801505 49.62840748 -0.04475021 C62.22756948 -0.05832757 74.8267283 -0.0643572 87.42589641 -0.06876087 C95.29312218 -0.07152405 103.16034673 -0.07576152 111.02757168 -0.08026505 C132.81085832 -0.09245646 154.59414381 -0.1027917 176.37743378 -0.10614014 C177.78546198 -0.10636177 179.19349018 -0.10658355 180.60151838 -0.10680549 C182.01290549 -0.10702613 183.4242926 -0.10724661 184.83567971 -0.10746694 C187.66706606 -0.10790948 190.49845241 -0.1083566 193.32983875 -0.10880661 C194.03185519 -0.108916 194.73387163 -0.10902539 195.45716129 -0.1091381 C218.21937133 -0.11276862 240.98154951 -0.12868959 263.74374735 -0.15199697 C287.82012056 -0.17660486 311.89647543 -0.19030668 335.97286159 -0.19150805 C349.09309432 -0.19242475 362.21328534 -0.19817578 375.33350658 -0.21632767 C386.50485417 -0.23172889 397.67614714 -0.23684892 408.84750333 -0.22858956 C414.5461546 -0.2246833 420.24469589 -0.22561167 425.94333363 -0.23964691 C431.16378958 -0.25238677 436.38405292 -0.25118743 441.60450862 -0.2390562 C443.48942823 -0.23709938 445.37436149 -0.24017691 447.25926193 -0.24890056 C462.57717838 -0.31528573 475.61841158 0.60920133 487.48828602 11.25642776 C495.33106493 19.47609079 496.92027106 29.69302364 496.93449879 40.65002823 C496.93789712 41.73660799 496.93789712 41.73660799 496.94136411 42.84513885 C496.94765829 45.25528229 496.9468777 47.66536884 496.94604969 50.07551956 C496.9490441 51.81075487 496.95244727 53.54598952 496.9562273 55.2812233 C496.96504414 59.98394744 496.96740448 64.68665337 496.96804309 69.38938498 C496.96875505 72.33182637 496.97089218 75.27426317 496.97354031 78.21670341 C496.98278698 88.4945149 496.98687616 98.77231343 496.98608875 109.05012894 C496.98548856 118.60955841 496.99603066 128.16893135 497.01183242 137.72834653 C497.02493852 145.95196442 497.03027134 154.17556391 497.02963334 162.39919215 C497.0293792 167.30339822 497.03218372 172.20755405 497.04281139 177.11174965 C497.05254382 181.72877525 497.05253651 186.34570312 497.04529476 190.96273232 C497.0442552 192.64927184 497.04657411 194.33581761 497.05265522 196.0223465 C497.12434589 217.297314 493.52050396 234.68522236 478.73828602 250.75642776 C466.77601471 262.28928421 451.76635781 267.31118939 435.36502647 267.25447559 C434.12461925 267.25620636 434.12461925 267.25620636 432.8591533 267.25797209 C430.08825811 267.26061892 427.31742103 267.25613252 424.54652882 267.25168228 C422.53995911 267.25211838 420.53338947 267.25299399 418.52682012 267.25427145 C413.01286501 267.25650885 407.49892929 267.25250541 401.98497665 267.24749339 C396.03889553 267.24317827 390.09281553 267.24463607 384.14673328 267.24539566 C373.84470403 267.24592022 363.54268065 267.24281539 353.24065304 267.23715782 C342.43655905 267.23123974 331.63246759 267.22739166 320.828372 267.22630501 C320.15647499 267.22623627 319.48457798 267.22616753 318.79232045 267.22609671 C315.38006138 267.22575837 311.96780231 267.22545699 308.55554324 267.22516983 C284.3898119 267.22306971 260.22408386 267.21633317 236.05835438 267.20686722 C212.5824431 267.1976821 189.10653272 267.19059882 165.63062 267.18635941 C164.90692357 267.18622788 164.18322713 267.18609635 163.43760051 267.18596084 C156.16990889 267.18464232 148.90221726 267.1833665 141.63452563 267.18212198 C126.82954837 267.1795858 112.02457117 267.17676455 97.219594 267.1737709 C96.5388929 267.17363361 95.85819181 267.17349632 95.1568634 267.17335487 C49.70483622 267.16415502 4.25281094 267.14828911 -41.19921398 267.13142776 C-41.24485552 237.20260543 -41.28024179 207.27378426 -41.30134464 177.34493461 C-41.303846 173.81022394 -41.30643465 170.27551334 -41.30907726 166.74080276 C-41.30960188 166.03711616 -41.3101265 165.33342956 -41.31066702 164.60841912 C-41.31936568 153.21979329 -41.33513269 141.83118768 -41.35351957 130.44257385 C-41.37223362 118.75368821 -41.38333389 107.06481315 -41.38739097 95.37591314 C-41.38999893 88.81175725 -41.39613121 82.24764721 -41.4106741 75.68350601 C-41.4242524 69.50466356 -41.42843608 63.32588583 -41.42542934 57.14702988 C-41.42597939 54.87990594 -41.42995531 52.61277983 -41.43762493 50.34566879 C-41.44758993 47.24801207 -41.44517706 44.15059904 -41.43972301 41.05293655 C-41.4455487 40.15797549 -41.45137438 39.26301442 -41.4573766 38.34093332 C-41.40451301 27.21609108 -38.15079849 18.14114695 -30.57421398 9.88142776 C-21.8589665 1.62747883 -11.61691738 -0.02795066 0 0 Z M17.80078602 59.13142776 C17.80078602 107.31142776 17.80078602 155.49142776 17.80078602 205.13142776 C156.40078602 205.13142776 295.00078602 205.13142776 437.80078602 205.13142776 C437.80078602 156.95142776 437.80078602 108.77142776 437.80078602 59.13142776 C299.20078602 59.13142776 160.60078602 59.13142776 17.80078602 59.13142776 Z " fill="#545454" transform="translate(971.1992139816284,118.86857223510742)"/>
<path d="M0 0 C1.24720311 -0.00173077 1.24720311 -0.00173077 2.51960224 -0.0034965 C5.29988765 -0.00613895 8.08011491 -0.00166059 10.86039734 0.00279331 C12.8760797 0.00235713 14.891762 0.00148134 16.907444 0.00020415 C22.44194289 -0.00203149 27.97642243 0.00196776 33.51091886 0.00698221 C39.48084083 0.01129986 45.45076172 0.00983935 51.42068481 0.00907993 C61.76252996 0.00855553 72.10436926 0.01165865 82.44621277 0.01731777 C93.29134654 0.02323707 104.13647779 0.02708418 114.98161316 0.02817059 C115.65621412 0.02823933 116.33081509 0.02830806 117.02585851 0.02837889 C120.45188871 0.02871723 123.87791891 0.02901861 127.30394912 0.02930576 C151.56340818 0.03140555 175.82286396 0.03814115 200.08232117 0.04760838 C223.64840172 0.05679439 247.21448137 0.06387723 270.78056335 0.06811619 C271.87039288 0.06831348 271.87039288 0.06831348 272.98223917 0.06851475 C280.27865797 0.06983328 287.57507677 0.0711091 294.87149559 0.07235361 C309.73482096 0.07488975 324.59814627 0.077711 339.46147156 0.08070469 C340.14484634 0.08084198 340.82822113 0.08097927 341.53230424 0.08112072 C387.15819018 0.09031964 432.78407421 0.10618545 478.40995789 0.12304783 C478.4556179 29.76303843 478.49099521 59.40302737 478.51208854 89.04304578 C478.51458985 92.54513637 478.51717851 96.04722688 478.51982117 99.54931736 C478.5206081 100.59508849 478.5206081 100.59508849 478.52141093 101.66198631 C478.53010513 112.93933018 478.54586967 124.21665359 478.56426348 135.49398534 C478.58298994 147.07213984 478.59393079 158.65028244 478.59813488 170.22845137 C478.6007407 176.7289551 478.60685941 183.22941246 478.621418 189.72990131 C478.63501619 195.85129585 478.63917597 201.97262503 478.63617325 208.09403324 C478.63672241 210.33774133 478.64068646 212.58145167 478.64836884 214.82514668 C478.65836502 217.8958299 478.65590969 220.96626849 478.65046692 224.03695774 C478.6562926 224.91831123 478.66211828 225.79966471 478.6681205 226.70772588 C478.60820632 239.27141973 475.65832802 248.77657592 467.38652039 258.26367283 C462.22324417 263.12082595 458.1353322 264.71270076 451.11514854 264.62361908 C449.87933227 264.63189033 449.87933227 264.63189033 448.61855 264.64032868 C445.85164328 264.65394825 443.0856311 264.63901341 440.31874084 264.62425327 C438.31745782 264.62814529 436.31617757 264.63378493 434.31490386 264.64102417 C428.81036441 264.6558118 423.30611008 264.64557773 417.80157971 264.63128746 C411.86682541 264.62019995 405.93211183 264.6321131 399.99736023 264.64112949 C389.03999491 264.65427387 378.08271676 264.6492678 367.12535695 264.63505421 C356.99939686 264.62200385 346.87346964 264.61680616 336.74750137 264.61937237 C335.74008547 264.61961299 335.74008547 264.61961299 334.71231774 264.61985848 C331.98598409 264.62052207 329.25965046 264.62122448 326.53331684 264.62198382 C300.94995436 264.62901003 275.36664971 264.61351113 249.78330195 264.58736036 C227.06459747 264.56426066 204.34595662 264.55885105 181.62724304 264.56909275 C175.81291392 264.57169485 169.9985848 264.5742799 164.1842556 264.57669067 C163.11047077 264.57713684 163.11047077 264.57713684 162.01499331 264.57759203 C143.02499771 264.58521302 124.0350073 264.5787889 105.04501402 264.56799465 C103.0006365 264.56684687 100.95625898 264.56570369 98.91188145 264.56456783 C97.55572794 264.56381258 96.19957444 264.56304693 94.84342094 264.56227082 C84.72912365 264.55661843 74.61484285 264.55793856 64.5005455 264.56249905 C52.99246229 264.56742975 41.48444486 264.56142371 29.9763767 264.54160475 C24.10559431 264.53174302 18.234912 264.52661554 12.3641243 264.53449726 C6.98633073 264.54156925 1.60873881 264.53471371 -3.76902823 264.51689363 C-5.71117222 264.51285886 -7.65333467 264.51383264 -9.5954717 264.5204125 C-25.05664464 264.56829721 -38.35507608 263.80904153 -50.27754211 252.93554783 C-58.08757263 244.73233499 -59.70953046 235.58353617 -59.72375488 224.5664835 C-59.72602044 223.83801344 -59.728286 223.10954338 -59.73062021 222.35899848 C-59.73691487 219.93503559 -59.73613377 217.51112927 -59.73530579 215.08715916 C-59.73830016 213.34207176 -59.74170333 211.59698502 -59.7454834 209.85189915 C-59.75430054 205.12231638 -59.75666059 200.39275171 -59.75729918 195.66316152 C-59.75801113 192.70396917 -59.76014822 189.74478138 -59.7627964 186.78559017 C-59.77204317 176.44942401 -59.77613224 166.11327072 -59.77534485 155.77710056 C-59.77474465 146.16313965 -59.78528685 136.54923495 -59.80108851 126.93528825 C-59.81419426 118.66496163 -59.81952745 110.39465331 -59.81888944 102.12431639 C-59.81863529 97.19216477 -59.82144037 92.26006309 -59.83206749 87.32792187 C-59.84179932 82.68463161 -59.84179301 78.04143854 -59.83455086 73.39814472 C-59.83351122 71.70192986 -59.83583065 70.00570879 -59.84191132 68.30950451 C-59.90631915 49.08487453 -57.57704652 32.71112878 -44.28144836 17.81054783 C-31.80854446 5.35574683 -17.37750255 -0.06004331 0 0 Z M-0.59004211 59.12304783 C-0.59004211 107.30304783 -0.59004211 155.48304783 -0.59004211 205.12304783 C138.00995789 205.12304783 276.60995789 205.12304783 419.40995789 205.12304783 C419.40995789 156.94304783 419.40995789 108.76304783 419.40995789 59.12304783 C280.80995789 59.12304783 142.20995789 59.12304783 -0.59004211 59.12304783 Z " fill="#545454" transform="translate(206.5900421142578,408.8769521713257)"/>
<path d="M0 0 C46.2 0 92.4 0 140 0 C140 144.21 140 288.42 140 437 C93.8 437 47.6 437 0 437 C0 292.79 0 148.58 0 0 Z " fill="#A8A8A8" transform="translate(3303,317)"/>
</svg>
